<svg width="42" height="42" viewBox="0 0 42 42" fill="none" xmlns="http://www.w3.org/2000/svg">
<circle cx="21" cy="21" r="20.5" stroke="#C93737"/>
<path d="M18.245 11.7998C20.725 11.7998 24.625 12.6198 25.585 13.2998C25.805 13.4598 25.925 13.6998 25.925 13.9598V21.7798C25.925 22.0198 25.805 22.2598 25.625 22.3998C25.565 22.4398 24.165 23.5398 22.705 24.3598C20.885 25.3598 19.625 26.7598 19.325 27.6398C18.965 28.7198 18.445 30.1998 16.805 30.1998C16.025 30.1998 15.385 29.7598 15.045 28.9998C14.365 27.4398 15.085 25.2798 16.285 23.5798C15.485 23.3998 14.485 23.1398 13.885 22.9598C12.785 22.6198 12.065 21.8198 11.905 20.8398C11.765 19.8398 12.265 18.8198 13.325 18.0398C14.105 15.9398 15.445 12.6198 16.425 12.0798C16.805 11.8798 17.465 11.7998 18.245 11.7998ZM24.325 14.4398C22.805 13.7998 18.125 13.1398 17.245 13.4798C16.785 13.8998 15.605 16.5798 14.785 18.8398C14.725 18.9998 14.625 19.1398 14.485 19.2398C13.825 19.6798 13.485 20.1998 13.545 20.6398C13.605 20.9998 13.925 21.2998 14.405 21.4598C15.405 21.7798 17.885 22.3198 17.925 22.3198C18.205 22.3798 18.425 22.5798 18.525 22.8598C18.605 23.1398 18.545 23.4398 18.345 23.6398C16.545 25.5798 16.225 27.5598 16.565 28.3598C16.665 28.5998 16.785 28.5998 16.845 28.5998C17.245 28.5998 17.425 28.3198 17.845 27.1198C18.325 25.7198 19.985 24.0398 21.965 22.9598C22.925 22.4398 23.885 21.7398 24.365 21.3798V14.4398H24.325ZM27.485 13.8798V21.8598C27.485 22.5798 28.065 23.1598 28.785 23.1598C29.505 23.1598 30.085 22.5798 30.085 21.8598V13.8798C30.085 13.1598 29.505 12.5798 28.785 12.5798C28.085 12.5798 27.485 13.1798 27.485 13.8798Z" fill="#C93737"/>
</svg>
