<svg width="89" height="259" viewBox="0 0 89 259" fill="none" xmlns="http://www.w3.org/2000/svg">
<path fill-rule="evenodd" clip-rule="evenodd" d="M38.6727 246.444C41.5613 247.072 44.7508 247.024 47.6932 246.972C63.4732 246.758 78.9689 239.318 89.0539 227.429C97.6393 217.308 100 204.725 101.696 192.005C101.864 190.742 101.936 189.487 102.031 188.222C102.052 187.95 102.082 187.708 102.115 187.48C102.782 186.886 103.132 186.193 102.737 185.433C104.206 182.23 105.449 178.946 106.516 175.56C109.655 165.591 112.848 155.432 110.881 144.949C110.422 150.718 109.455 156.617 108.299 162.291C108.232 162.617 108.16 162.94 108.086 163.262C108.078 163.296 108.071 163.33 108.063 163.364C107.654 165.101 107.122 166.787 106.475 168.446C106.468 168.464 106.462 168.482 106.455 168.5C106.369 168.718 106.278 168.935 106.189 169.152C106.004 169.602 105.813 170.051 105.611 170.497C105.543 170.649 105.478 170.803 105.415 170.957C104.473 173.256 104.075 175.847 103.231 178.226C103.029 178.766 102.818 179.305 102.597 179.841C102.584 179.873 102.571 179.904 102.558 179.936C101.96 181.378 101.3 182.803 100.602 184.213C100.222 184.497 100.02 185.201 99.6924 185.841C99.6247 185.968 99.0957 186.809 98.9382 187.294C98.5271 188.086 98.1175 188.878 97.7034 189.669C97.7158 189.664 97.7282 189.659 97.7406 189.655C97.3263 190.414 96.9108 191.17 96.4985 191.923C96.4078 192.088 96.3161 192.254 96.2248 192.42C96.0768 192.684 95.9287 192.948 95.7809 193.211C94.3987 195.674 92.9331 198.089 91.4111 200.473C90.8679 201.324 89.5702 202.544 89.3213 203.499C89.3122 203.535 89.3101 203.568 89.3045 203.602C86.0018 208.221 82.1997 212.482 77.6401 215.858C78.1913 215.265 79.3628 213.252 79.6726 212.853C80.6204 211.632 81.6494 210.496 82.6823 209.346C84.5321 207.286 86.3382 205.16 87.9429 202.913C90.8776 198.802 93.4095 194.476 95.8028 190.063C95.8256 190.037 95.8504 190.012 95.8719 189.986C97.0748 188.509 97.832 186.277 98.6979 184.588C95.2711 186.169 91.482 187.199 87.9651 188.602C84.4579 190.001 81.0462 191.559 77.7524 193.389C73.3746 195.821 68.8334 198.567 64.697 201.674C59.9569 204.602 55.9736 208.633 52.4576 212.862C48.2976 217.867 44.4851 222.915 42.1273 228.991C40.9691 231.977 40.0579 235.09 39.5177 238.24C39.494 238.378 39.4639 238.526 39.4311 238.681C38.8784 239.769 38.3843 240.881 37.9696 242.019C37.3112 243.824 35.7561 245.809 38.6727 246.444Z" fill="#A6E9A9" fill-opacity="0.54"/>
<path fill-rule="evenodd" clip-rule="evenodd" d="M2.30442 178.811C5.05094 181.765 9.24634 183.342 13.1417 184.241C28.3563 187.754 43.958 185.422 58.2504 179.879C66.0819 176.842 73.4901 172.383 80.2447 167.518C84.1434 164.71 87.7744 161.537 90.7005 157.751C92.6751 155.196 94.2651 152.425 95.5861 149.494C97.1959 145.921 98.67 142.238 99.8167 138.493C100.268 137.018 102.977 129.265 100.511 128.554C100.571 128.361 100.617 128.175 100.641 128.004C108.017 120.794 113.657 111.65 118.934 102.965C123.526 95.4067 127.839 87.7116 131.357 79.6082C135.988 68.9396 139.952 57.9402 143.205 46.7846C143.904 44.3871 144.559 41.9784 145.203 39.5647C145.751 37.5058 146.3 35.4471 146.847 33.388C147.46 31.0803 148.489 28.4979 148.652 26.1008C148.794 24.0132 146.978 23.9148 146.438 25.9004C145.787 28.2981 145.242 30.7257 144.577 33.1223C143.694 36.3029 142.807 39.4825 141.908 42.6584C135.659 64.7199 126.469 85.7566 114.009 105.082C108.967 112.903 103.582 120.165 97.2345 127.01C91.6539 133.03 85.3172 138.641 78.9809 143.767C72.8224 148.748 66.5078 153.545 59.4927 157.351C53.7999 160.438 47.7588 162.879 41.6307 165.032C33.8474 167.768 26.1012 170.401 17.9837 172.006C13.7642 172.841 9.51395 173.478 5.28062 174.236C4.51894 174.372 3.70934 174.488 2.96334 174.678C0.474816 175.309 0.809016 177.202 2.30442 178.811Z" fill="#6BB56F" fill-opacity="0.58"/>
<path fill-rule="evenodd" clip-rule="evenodd" d="M77.6372 123.465C71.2882 123.465 65.6386 122.639 59.7887 120.112C54.7391 117.931 50.1372 115.044 45.6693 111.9C39.3846 107.479 34.4343 102.334 30.9693 95.5163C28.8991 91.4434 27.3806 85.6801 28.7708 81.2378C30.4085 76.0056 34.9051 71.6418 40.8273 72.5638C44.4894 73.1333 47.8464 75.5612 50.6298 77.8463C53.9595 80.58 56.6248 83.8671 58.8256 87.5179C62.4158 93.4732 64.5254 100.206 67.5751 106.428C69.0223 109.382 70.4207 112.357 72.154 115.163C73.0121 116.553 73.9256 117.93 75.2273 118.963C75.9238 119.516 78.8602 120.472 77.7372 121.713C94.2018 121.496 108.788 108.832 111.948 93.1557C112.243 91.6946 112.473 90.2216 112.716 88.7515C112.869 87.8232 112.807 84.4 113.636 83.807C115.463 82.4988 114.695 86.4728 114.617 87.045C114.414 88.5237 114.198 90.0013 113.971 91.4763C112.737 99.4992 109.17 106.958 103.223 112.679C96.4223 119.222 87.2463 123.465 77.6372 123.465Z" fill="#78B87B" fill-opacity="0.69"/>
<circle r="10" transform="matrix(-1 0 0 1 28.1201 196)" fill="#E03056"/>
<circle r="7" transform="matrix(-1 0 0 1 64.1201 138)" fill="#E03056"/>
<circle r="6" transform="matrix(-1 0 0 1 94.1201 253)" fill="#E03056"/>
</svg>
