<svg width="123" height="259" viewBox="0 0 123 259" fill="none" xmlns="http://www.w3.org/2000/svg">
<path fill-rule="evenodd" clip-rule="evenodd" d="M83.4473 246.444C80.5587 247.072 77.3693 247.024 74.4269 246.972C58.6469 246.758 43.1512 239.318 33.0662 227.429C24.4808 217.308 22.12 204.725 20.4239 192.005C20.2558 190.742 20.1836 189.487 20.0888 188.222C20.0684 187.95 20.0379 187.708 20.0054 187.48C19.3384 186.886 18.9885 186.193 19.3833 185.433C17.9139 182.23 16.6709 178.946 15.6043 175.56C12.4651 165.591 9.27175 155.432 11.2389 144.949C11.6984 150.718 12.6651 156.617 13.8213 162.291C13.8878 162.617 13.9596 162.94 14.0344 163.262C14.042 163.296 14.0491 163.33 14.0568 163.364C14.4661 165.101 14.9981 166.787 15.6451 168.446C15.6518 168.464 15.6584 168.482 15.6654 168.5C15.7509 168.718 15.8416 168.935 15.9311 169.152C16.1164 169.602 16.3068 170.051 16.5086 170.497C16.5769 170.649 16.6425 170.803 16.7054 170.957C17.6473 173.256 18.0451 175.847 18.8889 178.226C19.0907 178.766 19.3018 179.305 19.5228 179.841C19.5358 179.873 19.5491 179.904 19.5624 179.936C20.16 181.378 20.8202 182.803 21.5183 184.213C21.8978 184.497 22.1005 185.201 22.4277 185.841C22.4954 185.968 23.0244 186.809 23.1819 187.294C23.593 188.086 24.0026 188.878 24.4167 189.669C24.4042 189.664 24.3918 189.659 24.3794 189.655C24.7938 190.414 25.2093 191.17 25.6216 191.923C25.7123 192.088 25.8039 192.254 25.8952 192.42C26.0433 192.684 26.1914 192.948 26.3391 193.211C27.7214 195.674 29.1869 198.089 30.709 200.473C31.2522 201.324 32.5499 202.544 32.7987 203.499C32.8079 203.535 32.81 203.568 32.8156 203.602C36.1182 208.221 39.9203 212.482 44.4799 215.858C43.9287 215.265 42.7572 213.252 42.4475 212.853C41.4997 211.632 40.4706 210.496 39.4377 209.346C37.5879 207.286 35.7819 205.16 34.1771 202.913C31.2424 198.802 28.7105 194.476 26.3173 190.063C26.2945 190.037 26.2697 190.012 26.2481 189.986C25.0453 188.509 24.2881 186.277 23.4222 184.588C26.8489 186.169 30.638 187.199 34.155 188.602C37.6621 190.001 41.0738 191.559 44.3676 193.389C48.7454 195.821 53.2867 198.567 57.423 201.674C62.1632 204.602 66.1465 208.633 69.6625 212.862C73.8225 217.867 77.635 222.915 79.9928 228.991C81.151 231.977 82.0621 235.09 82.6024 238.24C82.626 238.378 82.6562 238.526 82.689 238.681C83.2416 239.769 83.7358 240.881 84.1504 242.019C84.8089 243.824 86.364 245.809 83.4473 246.444Z" fill="#A6E9A9" fill-opacity="0.54"/>
<path fill-rule="evenodd" clip-rule="evenodd" d="M119.816 178.81C117.069 181.765 112.874 183.342 108.978 184.241C93.7638 187.753 78.1622 185.421 63.8697 179.879C56.0382 176.842 48.63 172.382 41.8755 167.518C37.9767 164.71 34.3457 161.536 31.4197 157.75C29.445 155.195 27.855 152.425 26.5341 149.493C24.9242 145.921 23.4501 142.237 22.3034 138.492C21.8519 137.017 19.1427 129.264 21.6089 128.553C21.5493 128.36 21.5028 128.174 21.4793 128.003C14.1033 120.793 8.46356 111.649 3.18611 102.964C-1.40581 95.4062 -5.71931 87.7111 -9.23704 79.6077C-13.8683 68.9391 -17.8318 57.9398 -21.0845 46.7841C-21.7834 44.3866 -22.4393 41.978 -23.0826 39.5642C-23.6308 37.5053 -24.1799 35.4466 -24.7272 33.3875C-25.3402 31.0798 -26.3684 28.4974 -26.5316 26.1003C-26.6739 24.0127 -24.8578 23.9143 -24.3182 25.8999C-23.6664 28.2976 -23.122 30.7252 -22.457 33.1218C-21.5741 36.3024 -20.6869 39.482 -19.7878 42.6579C-13.5393 64.7194 -4.34882 85.7561 8.1108 105.082C13.153 112.902 18.5384 120.164 24.8856 127.01C30.4662 133.029 36.8029 138.641 43.1392 143.767C49.2977 148.748 55.6123 153.545 62.6275 157.35C68.3202 160.438 74.3613 162.878 80.4894 165.032C88.2728 167.767 96.0189 170.401 104.136 172.006C108.356 172.84 112.606 173.478 116.839 174.236C117.601 174.372 118.411 174.488 119.157 174.677C121.645 175.309 121.311 177.202 119.816 178.81Z" fill="#6BB56F" fill-opacity="0.58"/>
<path fill-rule="evenodd" clip-rule="evenodd" d="M44.4828 123.465C50.8318 123.465 56.4815 122.639 62.3314 120.112C67.381 117.931 71.9829 115.043 76.4508 111.9C82.7355 107.479 87.6858 102.333 91.1508 95.5158C93.2209 91.4429 94.7395 85.6796 93.3493 81.2373C91.7116 76.0051 87.215 71.6413 81.2928 72.5633C77.6307 73.1328 74.2736 75.5607 71.4903 77.8458C68.1606 80.5796 65.4952 83.8667 63.2944 87.5175C59.7043 93.4727 57.5947 100.205 54.545 106.428C53.0978 109.381 51.6994 112.356 49.9661 115.163C49.108 116.553 48.1945 117.93 46.8928 118.963C46.1963 119.515 43.2599 120.471 44.3828 121.712C27.9183 121.496 13.3325 108.831 10.1719 93.1553C9.87748 91.6941 9.6474 90.2211 9.40435 88.7511C9.25096 87.8227 9.3129 84.3995 8.48432 83.8065C6.65697 82.4983 7.42508 86.4723 7.50354 87.0445C7.70619 88.5232 7.9224 90.0009 8.14924 91.4759C9.3834 99.4988 12.9496 106.957 18.8969 112.679C25.6978 119.221 34.8738 123.465 44.4828 123.465Z" fill="#78B87B" fill-opacity="0.69"/>
<circle cx="94" cy="196" r="10" fill="#E03056"/>
<circle cx="58" cy="138" r="7" fill="#E03056"/>
<circle cx="28" cy="253" r="6" fill="#E03056"/>
</svg>
