<svg width="140" height="254" viewBox="0 0 140 254" fill="none" xmlns="http://www.w3.org/2000/svg">
<g filter="url(#filter0_f)">
<path fill-rule="evenodd" clip-rule="evenodd" d="M16.9731 29.5023C21.3326 33.5539 23.0384 39.4045 22.6612 45.1066C22.2195 51.7815 18.5291 57.0045 15.5735 62.7023C14.1025 65.5378 13.0965 68.7747 13.5555 72.0565C13.9732 75.0413 15.888 77.3406 17.3052 79.9263C20.1374 85.0938 20.3998 91.4451 17.9899 96.6578C15.0507 103.017 8.7912 106.367 4.48799 111.58C0.535924 116.367 2.42318 123.4 4.03691 128.955C5.628 134.433 6.99118 139.444 4.18599 144.628C1.21061 150.125 -3.00451 155.431 -8.66105 158.337C-18.0793 163.176 -28.792 159.205 -36.7223 152.763C-43.9192 146.916 -51.7812 138.287 -52.3429 128.685C-52.6788 122.94 -49.9923 117.837 -46.0853 113.908C-43.6559 111.464 -40.8287 109.434 -37.9108 107.602C-35.8427 106.304 -33.6192 105.164 -31.782 103.544C-26.8946 99.234 -30.4794 94.2021 -33.0406 89.3913C-36.2949 83.2777 -36.7421 77.0275 -35.0228 70.4967C-33.4225 64.4156 -30.0979 59.0093 -24.6395 55.7492C-21.8522 54.0847 -18.7201 53.1352 -15.4457 52.8949C-14.0044 52.7892 -12.3876 53.0864 -10.98 52.8762C-9.66582 52.6796 -8.88184 51.571 -8.26292 50.4854C-5.40496 45.4702 -5.25155 39.2605 -2.51101 34.15C-0.0375089 29.5368 4.82744 25.4558 10.4746 26.245C12.9146 26.5858 15.1546 27.8335 16.9731 29.5023Z" fill="#DDEFDE"/>
<path fill-rule="evenodd" clip-rule="evenodd" d="M12.9462 45.7479C13.0366 54.9167 8.14597 62.6977 2.5571 69.4505C-0.577094 73.237 -4.31559 76.8287 -6.48956 81.3063C-8.35055 85.1384 -8.33164 89.4074 -8.13054 93.6124C-7.72589 102.077 -6.8769 111.089 -11.4162 118.576C-14.0802 122.97 -18.1328 126.3 -20.4683 130.924C-22.5909 135.127 -23.9315 139.948 -24.4826 144.651C-24.9266 148.438 -24.3801 152.161 -24.5284 155.938C-24.574 157.09 -24.6629 158.767 -25.7312 159.461C-26.9822 160.274 -28.6575 159.343 -29.4699 158.277C-31.3646 155.793 -31.2809 151.896 -31.3145 148.975C-31.3636 144.703 -30.9295 140.561 -29.8765 136.442C-28.7065 131.867 -27.0418 127.406 -24.443 123.469C-21.7471 119.385 -18.0286 115.973 -16.2227 111.327C-13.1842 103.509 -15.5541 95.0262 -15.3956 86.8792C-15.1976 76.7281 -8.04424 70.5131 -1.19704 64.1634C2.56569 60.6738 6.77721 56.6981 8.0455 51.4979C8.52961 49.5128 8.03394 46.7819 9.10017 45.0051C10.0772 43.3772 12.9243 43.4607 12.9462 45.7479Z" fill="#A2E9A5" fill-opacity="0.53"/>
</g>
<g filter="url(#filter1_f)">
<path fill-rule="evenodd" clip-rule="evenodd" d="M74.6687 54.7405C77.0008 56.4274 79.1496 58.594 80.3215 61.2355C82.8132 66.8526 79.4078 72.8756 75.6271 76.8299C71.5577 81.0859 66.2716 84.9525 66.2935 91.4493C66.3034 94.4359 67.0264 97.3864 66.982 100.377C66.9344 103.573 66.3161 106.706 65.2419 109.689C63.2682 115.167 59.8009 120.545 54.4459 123.239C49.7311 125.611 43.3026 125.733 40.2051 130.534C36.9738 135.543 38.2172 142.823 37.9284 148.522C37.6017 154.972 36.0974 162.205 32.1412 167.384C28.35 172.348 22.1039 175.127 15.888 175.766C3.46809 177.043 -8.72573 171.995 -17.8415 163.484C-21.7117 159.87 -25.9388 155.613 -27.3325 150.4C-27.7631 148.789 -27.6315 147.553 -27.3048 145.968C-27.0118 144.547 -27.1909 143.279 -27.4364 141.853C-27.9763 138.719 -27.5451 135.573 -26.4188 132.649C-22.0434 121.294 -9.8801 113.519 1.58905 110.483C4.30649 109.764 6.76362 108.925 8.15797 106.354C9.61369 103.67 10.0595 100.443 10.5782 97.4547C11.0911 94.5017 11.3557 91.4758 12.2689 88.6164C13.2259 85.6211 14.9783 83.182 17.2715 81.0619C21.5792 77.0794 27.0882 74.8299 32.8877 73.7973C38.4737 72.8026 44.3623 72.3559 48.4109 68.0128C52.7021 63.4099 53.4571 56.4694 59.1144 52.9927C61.457 51.5531 64.3901 50.5682 67.2162 51.0264C69.9266 51.4657 72.4753 53.154 74.6687 54.7405Z" fill="#C3E4C5"/>
<path fill-rule="evenodd" clip-rule="evenodd" d="M66.4527 60.8389C67.0673 60.2563 68.1406 60.5618 68.5637 61.2561C69.1206 62.1701 68.4453 62.8676 67.8366 63.4826C65.966 65.3729 64.4869 67.5249 63.1952 69.8454C60.5094 74.6699 58.9289 79.9456 56.8347 85.0313C54.7423 90.1128 51.7873 94.6207 47.2521 97.8405C42.9762 100.876 38.3453 103.401 34.0467 106.424C30.258 109.089 26.2559 111.893 24.2511 116.2C22.321 120.346 22.1897 125.061 21.1555 129.467C19.0146 138.588 14.3763 146.604 8.25269 153.598C5.40891 156.845 2.36045 159.956 -1.24742 162.38C-3.32467 163.776 -6.1288 165.666 -8.79071 165.489C-10.0182 165.407 -11.397 164.492 -11.2035 163.103C-11.0226 161.8 -9.40222 161.029 -8.44493 160.351C-4.30068 157.415 -0.689045 153.835 2.56561 149.969C5.71831 146.223 8.62188 142.257 10.6832 137.798C12.5959 133.659 13.6697 129.343 14.3955 124.842C15.1353 120.255 15.8059 115.593 18.1412 111.514C20.5127 107.371 24.378 104.504 28.3447 101.965C32.5402 99.2788 36.924 96.9564 41.3533 94.666C45.6696 92.4343 49.0416 89.661 51.6358 85.5379C56.7611 77.392 59.2915 67.6269 66.4527 60.8389Z" fill="#9BD39E"/>
</g>
<path fill-rule="evenodd" clip-rule="evenodd" d="M121.665 115.09C123.529 118.291 124.927 121.958 124.926 125.671C124.924 133.566 117.765 138.848 111.245 141.506C104.228 144.367 95.9811 146.134 92.6106 153.767C91.0609 157.276 90.3699 161.116 88.7541 164.601C87.0272 168.325 84.6613 171.677 81.8368 174.613C76.6483 180.006 69.7538 184.498 62.0386 184.853C55.2458 185.166 47.6114 181.941 41.4536 185.951C35.0297 190.134 32.688 199.326 29.3685 205.86C25.6121 213.255 20.0591 220.953 12.6922 224.956C5.63228 228.793 -3.17636 228.781 -10.8308 226.274C-26.1254 221.265 -37.8471 208.955 -44.1335 194.195C-46.8022 187.928 -49.5546 180.718 -48.4709 173.873C-48.1359 171.758 -47.3346 170.377 -46.1214 168.689C-45.0334 167.175 -44.5815 165.594 -44.125 163.792C-43.1226 159.833 -40.97 156.368 -38.115 153.528C-27.0256 142.498 -8.6365 139.75 6.45776 142.197C10.034 142.777 13.3662 143.081 16.3527 140.795C19.4703 138.408 21.6822 134.856 23.8553 131.623C26.003 128.427 27.8965 125.016 30.4669 122.14C33.1597 119.128 36.4987 117.184 40.3077 115.898C47.4629 113.483 55.1269 113.73 62.4967 115.557C69.5954 117.317 76.7638 119.878 83.8023 116.904C91.2624 113.752 95.78 106.006 104.26 104.891C107.772 104.429 111.741 104.811 114.83 106.829C117.792 108.764 119.911 112.08 121.665 115.09Z" fill="#ADDAAF"/>
<path fill-rule="evenodd" clip-rule="evenodd" d="M108.045 119.109C109.071 118.743 110.168 119.662 110.3 120.7C110.473 122.065 109.316 122.534 108.28 122.94C105.096 124.19 102.233 125.951 99.5014 128.009C93.8223 132.285 89.2019 137.67 84.0793 142.562C78.9608 147.451 73.1323 151.215 66.1272 152.64C59.5225 153.984 52.7701 154.541 46.1452 155.858C40.3062 157.019 34.1441 158.233 29.5347 162.256C25.0975 166.128 22.4701 171.608 18.9463 176.253C11.6518 185.87 2.01 192.884 -8.83679 197.922C-13.8738 200.261 -19.0793 202.333 -24.5799 203.305C-27.7471 203.865 -32.0253 204.627 -35.0524 203.031C-36.4484 202.296 -37.5844 200.5 -36.6292 198.967C-35.7337 197.528 -33.4296 197.465 -31.9518 197.166C-25.554 195.872 -19.4427 193.542 -13.5992 190.688C-7.93887 187.924 -2.45496 184.771 2.30072 180.598C6.71397 176.725 10.2369 172.206 13.4489 167.288C16.7223 162.277 19.9542 157.14 24.8314 153.557C29.7848 149.918 35.8192 148.56 41.801 147.639C48.128 146.665 54.4848 146.217 60.8782 145.831C67.1083 145.454 72.5157 143.948 77.7195 140.449C88.0007 133.535 96.0895 123.364 108.045 119.109Z" fill="#81C784"/>
<defs>
<filter id="filter0_f" x="-99.325" y="0.356201" width="187.845" height="190.08" filterUnits="userSpaceOnUse" color-interpolation-filters="sRGB">
<feFlood flood-opacity="0" result="BackgroundImageFix"/>
<feBlend mode="normal" in="SourceGraphic" in2="BackgroundImageFix" result="shape"/>
<feGaussianBlur stdDeviation="10" result="effect1_foregroundBlur"/>
</filter>
<filter id="filter1_f" x="-50.1504" y="28.1445" width="168.352" height="172.129" filterUnits="userSpaceOnUse" color-interpolation-filters="sRGB">
<feFlood flood-opacity="0" result="BackgroundImageFix"/>
<feBlend mode="normal" in="SourceGraphic" in2="BackgroundImageFix" result="shape"/>
<feGaussianBlur stdDeviation="5" result="effect1_foregroundBlur"/>
</filter>
</defs>
</svg>
