<svg width="236" height="427" viewBox="0 0 236 427" fill="none" xmlns="http://www.w3.org/2000/svg">
<g opacity="0.16" filter="url(#filter0_f)">
<path fill-rule="evenodd" clip-rule="evenodd" d="M289.099 81.0221C283.984 77.1116 276.047 79.6038 270.898 81.9121C268.913 82.8023 263.842 85.6491 260.082 88.8533C260.578 86.6324 261.022 84.392 261.409 82.1334C263 72.8464 264.096 63.3835 264.623 53.9754C264.76 51.5217 264.581 48.7804 264.4 46.003L264.4 46.0025C264.339 45.0614 264.277 44.1161 264.228 43.1765C264.434 42.9545 264.572 42.6481 264.631 42.233C264.653 42.4051 264.665 42.5432 264.674 42.6488C264.69 42.8199 264.697 42.9056 264.725 42.9124C264.752 42.9193 264.8 42.8468 264.895 42.7013C264.932 42.6448 264.976 42.5773 265.029 42.4992C268.834 36.8052 272.03 30.3893 272.47 23.3363C272.841 17.3546 267.928 6.03671 260.964 13.8716C257.849 17.3707 258.658 41.9449 263.337 43.451C262.087 51.5939 260.516 59.7232 258.547 67.7492C258.252 67.697 257.951 67.6924 257.653 67.733C257.681 65.7376 257.684 63.5602 257.603 62.8116C256.901 56.3619 251.516 43.2676 242.943 45.8098C236.355 47.7637 240.393 55.8065 242.635 59.3267C246.244 64.9942 250.326 67.4483 255.496 70.3956C255.6 71.6136 256.385 72.3216 257.312 72.5518C253.85 85.5134 249.302 98.155 243.35 110.096L243.191 109.337C242.436 105.712 241.555 101.487 240.996 100.599C238.079 95.9538 231.621 90.28 225.666 93.0286C213.159 98.8091 226.735 115.423 237.383 117.23C237.826 117.842 238.294 118.335 238.792 118.617C236.723 122.221 234.512 125.751 232.146 129.189C228.598 134.361 224.784 139.517 220.786 144.642C220.663 140.633 219.081 131.698 218.632 130.738C215.902 124.907 208.032 118.908 201.648 123.05C194.467 127.72 200.978 136.544 205.074 140.538C206.752 142.175 215.055 148.176 217.984 148.203C208.325 160.289 197.663 172.168 186.824 183.618C187.722 178.492 188.895 164.376 188.764 162.81C188.091 154.723 182.78 141.789 172.316 144.94C162.164 147.993 166.655 161.43 170.13 167.835C172.235 171.712 175.145 175.651 178.655 178.354C179.288 178.841 180.114 179.239 180.939 179.636L180.939 179.636C181.933 180.115 182.926 180.593 183.574 181.225C184.153 181.789 184.33 182.436 184.506 183.078C184.692 183.755 184.876 184.427 185.529 184.988C179.67 191.149 173.771 197.181 167.957 203.046C165.213 205.815 162.42 208.529 159.599 211.21C158.056 210.569 155.855 211.412 155.97 213.599C155.986 213.916 156.06 214.19 156.159 214.442C154.021 216.432 151.869 218.408 149.701 220.363C149.751 219.793 149.736 218.99 149.637 217.881C151.198 220.103 151.133 216.867 151.083 214.399L151.083 214.399C151.065 213.527 151.049 212.752 151.108 212.347C151.338 210.761 151.634 209.191 151.931 207.624C152.564 204.275 153.195 200.937 153.163 197.481C153.095 190.145 148.453 177.848 138.683 182.216C129.7 186.226 132.968 197.098 136.357 203.914C138.503 208.228 141.438 212.079 144.506 215.766C145.053 216.425 145.66 217.316 146.261 218.198L146.261 218.198C147.154 219.508 148.033 220.799 148.683 221.279C140.342 228.762 131.806 236.024 123.268 243.287L123.265 243.289C119.442 246.542 115.619 249.795 111.813 253.067C111.647 252.349 111.51 251.636 111.392 250.97C111.63 251.239 111.954 251.365 112.37 251.34C112.481 250.79 112.641 250.058 112.834 249.179L112.834 249.179C115.184 238.45 122.345 205.772 102.957 212.106C88.7513 216.759 98.7782 245.213 109.373 255.167C102.943 260.724 96.5751 266.352 90.3556 272.149C85.8552 276.343 81.4878 280.681 77.2866 285.163C79.4605 279.359 81.509 271.845 80.1645 265.866C78.207 257.164 69.0351 248.948 60.0802 253.899C48.9168 260.099 57.505 268.565 65.5587 276.505C69.671 280.559 73.6439 284.475 74.7767 287.883C61.4217 302.586 50.0199 318.921 42.4013 337.528C34.1155 357.763 26.4238 384.953 30.6777 407.592C29.8922 397.637 33.2515 385.138 35.6106 376.361C35.9319 375.165 36.2346 374.039 36.5057 372.998C40.0504 359.383 45.0863 346.137 51.7224 333.739C62.3522 313.882 76.393 297.026 92.6032 281.722C96.2944 283.009 100.304 285.393 103.624 287.368C105.66 288.579 107.438 289.636 108.724 290.191C114.926 292.871 126.835 296.71 130.786 288.272C134.671 279.974 124.754 275.334 118.609 273.474C112.669 271.679 107.315 271.896 101.774 273.367C110.354 265.751 119.144 258.376 127.931 251.003L127.933 251.002C129.549 249.646 131.165 248.29 132.78 246.932C135.014 248.766 137.481 251.416 140.101 254.231L140.101 254.231C148.415 263.164 158.265 273.746 167.062 265.1C180.338 252.052 154.947 238.79 144.13 239.826C142.802 239.952 141.517 240.232 140.264 240.614C151.296 231.238 162.157 221.669 172.428 211.427C174.272 211.763 177.206 214.479 180.731 217.741C188.654 225.073 199.56 235.166 207.775 227.219C213.705 221.482 211.674 212.547 205.942 207.438C200.187 202.307 191.844 202.316 184.753 204.044C181.687 204.787 178.859 206.206 176.223 207.935C176.166 207.938 176.111 207.942 176.056 207.945L176.054 207.945C176.001 207.948 175.948 207.951 175.895 207.953C186.003 197.768 196.172 187.355 205.967 176.586C206.137 176.641 206.313 176.697 206.488 176.755C207.081 177.481 208.072 177.747 208.981 177.586C209.481 177.758 209.992 177.935 210.514 178.115C218.272 180.796 228.244 184.243 235.976 182.756C241.667 181.662 246.831 177.03 242.014 171.327C238.097 166.688 227.472 167.354 222.29 168.453C219.761 168.99 217.008 170.545 214.246 172.106C213.085 172.761 211.923 173.418 210.775 174C210.477 173.398 209.957 173.011 209.365 172.826C219.037 162.004 228.266 150.808 236.636 139.125C239.17 139.518 241.98 140.633 244.878 141.782C251.852 144.548 259.336 147.516 264.708 141.123C272.638 131.684 257.724 126.175 250.634 127.071C248.24 127.374 245.88 128.053 243.601 128.95C249.692 119.332 254.344 109.051 257.612 98.2539C257.644 98.2699 257.673 98.2863 257.702 98.3028C257.748 98.3286 257.794 98.3546 257.851 98.3793C257.822 98.3638 257.796 98.3479 257.77 98.3318C257.719 98.2998 257.671 98.2671 257.617 98.236C257.943 97.1557 258.256 96.0706 258.554 94.9816C259.108 94.6729 259.626 94.4458 259.874 94.3522C256.652 96.5761 270.242 97.6642 272.787 97.8679C278.413 98.3176 285.951 98.4857 290.078 93.8704C293.545 89.9936 293.343 84.2661 289.099 81.0221ZM30.0738 407.623C30.3127 410.904 30.9047 413.908 32.0103 416.385C31.1812 413.565 30.5452 410.634 30.0738 407.623Z" fill="#81C784"/>
</g>
<defs>
<filter id="filter0_f" x="0" y="0" width="318.971" height="426.462" filterUnits="userSpaceOnUse" color-interpolation-filters="sRGB">
<feFlood flood-opacity="0" result="BackgroundImageFix"/>
<feBlend mode="normal" in="SourceGraphic" in2="BackgroundImageFix" result="shape"/>
<feGaussianBlur stdDeviation="5" result="effect1_foregroundBlur"/>
</filter>
</defs>
</svg>
