<svg width="245" height="427" viewBox="0 0 245 427" fill="none" xmlns="http://www.w3.org/2000/svg">
<g opacity="0.16" filter="url(#filter0_f)">
<path fill-rule="evenodd" clip-rule="evenodd" d="M215.099 81.0219C209.984 77.1115 202.047 79.6037 196.898 81.9119C194.913 82.8022 189.842 85.649 186.082 88.8531C186.578 86.6322 187.022 84.3919 187.409 82.1332C189 72.8463 190.096 63.3834 190.623 53.9753C190.76 51.5216 190.581 48.7802 190.4 46.0029L190.4 46.0024C190.339 45.0612 190.277 44.116 190.228 43.1764C190.434 42.9544 190.572 42.648 190.631 42.2328C190.653 42.405 190.665 42.5431 190.674 42.6486C190.69 42.8197 190.697 42.9055 190.725 42.9123C190.752 42.9192 190.8 42.8466 190.895 42.7012C190.932 42.6447 190.976 42.5772 191.029 42.4991C194.834 36.8051 198.03 30.3892 198.47 23.3361C198.841 17.3544 193.928 6.03659 186.964 13.8715C183.849 17.3706 184.658 41.9448 189.337 43.4509C188.087 51.5938 186.516 59.7231 184.547 67.749C184.252 67.6969 183.951 67.6923 183.653 67.7329C183.681 65.7375 183.684 63.5601 183.603 62.8115C182.901 56.3618 177.516 43.2674 168.943 45.8097C162.355 47.7636 166.393 55.8063 168.635 59.3266C172.244 64.9941 176.326 67.4482 181.496 70.3955C181.6 71.6134 182.385 72.3215 183.312 72.5517C179.85 85.5133 175.302 98.1549 169.35 110.096L169.191 109.336C168.436 105.712 167.555 101.486 166.996 100.599C164.079 95.9536 157.621 90.2798 151.666 93.0285C139.159 98.809 152.735 115.423 163.383 117.23C163.826 117.842 164.294 118.335 164.792 118.617C162.723 122.221 160.512 125.751 158.146 129.189C154.598 134.361 150.784 139.517 146.786 144.642C146.663 140.633 145.081 131.698 144.632 130.738C141.902 124.907 134.032 118.908 127.648 123.05C120.467 127.72 126.978 136.544 131.074 140.538C132.752 142.175 141.055 148.175 143.984 148.203C134.325 160.289 123.663 172.168 112.824 183.618C113.722 178.492 114.895 164.376 114.764 162.809C114.091 154.723 108.78 141.789 98.3155 144.94C88.1636 147.993 92.6546 161.43 96.1297 167.835C98.2346 171.712 101.145 175.651 104.655 178.354C105.288 178.841 106.114 179.239 106.939 179.636L106.939 179.636C107.933 180.115 108.926 180.592 109.574 181.225C110.153 181.788 110.33 182.436 110.506 183.077C110.692 183.755 110.876 184.427 111.529 184.988C105.67 191.149 99.7714 197.181 93.9567 203.046C91.2132 205.815 88.4199 208.529 85.599 211.21C84.0557 210.569 81.855 211.412 81.9696 213.599C81.9863 213.916 82.0596 214.19 82.1586 214.442C80.0208 216.432 77.8695 218.408 75.7013 220.362C75.7507 219.793 75.7363 218.99 75.6367 217.881C77.1979 220.103 77.1325 216.867 77.0827 214.399L77.0827 214.399C77.0651 213.527 77.0495 212.751 77.1082 212.347C77.3377 210.761 77.6344 209.191 77.9308 207.623C78.5638 204.275 79.1948 200.936 79.1632 197.48C79.0951 190.145 74.4526 177.848 64.6832 182.216C55.7001 186.225 58.9685 197.098 62.3572 203.914C64.5025 208.228 67.438 212.079 70.5059 215.766C71.0531 216.425 71.6602 217.316 72.2613 218.198L72.2614 218.198C73.1539 219.508 74.0331 220.798 74.6832 221.279C66.3425 228.761 57.8055 236.024 49.268 243.287L49.2653 243.289C45.4421 246.542 41.6188 249.794 37.8129 253.067C37.6471 252.349 37.5101 251.636 37.3922 250.97C37.6304 251.239 37.9542 251.365 38.3698 251.34C38.4806 250.789 38.6409 250.058 38.8335 249.179L38.8335 249.179C41.1845 238.45 48.3451 205.772 28.9567 212.106C14.7513 216.759 24.7782 245.213 35.3728 255.166C28.9435 260.724 22.5751 266.352 16.3556 272.148C11.8552 276.343 7.4878 280.68 3.28657 285.163C5.46055 279.359 7.50896 271.845 6.16447 265.866C4.20697 257.164 -4.96492 248.947 -13.9198 253.899C-25.0832 260.099 -16.495 268.565 -8.4413 276.505C-4.32902 280.559 -0.356141 284.475 0.776669 287.883C-12.5783 302.586 -23.9801 318.921 -31.5987 337.528C-39.8845 357.763 -47.5762 384.953 -43.3223 407.592C-44.1078 397.637 -40.7485 385.138 -38.3894 376.361C-38.0681 375.165 -37.7654 374.039 -37.4943 372.997C-33.9496 359.383 -28.9137 346.137 -22.2776 333.739C-11.6478 313.882 2.39299 297.026 18.6032 281.721C22.2944 283.009 26.3035 285.393 29.6239 287.368C31.6604 288.579 33.4378 289.636 34.7238 290.191C40.9263 292.871 52.8349 296.71 56.7863 288.272C60.6714 279.974 50.7545 275.334 44.6088 273.474C38.6693 271.679 33.3149 271.896 27.7745 273.367C36.3544 265.751 45.1438 258.376 53.9315 251.003L53.933 251.002C55.5492 249.645 57.1654 248.289 58.7802 246.932C61.0139 248.766 63.4811 251.416 66.1008 254.231L66.1009 254.231C74.4152 263.164 84.2653 273.746 93.0623 265.1C106.338 252.052 80.9473 238.79 70.1298 239.826C68.8019 239.952 67.5171 240.232 66.2644 240.614C77.2958 231.237 88.1567 221.668 98.4281 211.426C100.272 211.763 103.206 214.479 106.731 217.741C114.654 225.073 125.56 235.166 133.775 227.219C139.705 221.482 137.674 212.547 131.942 207.438C126.187 202.307 117.844 202.316 110.753 204.044C107.687 204.787 104.859 206.206 102.223 207.935C102.166 207.938 102.111 207.941 102.056 207.945L102.054 207.945C102.001 207.948 101.948 207.951 101.895 207.953C112.003 197.768 122.172 187.355 131.967 176.586C132.137 176.641 132.313 176.697 132.488 176.755C133.081 177.481 134.072 177.747 134.981 177.586C135.481 177.758 135.992 177.935 136.514 178.115C144.272 180.796 154.244 184.243 161.976 182.756C167.667 181.662 172.831 177.03 168.014 171.326C164.097 166.688 153.472 167.354 148.29 168.453C145.761 168.99 143.008 170.545 140.246 172.105C139.085 172.761 137.923 173.418 136.775 174C136.477 173.398 135.957 173.011 135.365 172.825C145.037 162.004 154.266 150.808 162.636 139.125C165.17 139.518 167.98 140.633 170.878 141.782C177.852 144.548 185.336 147.516 190.708 141.123C198.638 131.684 183.724 126.174 176.634 127.071C174.24 127.373 171.88 128.053 169.601 128.95C175.692 119.332 180.344 109.051 183.612 98.2537C183.644 98.2698 183.673 98.2862 183.702 98.3027C183.748 98.3285 183.794 98.3545 183.851 98.3792C183.822 98.3637 183.796 98.3478 183.77 98.3317C183.719 98.2996 183.671 98.267 183.617 98.2359C183.943 97.1556 184.256 96.0705 184.554 94.9815C185.108 94.6728 185.626 94.4457 185.874 94.3521C182.652 96.5759 196.242 97.6641 198.787 97.8678C204.413 98.3175 211.951 98.4856 216.078 93.8703C219.545 89.9935 219.343 84.2659 215.099 81.0219ZM-43.9262 407.623C-43.6873 410.904 -43.0953 413.908 -41.9897 416.385C-42.8188 413.565 -43.4548 410.634 -43.9262 407.623Z" fill="#81C784"/>
</g>
<defs>
<filter id="filter0_f" x="-74" y="0" width="318.971" height="426.462" filterUnits="userSpaceOnUse" color-interpolation-filters="sRGB">
<feFlood flood-opacity="0" result="BackgroundImageFix"/>
<feBlend mode="normal" in="SourceGraphic" in2="BackgroundImageFix" result="shape"/>
<feGaussianBlur stdDeviation="5" result="effect1_foregroundBlur"/>
</filter>
</defs>
</svg>
