<svg width="165" height="363" viewBox="0 0 165 363" fill="none" xmlns="http://www.w3.org/2000/svg">
<path opacity="0.5" fill-rule="evenodd" clip-rule="evenodd" d="M3.70085 193.964C5.04543 189.392 8.64889 185.517 12.2926 182.516C26.5241 170.797 44.2492 165.061 62.2841 163.413C72.1663 162.509 82.3517 163.334 92.0596 164.932C97.6633 165.854 103.177 167.304 108.268 169.773C111.704 171.44 114.847 173.537 117.79 175.945C121.377 178.881 124.88 182.005 128.068 185.366C129.324 186.69 136.279 193.473 134.047 195.523C134.212 195.695 134.359 195.868 134.474 196.037C146.077 199.791 156.865 206.505 167.027 212.924C175.87 218.51 184.491 224.388 192.486 231.116C203.012 239.975 213.007 249.534 222.333 259.633C224.337 261.804 226.301 264.009 228.255 266.226C229.921 268.117 231.588 270.008 233.253 271.9C235.119 274.02 237.569 276.213 239.006 278.665C240.258 280.8 238.39 281.859 236.772 280.041C234.817 277.846 232.961 275.562 230.993 273.375C228.381 270.472 225.765 267.573 223.139 264.683C204.891 244.615 184.074 227.178 160.703 213.272C151.246 207.644 141.72 202.789 131.397 198.88C122.321 195.442 112.661 192.834 103.257 190.74C94.1176 188.705 84.9103 186.948 75.4857 186.609C67.8378 186.333 60.1633 186.927 52.5481 187.87C42.876 189.067 33.2968 190.352 23.8678 192.922C18.9667 194.258 14.1368 195.818 9.26137 197.242C8.38417 197.498 7.4671 197.801 6.57853 197.993C3.61447 198.633 2.96872 196.453 3.70085 193.964Z" fill="#81C784"/>
<g opacity="0.2" filter="url(#filter0_f)">
<path fill-rule="evenodd" clip-rule="evenodd" d="M150.272 187.678C146.348 175.662 142.347 163.734 137.02 152.238C133.88 145.463 130.272 138.934 126.857 132.297C127.212 133.144 127.546 134 127.86 134.863C126.739 132.903 124.858 131.185 123.595 129.26C122.186 127.113 120.947 124.84 119.75 122.574C117.414 118.151 115.156 113.704 112.65 109.37C109.858 104.541 106.812 99.85 103.897 95.0916C101.424 91.0532 99.0127 86.7774 96.0851 83.033C94.4895 80.9921 92.9813 78.7602 91.3985 76.6714C90.8687 75.9725 85.9366 67.9736 85.9612 67.9688C86.5012 67.8646 89.2671 71.3094 89.7114 71.8082C91.0096 73.2648 92.1734 74.8167 93.3467 76.3702C93.3168 74.2624 93.5072 72.1564 94.0522 70.1082C94.2202 69.4759 95.3606 64.8324 96.0001 64.7089C96.3195 64.6472 94.9226 73.27 94.686 74.049C94.4939 74.6817 94.0668 75.5193 93.9871 76.1685C93.8582 77.2169 93.975 76.9385 94.4106 77.7777C95.2088 79.3159 96.5867 80.7071 97.5622 82.1438C98.093 82.9088 99.563 85.6317 100.699 86.759C103.841 90.7766 106.511 95.8993 109.175 100.371C109.093 97.9374 109.299 95.5354 109.764 93.1403C109.874 92.5716 110.616 87.3486 111.102 87.2548C111.649 87.1492 111.069 95.3968 110.915 96.1293C110.63 97.4898 110.035 98.8682 109.842 100.234C109.632 101.733 110.723 102.835 111.54 104.169C114.547 109.076 117.319 114.083 119.955 119.19C128.409 113.363 127.947 101.103 126.855 92.2082C126.067 85.7973 123.844 79.5433 121.123 73.7022C117.492 65.9066 112.518 58.6641 107.39 51.7567C101.415 43.7082 94.0238 36.9164 85.6157 31.3354C81.2181 28.4163 76.4008 26.0807 71.5557 23.9561C69.1889 22.918 66.8123 22.136 64.2195 21.8049C63.0506 21.6561 61.872 21.6125 60.6928 21.6325C59.7968 21.6477 57.8736 21.1856 57.1947 21.5292C51.641 24.2851 47.752 27.8364 45.3019 33.5154C42.9822 38.8912 42.0697 44.9587 42.0285 50.7461C41.983 57.1906 42.8909 63.5041 45.1638 69.5422C46.898 74.1491 49.2043 78.5485 51.5038 82.9017C59.6823 98.3848 71.8556 114.327 89.3315 120.312C94.9883 122.25 100.969 122.866 106.945 122.651C108.353 122.601 109.758 122.54 111.156 122.351C112.099 122.223 115.045 121.012 115.797 121.284C116.829 121.657 117.964 124.681 118.586 125.737C123.314 133.763 127.736 141.949 131.919 150.262C136.37 159.106 140.295 168.147 143.889 177.36C145.417 181.279 146.926 185.195 148.332 189.16C148.659 190.083 149.087 193.1 150.177 193.761C150.866 194.178 151.653 193.801 151.876 193.083C152.265 191.836 150.674 188.908 150.272 187.678Z" fill="#81C784"/>
</g>
<defs>
<filter id="filter0_f" x="26.0001" y="0" width="136.194" height="219.268" filterUnits="userSpaceOnUse" color-interpolation-filters="sRGB">
<feFlood flood-opacity="0" result="BackgroundImageFix"/>
<feBlend mode="normal" in="SourceGraphic" in2="BackgroundImageFix" result="shape"/>
<feGaussianBlur stdDeviation="5" result="effect1_foregroundBlur"/>
</filter>
</defs>
</svg>
