<svg width="210" height="350" viewBox="0 0 210 350" fill="none" xmlns="http://www.w3.org/2000/svg">
<g opacity="0.1" filter="url(#filter0_f)">
<path fill-rule="evenodd" clip-rule="evenodd" d="M305.577 250.448C293.608 236.206 281.583 222.127 267.982 209.372C259.967 201.856 251.447 194.935 243.132 187.758C244.082 188.718 245.01 189.703 245.913 190.708C243.305 188.651 239.789 187.346 237.005 185.416C233.9 183.263 230.958 180.843 228.076 178.41C222.452 173.662 216.922 168.838 211.115 164.304C204.645 159.252 197.903 154.531 191.305 149.644C185.706 145.497 180.06 140.991 174.001 137.497C170.699 135.592 167.411 133.379 164.1 131.401C162.992 130.74 151.855 122.543 151.886 122.523C152.567 122.082 158.24 125.257 159.121 125.692C161.695 126.963 164.139 128.439 166.596 129.911C165.396 127.048 164.498 124.066 164.116 120.966C163.998 120.01 163.002 113.035 163.807 112.512C164.21 112.251 167.044 124.804 167.149 125.999C167.235 126.969 167.112 128.35 167.36 129.281C167.76 130.785 167.767 130.34 168.823 131.245C170.76 132.904 173.407 134.042 175.53 135.464C176.676 136.216 180.182 139.121 182.354 140.032C188.855 143.781 195.32 149.301 201.419 153.935C199.968 150.656 198.928 147.26 198.246 143.731C198.084 142.893 196.225 135.347 196.837 134.95C197.526 134.503 201.27 146.091 201.463 147.176C201.822 149.193 201.766 151.406 202.255 153.378C202.791 155.542 204.888 156.443 206.738 157.813C213.544 162.851 220.085 168.156 226.495 173.675C234.839 161.033 227.465 144.542 221.081 132.995C216.479 124.674 210.002 117.361 203.073 110.888C193.826 102.249 183.047 95.1094 172.243 88.5125C159.654 80.8258 145.822 75.6398 131.267 72.671C123.654 71.1181 115.789 70.5947 108.001 70.3748C104.197 70.2671 100.521 70.5146 96.7964 71.4977C95.1178 71.9416 93.4837 72.5347 91.8839 73.2148C90.6683 73.7317 87.7869 74.1651 87.0484 75.0104C80.9773 81.85 77.6178 88.8545 77.394 97.9689C77.1818 106.597 79.2722 115.391 82.3988 123.319C85.881 132.148 90.5935 140.27 97.0193 147.26C101.922 152.594 107.492 157.326 113.028 162C132.715 178.623 158.113 193.661 185.278 192.162C194.071 191.677 202.58 189.208 210.625 185.606C212.521 184.757 214.407 183.896 216.213 182.863C217.431 182.168 220.79 178.882 221.967 178.837C223.581 178.774 226.795 182.277 228.225 183.375C239.097 191.722 249.641 200.456 259.928 209.496C270.872 219.114 281.206 229.291 291.183 239.887C295.426 244.395 299.64 248.909 303.741 253.547C304.696 254.626 306.941 258.512 308.792 258.81C309.963 258.999 310.83 258.048 310.741 256.944C310.586 255.026 306.803 251.906 305.577 250.448Z" fill="#81C784"/>
<path fill-rule="evenodd" clip-rule="evenodd" d="M222.971 240.662C222.539 240.086 212.675 234.792 213.333 233.886C213.616 233.497 217.379 235.63 217.882 235.944C219.872 237.187 221.524 238.848 222.971 240.662ZM242.248 230.606C242.23 230.677 243.417 233.071 243.734 233.803C244.409 235.361 245.023 236.943 245.593 238.526C244.78 235.745 243.925 233.158 242.248 230.606ZM146.473 242.576C145.143 242.903 143.697 241.137 145.413 240.849C146.801 240.619 146.74 240.538 147.431 239.479C147.993 238.619 148.377 237.549 148.881 236.641C149.949 234.715 151.136 232.889 152.553 231.201C155.589 227.581 159.192 224.532 163.167 222.03C170.105 217.663 177.813 213.77 185.813 212.108C198.534 209.465 212.74 210.258 225.054 213.597C232.68 215.664 239.561 218.803 244.252 225.413C246.596 228.715 248.351 232.514 248.945 236.602C249.1 237.67 248.973 238.837 249.188 239.887C249.517 241.502 249.352 241.067 251.178 241.507C253.171 241.987 255.162 242.474 257.153 242.967C262.364 244.258 267.602 245.607 272.637 247.459C274.294 248.067 275.907 248.782 277.474 249.591C278.659 250.203 283.41 252.196 283.888 253.83C284.685 256.55 281.47 255.114 280.486 254.464C279.624 253.894 278.736 253.357 277.831 252.856C275.554 251.595 273.16 250.575 270.698 249.724C268.038 248.803 265.309 248.063 262.591 247.323C260.056 246.633 257.508 245.988 254.956 245.364C253.538 245.016 252.118 244.676 250.699 244.336C250.214 244.22 249.379 243.732 249.398 244.376C246.42 243.578 243.147 243.429 240.082 243.049C236.328 242.583 232.557 242.152 228.768 242.001C226.035 241.892 223.293 241.877 220.554 242.051C218.953 242.152 217.371 242.355 215.787 242.642C214.917 242.8 211.515 243.023 210.997 243.736C211.22 243.43 214.916 244.006 215.39 244.021C217.288 244.085 219.18 244.031 221.081 243.954C224.609 243.812 228.125 243.856 231.633 244.137C231.576 244.753 229.099 245.683 228.485 246.051C227.107 246.875 225.778 247.788 224.527 248.803C222.323 250.59 219.678 252.811 218.086 255.002C218.555 254.357 220.695 253.625 221.47 253.162C222.71 252.419 223.93 251.619 225.092 250.753C226.165 249.954 227.175 249.08 228.171 248.186C229.167 247.29 230.568 245.38 231.833 244.827C231.909 244.793 232.41 245.252 232.722 245.13C233.037 245.008 233.467 244.314 233.547 244.29C234.712 243.932 236.828 244.632 238.017 244.772C241.099 245.135 244.176 245.543 247.255 245.933C248.209 246.054 249.038 245.894 249.349 246.628C249.681 247.41 248.833 249.345 248.574 250.153C247.611 253.155 246.092 255.8 243.84 258.018C239.622 262.173 234.6 264.786 229.023 266.375C207.664 272.464 185.299 273.918 165.048 264.558C156.664 260.683 144.102 253.931 146.473 242.576Z" fill="#81C784"/>
</g>
<defs>
<filter id="filter0_f" x="67.3792" y="60.3516" width="253.368" height="220.909" filterUnits="userSpaceOnUse" color-interpolation-filters="sRGB">
<feFlood flood-opacity="0" result="BackgroundImageFix"/>
<feBlend mode="normal" in="SourceGraphic" in2="BackgroundImageFix" result="shape"/>
<feGaussianBlur stdDeviation="5" result="effect1_foregroundBlur"/>
</filter>
</defs>
</svg>
