<svg width="33" height="33" viewBox="0 0 33 33" fill="none" xmlns="http://www.w3.org/2000/svg">
<circle cx="16.5" cy="16.5" r="16.5" fill="white"/>
<path fill-rule="evenodd" clip-rule="evenodd" d="M20.0058 11.991L18.7351 11.9918C17.7386 11.9918 17.5454 12.4652 17.5454 13.1596V14.6918H19.9223L19.6126 17.0923H17.5454V23.25H15.0673V17.0923H12.9951V14.6918H15.0673V12.9225C15.0673 10.868 16.322 9.75 18.1538 9.75C19.0313 9.75 19.7856 9.81497 20.0058 9.8445V11.991ZM16.5 3C9.04462 3 3 9.04378 3 16.5C3 23.9554 9.04462 30 16.5 30C23.9562 30 30 23.9554 30 16.5C30 9.04378 23.9562 3 16.5 3Z" fill="#339F61"/>
</svg>
