<svg width="15" height="21" viewBox="0 0 15 21" fill="none" xmlns="http://www.w3.org/2000/svg">
<path d="M14.0726 5.39796C13.9877 4.96912 13.8605 4.5497 13.6929 4.14591C13.525 3.74032 13.3173 3.35233 13.0729 2.98759C12.5815 2.25186 11.9504 1.61989 11.2153 1.12755C10.488 0.639045 9.67132 0.299238 8.81213 0.127833C7.94567 -0.042611 7.05434 -0.042611 6.18788 0.127833C5.32869 0.299178 4.51191 0.638985 3.78472 1.12755C3.04989 1.61917 2.4187 2.25036 1.92708 2.98519C1.43857 3.71244 1.09883 4.52916 0.927362 5.38835C0.756858 6.25481 0.756858 7.14614 0.927362 8.0126C1.09871 8.87179 1.43851 9.68856 1.92708 10.4158C2.57683 11.3872 3.46786 12.1731 4.51288 12.6964C5.14659 13.0206 5.82806 13.2413 6.53153 13.35C6.67181 13.3627 6.77755 13.4832 6.77185 13.624V15.5225C6.77185 15.6685 6.65349 15.7868 6.5075 15.7868H3.70541C3.51629 15.7876 3.33503 15.8627 3.20075 15.9959C2.93136 16.2689 2.92289 16.7051 3.18153 16.9884L3.19594 17.0004C3.26498 17.0672 3.34668 17.1195 3.43626 17.1542C3.52235 17.19 3.61458 17.2088 3.70782 17.2095H6.51471C6.58494 17.2092 6.65235 17.2369 6.70215 17.2864C6.74787 17.3361 6.77281 17.4015 6.77185 17.469V20.2783C6.77148 20.3722 6.78945 20.4653 6.82472 20.5523C6.85908 20.642 6.91147 20.7238 6.97852 20.7926C7.04731 20.8597 7.12908 20.9121 7.21883 20.9464C7.39366 21.0178 7.58952 21.0178 7.76435 20.9464C7.85411 20.912 7.93588 20.8596 8.00467 20.7926C8.07171 20.7238 8.1241 20.642 8.15847 20.5523C8.19373 20.4653 8.2117 20.3722 8.21134 20.2783V17.469C8.21104 17.3988 8.23873 17.3314 8.28824 17.2816C8.33804 17.2321 8.40545 17.2044 8.47569 17.2047H11.2802C11.3741 17.205 11.4671 17.1871 11.5541 17.1518C11.6439 17.1174 11.7257 17.0651 11.7944 16.998C11.8615 16.9292 11.9139 16.8474 11.9483 16.7577C12.0197 16.5829 12.0197 16.387 11.9483 16.2122C11.9295 16.1666 11.9061 16.1231 11.8786 16.0824L11.7848 15.9887C11.6506 15.8555 11.4693 15.7804 11.2802 15.7796H8.47088C8.40065 15.7799 8.33324 15.7522 8.28343 15.7027C8.23393 15.6529 8.20623 15.5855 8.20653 15.5153V13.7465V13.624C8.20665 13.5603 8.22966 13.4989 8.27142 13.4509C8.31293 13.4037 8.37013 13.373 8.43243 13.3644C9.14581 13.2636 9.8381 13.0477 10.4823 12.7252C11.9332 12.0002 13.0733 10.7756 13.6929 9.27666C13.8606 8.87209 13.9878 8.45189 14.0726 8.02221C14.2431 7.15575 14.2431 6.26436 14.0726 5.39796ZM12.6716 7.74104V7.75065C12.0826 10.6227 9.2769 12.4736 6.40482 11.8846C3.53275 11.2957 1.68189 8.48992 2.27085 5.61785C2.8598 2.74577 5.66555 0.894921 8.53763 1.48388C11.0174 1.99238 12.7932 4.18112 12.7797 6.71249C12.7775 7.058 12.7412 7.40255 12.6716 7.74104Z" fill="#393939"/>
</svg>
