<svg width="32" height="32" viewBox="0 0 32 32" fill="none" xmlns="http://www.w3.org/2000/svg">
<mask id="mask0" mask-type="alpha" maskUnits="userSpaceOnUse" x="0" y="2" width="32" height="28">
<path fill-rule="evenodd" clip-rule="evenodd" d="M11.0725 14.723C13.1151 14.723 14.771 16.4356 14.771 18.5482V26.1867C14.7647 28.2946 13.1106 30 11.0725 30H3.68701C1.65073 30 0 28.2927 0 26.1867V12.1807C0.0126307 6.56349 4.41233 2.01306 9.8435 2H11.0725C11.7487 2.00645 12.2953 2.57178 12.3015 3.27111V5.81332C12.3015 6.51728 11.7531 7.08979 11.0725 7.09631H9.8435C7.12847 7.09631 4.92749 9.37269 4.92749 12.1807V12.8222C4.92749 13.872 5.75029 14.723 6.76525 14.723H11.0725ZM28.3015 14.723C30.3441 14.723 32 16.4356 32 18.5482V26.1867C31.9937 28.2946 30.3397 30 28.3015 30H20.916C18.8797 30 17.229 28.2927 17.229 26.1867V12.1807C17.2416 6.56349 21.6413 2.01306 27.0725 2H28.3015C28.9777 2.00645 29.5243 2.57178 29.5305 3.27111V5.81332C29.5305 6.51728 28.9821 7.08979 28.3015 7.09631H27.0725C24.3575 7.09631 22.1565 9.37269 22.1565 12.1807V12.8222C22.1565 13.3263 22.3501 13.8098 22.6948 14.1662C23.0394 14.5227 23.5069 14.723 23.9943 14.723H28.3015Z" fill="white"/>
</mask>
<g mask="url(#mask0)">
<rect width="32" height="32" fill="white"/>
<rect width="32" height="32" fill="#339F61"/>
</g>
</svg>
