<svg width="25" height="24" viewBox="0 0 25 24" fill="none" xmlns="http://www.w3.org/2000/svg">
<path d="M20.8711 5.29989C20.8511 5.27989 20.8511 5.2799 20.8311 5.2599L18.6911 3.37987C18.3911 3.09987 17.9711 2.95989 17.5311 2.99989C17.1311 3.03989 16.7711 3.19987 16.4911 3.47987C16.4711 3.49987 16.4511 3.51988 16.4311 3.53988L14.3111 6.19989C13.7511 6.79989 13.7711 7.71989 14.3511 8.29989C14.3911 8.33989 14.4311 8.37989 14.4711 8.39989L15.5511 9.11991C15.4711 9.49991 14.9111 10.5799 12.9311 12.5599C10.9511 14.5399 9.87105 15.0999 9.49105 15.1799L8.77106 14.0999C8.75106 14.0599 8.71106 14.0199 8.67106 13.9799C8.09106 13.3999 7.17106 13.3999 6.57106 13.9399L3.91106 16.0599C3.89106 16.0799 3.87106 16.0999 3.85106 16.1199C3.25106 16.7199 3.21106 17.7199 3.75106 18.2999L5.63106 20.4399C5.65106 20.4599 5.65106 20.4599 5.67106 20.4799C6.03106 20.8399 6.59106 20.9799 7.21106 20.9799C8.31106 20.9799 9.57106 20.5399 10.2311 20.2799C11.5111 19.7799 14.0111 18.5599 16.4911 16.0799C18.3311 14.2399 19.8111 12.0199 20.6911 9.81991C21.0711 8.81991 21.9111 6.33989 20.8711 5.29989ZM15.3511 14.9799C11.6511 18.6799 7.49105 19.6999 6.79105 19.3399L4.97106 17.2599L7.57106 15.1999L8.27106 16.2599C8.29106 16.2799 8.29106 16.2999 8.31106 16.3199C8.55106 16.6199 8.89105 16.7799 9.29105 16.7999C9.67105 16.8199 10.8511 16.8799 14.0311 13.6999C14.8111 12.9199 17.2111 10.5199 17.1311 8.9599C17.1111 8.5599 16.9311 8.21987 16.6511 7.97987C16.6311 7.95987 16.6111 7.93988 16.5911 7.93988L15.5311 7.23988L17.5911 4.63988L19.6711 6.4599C20.0711 7.1199 19.0511 11.2799 15.3511 14.9799Z" fill="#339F61"/>
</svg>
