<svg width="91" height="99" viewBox="0 0 91 99" fill="none" xmlns="http://www.w3.org/2000/svg">
<path opacity="0.5" fill-rule="evenodd" clip-rule="evenodd" d="M36.2601 45.5463C36.7396 44.0461 37.3863 42.5929 38.3487 41.3226C38.5921 41.0016 40.4643 38.7376 40.7379 38.9153C41.375 39.3291 36.395 45.076 36.2601 45.5463ZM21.5914 43.8582C21.6199 43.8987 21.4457 45.7027 21.4216 46.2436C21.3696 47.3939 21.3632 48.545 21.384 49.6854C21.2273 47.7269 21.1441 45.8816 21.5914 43.8582ZM85.279 28.1856C86.2028 28.0698 86.6931 26.6001 85.5342 26.8347C84.5973 27.0262 84.6165 26.9594 83.9214 26.4569C83.357 26.0488 82.8541 25.4646 82.3146 25.0118C81.1703 24.0513 79.9757 23.1835 78.6678 22.4582C75.8645 20.9032 72.84 19.8472 69.7111 19.2278C64.2509 18.1471 58.4165 17.5528 52.9364 18.4427C44.2229 19.8576 35.3972 23.8088 28.3891 28.9126C24.0486 32.0732 20.4409 35.7318 19.0626 41.0559C18.3735 43.7166 18.1792 46.5481 18.7912 49.2807C18.9514 49.995 19.3139 50.7031 19.432 51.4204C19.6137 52.5232 19.6131 52.2073 18.5607 52.9291C17.4116 53.717 16.2655 54.5089 15.1215 55.3042C12.1262 57.3869 9.12805 59.5132 6.37991 61.9081C5.47526 62.696 4.62481 63.5402 3.82589 64.433C3.22139 65.1079 0.687767 67.5235 0.779823 68.6746C0.932591 70.5901 2.62515 68.9003 3.09256 68.2498C3.50193 67.6798 3.93588 67.1239 4.38889 66.5872C5.52955 65.2358 6.80226 64.0086 8.15867 62.8717C9.62441 61.6429 11.1774 60.5117 12.7236 59.3831C14.1657 58.3309 15.6267 57.3041 17.0957 56.2889C17.9117 55.7247 18.7305 55.1646 19.5493 54.6045C19.829 54.4131 20.2411 53.9015 20.3844 54.3144C22.0818 53.0853 24.1229 52.1968 25.9763 51.2118C28.2467 50.0056 30.5357 48.8171 32.9043 47.8013C34.6126 47.0688 36.3494 46.3934 38.1301 45.8386C39.1707 45.5145 40.2242 45.2587 41.2988 45.0558C41.8892 44.9445 44.1026 44.2598 44.6044 44.5857C44.3888 44.4457 42.1821 45.7078 41.8847 45.8328C40.6953 46.334 39.4816 46.759 38.2563 47.1719C35.9826 47.9381 33.7618 48.8201 31.6026 49.8493C31.7882 50.2259 33.5851 50.2134 34.0641 50.2969C35.1384 50.4848 36.2024 50.7399 37.2421 51.0789C39.0737 51.6759 41.2898 52.4403 42.8307 53.4411C42.3766 53.1461 40.8411 53.2027 40.2375 53.0971C39.2705 52.9275 38.3026 52.7171 37.3554 52.4512C36.4811 52.2056 35.6284 51.8977 34.7798 51.5728C33.9308 51.2475 32.5794 50.3784 31.6429 50.3349C31.5863 50.3322 31.3791 50.7444 31.1517 50.7431C30.9225 50.7419 30.4815 50.4072 30.4253 50.4113C29.5988 50.4676 28.4251 51.4242 27.7046 51.8017C25.8356 52.7801 23.9813 53.785 22.1217 54.7799C21.5456 55.088 20.9805 55.1879 20.9605 55.7281C20.9394 56.3042 21.9455 57.3235 22.3058 57.7724C23.6433 59.4395 25.2473 60.7456 27.2136 61.6034C30.8962 63.2106 34.7159 63.6457 38.6401 63.2984C53.6704 61.9683 68.2181 57.4592 78.8079 46.6153C83.1918 42.1257 89.5312 34.8003 85.279 28.1856Z" fill="#81C784"/>
</svg>
