<svg width="88" height="153" viewBox="0 0 88 153" fill="none" xmlns="http://www.w3.org/2000/svg">
<g opacity="0.69">
<path fill-rule="evenodd" clip-rule="evenodd" d="M33.5326 16.5959C31.2005 18.2829 29.0517 20.4495 27.8798 23.091C25.3881 28.7081 28.7935 34.7311 32.5742 38.6854C36.6436 42.9413 41.9297 46.808 41.9077 53.3047C41.8978 56.2914 41.1749 59.2419 41.2192 62.2327C41.2668 65.4287 41.8851 68.5616 42.9593 71.5444C44.9331 77.0228 48.4004 82.4002 53.7554 85.0946C58.4702 87.4667 64.8986 87.5884 67.9961 92.3896C71.2274 97.3981 69.984 104.679 70.2728 110.378C70.5995 116.827 72.1038 124.06 76.0601 129.24C79.8513 134.203 86.0973 136.982 92.3132 137.621C104.733 138.898 116.927 133.85 126.043 125.34C129.913 121.726 134.14 117.468 135.534 112.256C135.964 110.645 135.833 109.408 135.506 107.824C135.213 106.403 135.392 105.135 135.638 103.708C136.178 100.575 135.746 97.4284 134.62 94.5046C130.245 83.149 118.081 75.3743 106.612 72.3385C103.895 71.6195 101.438 70.7808 100.043 68.2093C98.5876 65.5251 98.1418 62.2982 97.6231 59.3101C97.1102 56.3572 96.8456 53.3312 95.9323 50.4718C94.9754 47.4766 93.223 45.0375 90.9298 42.9173C86.6221 38.9349 81.113 36.6854 75.3136 35.6528C69.7276 34.658 63.839 34.2114 59.7904 29.8683C55.4992 25.2654 54.7442 18.3249 49.0868 14.8482C46.7443 13.4085 43.8111 12.4237 40.985 12.8818C38.2747 13.3212 35.726 15.0094 33.5326 16.5959Z" fill="#C3E4C5"/>
<path fill-rule="evenodd" clip-rule="evenodd" d="M41.7485 22.6944C41.1339 22.1118 40.0607 22.4172 39.6375 23.1116C39.0807 24.0256 39.756 24.7231 40.3646 25.338C42.2352 27.2284 43.7144 29.3803 45.006 31.7009C47.6919 36.5253 49.2724 41.8011 51.3665 46.8868C53.459 51.9682 56.414 56.4762 60.9491 59.6959C65.225 62.7318 69.856 65.2561 74.1546 68.2797C77.9433 70.9447 81.9454 73.7488 83.9502 78.0559C85.8803 82.2014 86.0116 86.9163 87.0458 91.3225C89.1866 100.444 93.8249 108.459 99.9486 115.453C102.792 118.7 105.841 121.812 109.449 124.236C111.526 125.632 114.33 127.521 116.992 127.344C118.219 127.262 119.598 126.347 119.405 124.959C119.224 123.656 117.603 122.884 116.646 122.206C112.502 119.271 108.89 115.691 105.636 111.824C102.483 108.079 99.5794 104.113 97.5181 99.6533C95.6054 95.5146 94.5316 91.1985 93.8058 86.6975C93.066 82.1108 92.3954 77.4485 90.0601 73.3694C87.6886 69.2262 83.8233 66.3599 79.8566 63.8205C75.6611 61.1342 71.2773 58.8119 66.8479 56.5215C62.5317 54.2897 59.1597 51.5165 56.5655 47.3933C51.4402 39.2475 48.9098 29.4824 41.7485 22.6944Z" fill="#9BD39E"/>
</g>
</svg>
