<svg width="131" height="245" viewBox="0 0 131 245" fill="none" xmlns="http://www.w3.org/2000/svg">
<path fill-rule="evenodd" clip-rule="evenodd" d="M43.9936 46.3845C46.3257 48.0714 48.4745 50.2381 49.6464 52.8796C52.1381 58.4966 48.7327 64.5197 44.952 68.4739C40.8827 72.7299 35.5965 76.5966 35.6185 83.0933C35.6284 86.0799 36.3513 89.0304 36.307 92.0213C36.2594 95.2173 35.6411 98.3501 34.5669 101.333C32.5931 106.811 29.1259 112.189 23.7709 114.883C19.056 117.255 12.6276 117.377 9.5301 122.178C6.29878 127.187 7.54218 134.467 7.25339 140.166C6.92667 146.616 5.4224 153.849 1.46615 159.028C-2.3251 163.992 -8.57111 166.771 -14.787 167.41C-27.207 168.687 -39.4008 163.639 -48.5166 155.128C-52.3867 151.514 -56.6138 147.257 -58.0075 142.044C-58.4382 140.433 -58.3065 139.197 -57.9798 137.612C-57.6868 136.191 -57.8659 134.923 -58.1115 133.497C-58.6513 130.363 -58.2202 127.217 -57.0939 124.293C-52.7184 112.938 -40.5551 105.163 -29.086 102.127C-26.3686 101.408 -23.9114 100.569 -22.5171 97.9978C-21.0614 95.3137 -20.6156 92.0868 -20.0968 89.0987C-19.584 86.1457 -19.3194 83.1198 -18.4061 80.2604C-17.4492 77.2652 -15.6967 74.8261 -13.4036 72.7059C-9.09586 68.7235 -3.58681 66.4739 2.21262 65.4413C7.79866 64.4466 13.6872 64 17.7358 59.6569C22.027 55.054 22.782 48.1134 28.4394 44.6368C30.782 43.1971 33.7151 42.2123 36.5412 42.6704C39.2515 43.1097 41.8002 44.798 43.9936 46.3845Z" fill="#C3E4C5"/>
<path fill-rule="evenodd" clip-rule="evenodd" d="M35.7777 52.483C36.3923 51.9004 37.4656 52.2058 37.8887 52.9001C38.4455 53.8141 37.7702 54.5117 37.1616 55.1266C35.291 57.0169 33.8118 59.1689 32.5202 61.4895C29.8344 66.3139 28.2538 71.5897 26.1597 76.6754C24.0672 81.7568 21.1123 86.2648 16.5771 89.4845C12.3012 92.5204 7.67021 95.0447 3.37162 98.0683C-0.417068 100.733 -4.41914 103.537 -6.42394 107.844C-8.35407 111.99 -8.48536 116.705 -9.51958 121.111C-11.6604 130.232 -16.2987 138.248 -22.4224 145.242C-25.2661 148.489 -28.3146 151.6 -31.9225 154.024C-33.9997 155.42 -36.8038 157.31 -39.4658 157.133C-40.6933 157.051 -42.072 156.136 -41.8786 154.747C-41.6977 153.444 -40.0773 152.673 -39.12 151.995C-34.9757 149.059 -31.3641 145.479 -28.1094 141.613C-24.9567 137.867 -22.0532 133.901 -19.9919 129.442C-18.0791 125.303 -17.0054 120.987 -16.2796 116.486C-15.5398 111.899 -14.8692 107.237 -12.5339 103.158C-10.1623 99.0148 -6.29705 96.1485 -2.33034 93.609C1.86516 90.9228 6.24891 88.6005 10.6783 86.31C14.9945 84.0783 18.3665 81.3051 20.9607 77.1819C26.0861 69.036 28.6165 59.271 35.7777 52.483Z" fill="#9BD39E"/>
<path fill-rule="evenodd" clip-rule="evenodd" d="M90.9896 106.734C92.8542 109.935 94.2522 113.602 94.2514 117.315C94.2494 125.21 87.0901 130.492 80.5704 133.15C73.553 136.011 65.3061 137.777 61.9356 145.411C60.3859 148.919 59.6948 152.759 58.079 156.245C56.3522 159.969 53.9862 163.321 51.1618 166.257C45.9733 171.65 39.0787 176.142 31.3636 176.497C24.5708 176.81 16.9364 173.585 10.7785 177.595C4.35466 181.777 2.01291 190.97 -1.3065 197.504C-5.06298 204.899 -10.6159 212.596 -17.9828 216.6C-25.0428 220.437 -33.8514 220.424 -41.5059 217.917C-56.8004 212.909 -68.5221 200.599 -74.8085 185.839C-77.4772 179.572 -80.2297 172.362 -79.146 165.517C-78.8109 163.402 -78.0097 162.02 -76.7964 160.332C-75.7084 158.819 -75.2565 157.238 -74.8 155.436C-73.7977 151.477 -71.6451 148.011 -68.7901 145.172C-57.7007 134.142 -39.3115 131.394 -24.2173 133.841C-20.641 134.421 -17.3088 134.725 -14.3224 132.438C-11.2048 130.052 -8.99282 126.5 -6.8198 123.267C-4.67204 120.071 -2.77855 116.66 -0.208153 113.784C2.48468 110.771 5.82367 108.828 9.6327 107.542C16.7878 105.127 24.4518 105.374 31.8216 107.201C38.9203 108.961 46.0888 111.522 53.1273 108.548C60.5873 105.396 65.1049 97.6496 73.5851 96.5348C77.0965 96.0732 81.0658 96.4545 84.1545 98.4726C87.1168 100.408 89.2359 103.724 90.9896 106.734Z" fill="#ADDAAF"/>
<path fill-rule="evenodd" clip-rule="evenodd" d="M77.3696 110.753C78.3956 110.387 79.4934 111.306 79.6251 112.344C79.7983 113.709 78.6409 114.178 77.6049 114.585C74.4205 115.834 71.5578 117.595 68.8264 119.653C63.1472 123.93 58.5269 129.314 53.4042 134.206C48.2858 139.095 42.4572 142.859 35.4522 144.284C28.8475 145.628 22.095 146.185 15.4702 147.502C9.63119 148.663 3.46907 149.877 -1.14039 153.9C-5.57757 157.772 -8.20495 163.252 -11.7288 167.897C-19.0232 177.514 -28.6651 184.529 -39.5118 189.566C-44.5488 191.905 -49.7543 193.977 -55.255 194.95C-58.4222 195.509 -62.7003 196.271 -65.7275 194.675C-67.1234 193.94 -68.2595 192.144 -67.3043 190.611C-66.4087 189.172 -64.1047 189.109 -62.6268 188.81C-56.2291 187.516 -50.1178 185.186 -44.2742 182.332C-38.6139 179.568 -33.13 176.415 -28.3743 172.242C-23.9611 168.369 -20.4382 163.85 -17.2262 158.932C-13.9528 153.921 -10.7209 148.784 -5.84362 145.201C-0.890254 141.562 5.14413 140.204 11.126 139.283C17.4529 138.309 23.8097 137.861 30.2032 137.475C36.4333 137.098 41.8407 135.592 47.0445 132.093C57.3256 125.179 65.4144 115.008 77.3696 110.753Z" fill="#81C784"/>
<path fill-rule="evenodd" clip-rule="evenodd" d="M-18.0659 63.2926C-13.7064 67.3442 -12.0006 73.1948 -12.3778 78.8969C-12.8195 85.5718 -16.5099 90.7948 -19.4655 96.4926C-20.9365 99.328 -21.9424 102.565 -21.4834 105.847C-21.0658 108.832 -19.1509 111.131 -17.7338 113.717C-14.9015 118.884 -14.6392 125.235 -17.049 130.448C-19.9882 136.807 -26.2478 140.157 -30.551 145.37C-34.503 150.158 -32.6158 157.19 -31.0021 162.745C-29.411 168.223 -28.0478 173.234 -30.853 178.418C-33.8284 183.916 -38.0435 189.222 -43.7 192.128C-53.1183 196.966 -63.831 192.995 -71.7612 186.553C-78.9581 180.706 -86.8202 172.078 -87.3819 162.476C-87.7178 156.73 -85.0313 151.627 -81.1243 147.698C-78.6949 145.254 -75.8676 143.224 -72.9498 141.393C-70.8817 140.094 -68.6582 138.955 -66.8209 137.335C-61.9335 133.024 -65.5184 127.992 -68.0796 123.182C-71.3339 117.068 -71.7811 110.818 -70.0618 104.287C-68.4614 98.2059 -65.1368 92.7996 -59.6785 89.5395C-56.8912 87.875 -53.7591 86.9255 -50.4847 86.6852C-49.0434 86.5795 -47.4266 86.8767 -46.019 86.6665C-44.7048 86.4699 -43.9208 85.3613 -43.3019 84.2757C-40.4439 79.2605 -40.2905 73.0508 -37.55 67.9403C-35.0765 63.3271 -30.2115 59.2461 -24.5643 60.0353C-22.1244 60.3761 -19.8844 61.6238 -18.0659 63.2926Z" fill="#DDEFDE"/>
<path fill-rule="evenodd" clip-rule="evenodd" d="M-22.0928 79.5385C-22.0024 88.7072 -26.893 96.4882 -32.4819 103.241C-35.6161 107.028 -39.3546 110.619 -41.5285 115.097C-43.3895 118.929 -43.3706 123.198 -43.1695 127.403C-42.7649 135.867 -41.9159 144.88 -46.4552 152.367C-49.1192 156.761 -53.1717 160.091 -55.5073 164.714C-57.6298 168.917 -58.9705 173.739 -59.5216 178.441C-59.9656 182.228 -59.4191 185.951 -59.5674 189.728C-59.613 190.881 -59.7019 192.557 -60.7702 193.251C-62.0212 194.065 -63.6964 193.133 -64.5089 192.067C-66.4036 189.583 -66.3198 185.686 -66.3534 182.765C-66.4026 178.494 -65.9685 174.352 -64.9155 170.232C-63.7454 165.658 -62.0807 161.197 -59.4819 157.26C-56.7861 153.175 -53.0675 149.763 -51.2617 145.117C-48.2232 137.299 -50.5931 128.817 -50.4346 120.67C-50.2366 110.519 -43.0832 104.304 -36.236 97.9539C-32.4733 94.4644 -28.2618 90.4886 -26.9935 85.2884C-26.5094 83.3034 -27.005 80.5724 -25.9388 78.7956C-24.9618 77.1677 -22.1147 77.2512 -22.0928 79.5385Z" fill="#A2E9A5" fill-opacity="0.53"/>
<g opacity="0.76" filter="url(#filter0_f)">
<circle r="13" transform="matrix(-1 0 0 1 19.0239 30)" fill="#E03056"/>
</g>
<circle r="15.5" transform="matrix(-1 0 0 1 114.524 105.5)" fill="#E03056"/>
<g opacity="0.82" filter="url(#filter1_f)">
<circle r="11.5" transform="matrix(-1 0 0 1 53.5239 210.5)" fill="#E03056"/>
</g>
<g opacity="0.61" filter="url(#filter2_f)">
<circle r="6.5" transform="matrix(-1 0 0 1 99.5239 16.5)" fill="#E03056"/>
</g>
<defs>
<filter id="filter0_f" x="2.02393" y="13" width="34" height="34" filterUnits="userSpaceOnUse" color-interpolation-filters="sRGB">
<feFlood flood-opacity="0" result="BackgroundImageFix"/>
<feBlend mode="normal" in="SourceGraphic" in2="BackgroundImageFix" result="shape"/>
<feGaussianBlur stdDeviation="2" result="effect1_foregroundBlur"/>
</filter>
<filter id="filter1_f" x="36.0239" y="193" width="35" height="35" filterUnits="userSpaceOnUse" color-interpolation-filters="sRGB">
<feFlood flood-opacity="0" result="BackgroundImageFix"/>
<feBlend mode="normal" in="SourceGraphic" in2="BackgroundImageFix" result="shape"/>
<feGaussianBlur stdDeviation="3" result="effect1_foregroundBlur"/>
</filter>
<filter id="filter2_f" x="83.0239" y="0" width="33" height="33" filterUnits="userSpaceOnUse" color-interpolation-filters="sRGB">
<feFlood flood-opacity="0" result="BackgroundImageFix"/>
<feBlend mode="normal" in="SourceGraphic" in2="BackgroundImageFix" result="shape"/>
<feGaussianBlur stdDeviation="5" result="effect1_foregroundBlur"/>
</filter>
</defs>
</svg>
