<svg width="125" height="259" viewBox="0 0 125 259" fill="none" xmlns="http://www.w3.org/2000/svg">
<path fill-rule="evenodd" clip-rule="evenodd" d="M85.4473 246.444C82.5587 247.072 79.3693 247.024 76.4269 246.972C60.6469 246.758 45.1512 239.318 35.0662 227.429C26.4808 217.308 24.12 204.725 22.4239 192.005C22.2558 190.742 22.1836 189.487 22.0888 188.222C22.0684 187.95 22.0379 187.708 22.0054 187.48C21.3384 186.886 20.9885 186.193 21.3833 185.433C19.9139 182.23 18.6709 178.946 17.6043 175.56C14.4651 165.591 11.2718 155.432 13.2389 144.949C13.6984 150.718 14.6651 156.617 15.8213 162.291C15.8878 162.617 15.9596 162.94 16.0344 163.262C16.042 163.296 16.0491 163.33 16.0568 163.364C16.4661 165.101 16.9981 166.787 17.6451 168.446C17.6518 168.464 17.6584 168.482 17.6654 168.5C17.7509 168.718 17.8416 168.935 17.9311 169.152C18.1164 169.602 18.3068 170.051 18.5086 170.497C18.5769 170.649 18.6425 170.803 18.7054 170.957C19.6473 173.256 20.0451 175.847 20.8889 178.226C21.0907 178.766 21.3018 179.305 21.5228 179.841C21.5358 179.873 21.5491 179.904 21.5624 179.936C22.16 181.378 22.8202 182.803 23.5183 184.213C23.8978 184.497 24.1005 185.201 24.4277 185.841C24.4954 185.968 25.0244 186.809 25.1819 187.294C25.593 188.086 26.0026 188.878 26.4167 189.669C26.4042 189.664 26.3918 189.659 26.3794 189.655C26.7938 190.414 27.2093 191.17 27.6216 191.923C27.7123 192.088 27.8039 192.254 27.8952 192.42C28.0433 192.684 28.1914 192.948 28.3391 193.211C29.7214 195.674 31.1869 198.089 32.709 200.473C33.2522 201.324 34.5499 202.544 34.7987 203.499C34.8079 203.535 34.81 203.568 34.8156 203.602C38.1182 208.221 41.9203 212.482 46.4799 215.858C45.9287 215.265 44.7572 213.252 44.4475 212.853C43.4997 211.632 42.4706 210.496 41.4377 209.346C39.5879 207.286 37.7819 205.16 36.1771 202.913C33.2424 198.802 30.7105 194.476 28.3173 190.063C28.2945 190.037 28.2697 190.012 28.2481 189.986C27.0453 188.509 26.2881 186.277 25.4222 184.588C28.8489 186.169 32.638 187.199 36.155 188.602C39.6621 190.001 43.0738 191.559 46.3676 193.389C50.7454 195.821 55.2867 198.567 59.423 201.674C64.1632 204.602 68.1465 208.633 71.6625 212.862C75.8225 217.867 79.635 222.915 81.9928 228.991C83.151 231.977 84.0621 235.09 84.6024 238.24C84.626 238.378 84.6562 238.526 84.689 238.681C85.2416 239.769 85.7358 240.881 86.1504 242.019C86.8089 243.824 88.364 245.809 85.4473 246.444Z" fill="#A6E9A9" fill-opacity="0.54"/>
<path fill-rule="evenodd" clip-rule="evenodd" d="M121.816 178.811C119.069 181.765 114.874 183.342 110.978 184.241C95.7638 187.754 80.1622 185.421 65.8697 179.879C58.0382 176.842 50.63 172.383 43.8755 167.518C39.9767 164.71 36.3457 161.537 33.4197 157.751C31.445 155.195 29.855 152.425 28.5341 149.493C26.9242 145.921 25.4501 142.237 24.3034 138.492C23.8519 137.018 21.1427 129.265 23.6089 128.553C23.5493 128.361 23.5028 128.175 23.4793 128.003C16.1033 120.793 10.4636 111.65 5.18611 102.964C0.594194 95.4064 -3.71931 87.7114 -7.23704 79.608C-11.8683 68.9393 -15.8318 57.94 -19.0845 46.7844C-19.7834 44.3869 -20.4393 41.9782 -21.0826 39.5644C-21.6308 37.5055 -22.1799 35.4468 -22.7272 33.3877C-23.3402 31.0801 -24.3684 28.4977 -24.5316 26.1005C-24.6739 24.0129 -22.8578 23.9146 -22.3182 25.9001C-21.6664 28.2979 -21.122 30.7255 -20.457 33.122C-19.5741 36.3026 -18.6869 39.4822 -17.7878 42.6581C-11.5393 64.7196 -2.34882 85.7564 10.1108 105.082C15.153 112.902 20.5384 120.164 26.8856 127.01C32.4662 133.029 38.8029 138.641 45.1392 143.767C51.2977 148.748 57.6123 153.545 64.6275 157.35C70.3202 160.438 76.3613 162.879 82.4894 165.032C90.2728 167.767 98.0189 170.401 106.136 172.006C110.356 172.84 114.606 173.478 118.839 174.236C119.601 174.372 120.411 174.488 121.157 174.677C123.645 175.309 123.311 177.202 121.816 178.811Z" fill="#6BB56F" fill-opacity="0.58"/>
<path fill-rule="evenodd" clip-rule="evenodd" d="M46.4828 123.465C52.8318 123.465 58.4815 122.639 64.3314 120.112C69.381 117.931 73.9829 115.044 78.4508 111.9C84.7355 107.479 89.6858 102.334 93.1508 95.5161C95.2209 91.4432 96.7395 85.6799 95.3493 81.2376C93.7116 76.0054 89.215 71.6417 83.2928 72.5636C79.6307 73.1331 76.2736 75.561 73.4903 77.8461C70.1606 80.5799 67.4952 83.867 65.2944 87.5178C61.7043 93.473 59.5947 100.205 56.545 106.428C55.0978 109.382 53.6994 112.356 51.9661 115.163C51.108 116.553 50.1945 117.93 48.8928 118.963C48.1963 119.515 45.2599 120.472 46.3828 121.713C29.9183 121.496 15.3325 108.832 12.1719 93.1556C11.8775 91.6944 11.6474 90.2215 11.4043 88.7514C11.251 87.8231 11.3129 84.3998 10.4843 83.8068C8.65697 82.4986 9.42508 86.4726 9.50354 87.0448C9.70619 88.5235 9.9224 90.0012 10.1492 91.4762C11.3834 99.4991 14.9496 106.957 20.8969 112.679C27.6978 119.222 36.8738 123.465 46.4828 123.465Z" fill="#78B87B" fill-opacity="0.69"/>
<circle cx="96" cy="196" r="10" fill="#E03056"/>
<circle cx="60" cy="138" r="7" fill="#E03056"/>
<circle cx="30" cy="253" r="6" fill="#E03056"/>
</svg>
