<svg width="165" height="245" viewBox="0 0 165 245" fill="none" xmlns="http://www.w3.org/2000/svg">
<path fill-rule="evenodd" clip-rule="evenodd" d="M86.0304 46.3846C83.6982 48.0716 81.5494 50.2382 80.3775 52.8797C77.8858 58.4968 81.2912 64.5198 85.072 68.4741C89.1413 72.73 94.4274 76.5967 94.4055 83.0934C94.3956 86.0801 93.6726 89.0306 93.717 92.0214C93.7646 95.2174 94.3829 98.3502 95.4571 101.333C97.4308 106.812 100.898 112.189 106.253 114.883C110.968 117.255 117.396 117.377 120.494 122.178C123.725 127.187 122.482 134.467 122.771 140.166C123.097 146.616 124.602 153.849 128.558 159.028C132.349 163.992 138.595 166.771 144.811 167.41C157.231 168.687 169.425 163.639 178.541 155.128C182.411 151.515 186.638 147.257 188.031 142.044C188.462 140.433 188.331 139.197 188.004 137.612C187.711 136.191 187.89 134.923 188.135 133.497C188.675 130.363 188.244 127.217 187.118 124.293C182.742 112.938 170.579 105.163 159.11 102.127C156.393 101.408 153.935 100.569 152.541 97.998C151.085 95.3138 150.64 92.0869 150.121 89.0988C149.608 86.1459 149.343 83.1199 148.43 80.2605C147.473 77.2653 145.721 74.8262 143.428 72.706C139.12 68.7236 133.611 66.4741 127.811 65.4414C122.225 64.4467 116.337 64.0001 112.288 59.657C107.997 55.0541 107.242 48.1136 101.585 44.6369C99.242 43.1972 96.3089 42.2124 93.4828 42.6705C90.7725 43.1099 88.2237 44.7981 86.0304 46.3846Z" fill="#C3E4C5"/>
<path fill-rule="evenodd" clip-rule="evenodd" d="M94.2463 52.483C93.6317 51.9004 92.5584 52.2058 92.1353 52.9001C91.5784 53.8141 92.2537 54.5117 92.8624 55.1266C94.733 57.0169 96.2121 59.1689 97.5038 61.4895C100.19 66.3139 101.77 71.5897 103.864 76.6754C105.957 81.7568 108.912 86.2648 113.447 89.4845C117.723 92.5204 122.354 95.0447 126.652 98.0683C130.441 100.733 134.443 103.537 136.448 107.844C138.378 111.99 138.509 116.705 139.544 121.111C141.684 130.232 146.323 138.248 152.446 145.242C155.29 148.489 158.339 151.6 161.946 154.024C164.024 155.42 166.828 157.31 169.49 157.133C170.717 157.051 172.096 156.136 171.903 154.747C171.722 153.444 170.101 152.673 169.144 151.995C165 149.059 161.388 145.479 158.133 141.613C154.981 137.867 152.077 133.901 150.016 129.442C148.103 125.303 147.029 120.987 146.304 116.486C145.564 111.899 144.893 107.237 142.558 103.158C140.186 99.0148 136.321 96.1485 132.354 93.609C128.159 90.9228 123.775 88.6005 119.346 86.31C115.029 84.0783 111.657 81.3051 109.063 77.1819C103.938 69.036 101.408 59.271 94.2463 52.483Z" fill="#9BD39E"/>
<path fill-rule="evenodd" clip-rule="evenodd" d="M39.0343 106.734C37.1697 109.935 35.7717 113.602 35.7725 117.315C35.7745 125.21 42.9338 130.492 49.4535 133.15C56.4709 136.011 64.7178 137.778 68.0883 145.411C69.638 148.92 70.329 152.76 71.9449 156.245C73.6717 159.97 76.0377 163.321 78.8621 166.257C84.0506 171.65 90.9452 176.142 98.6603 176.497C105.453 176.81 113.087 173.585 119.245 177.595C125.669 181.778 128.011 190.97 131.33 197.504C135.087 204.899 140.64 212.597 148.007 216.6C155.067 220.437 163.875 220.425 171.53 217.918C186.824 212.909 198.546 200.599 204.832 185.839C207.501 179.572 210.254 172.363 209.17 165.517C208.835 163.402 208.034 162.021 206.82 160.333C205.732 158.819 205.28 157.238 204.824 155.436C203.822 151.477 201.669 148.012 198.814 145.172C187.725 134.143 169.335 131.394 154.241 133.841C150.665 134.421 147.333 134.725 144.346 132.439C141.229 130.052 139.017 126.5 136.844 123.267C134.696 120.071 132.802 116.66 130.232 113.784C127.539 110.772 124.2 108.828 120.391 107.542C113.236 105.127 105.572 105.375 98.2022 107.201C91.1036 108.961 83.9351 111.522 76.8966 108.548C69.4365 105.396 64.919 97.6498 56.4388 96.5351C52.9274 96.0735 48.9581 96.4547 45.8694 98.4728C42.9071 100.408 40.788 103.724 39.0343 106.734Z" fill="#ADDAAF"/>
<path fill-rule="evenodd" clip-rule="evenodd" d="M52.6544 110.753C51.6283 110.387 50.5305 111.306 50.3988 112.344C50.2256 113.709 51.3831 114.178 52.4191 114.585C55.6034 115.834 58.4661 117.595 61.1975 119.653C66.8767 123.93 71.497 129.314 76.6197 134.206C81.7381 139.095 87.5667 142.859 94.5718 144.284C101.176 145.628 107.929 146.185 114.554 147.502C120.393 148.663 126.555 149.877 131.164 153.9C135.601 157.772 138.229 163.252 141.753 167.897C149.047 177.514 158.689 184.529 169.536 189.566C174.573 191.905 179.778 193.978 185.279 194.95C188.446 195.51 192.724 196.272 195.751 194.676C197.147 193.94 198.283 192.144 197.328 190.611C196.433 189.172 194.129 189.109 192.651 188.81C186.253 187.516 180.142 185.186 174.298 182.332C168.638 179.568 163.154 176.415 158.398 172.242C153.985 168.369 150.462 163.85 147.25 158.932C143.977 153.921 140.745 148.784 135.868 145.202C130.914 141.562 124.88 140.204 118.898 139.283C112.571 138.309 106.214 137.861 99.8207 137.475C93.5907 137.098 88.1832 135.593 82.9794 132.093C72.6983 125.179 64.6095 115.008 52.6544 110.753Z" fill="#81C784"/>
<path fill-rule="evenodd" clip-rule="evenodd" d="M148.09 63.2924C143.73 67.3439 142.025 73.1946 142.402 78.8966C142.843 85.5715 146.534 90.7946 149.489 96.4923C150.96 99.3278 151.966 102.565 151.507 105.847C151.09 108.831 149.175 111.131 147.758 113.716C144.925 118.884 144.663 125.235 147.073 130.448C150.012 136.807 156.272 140.157 160.575 145.37C164.527 150.157 162.64 157.19 161.026 162.745C159.435 168.223 158.072 173.234 160.877 178.418C163.852 183.916 168.067 189.221 173.724 192.127C183.142 196.966 193.855 192.995 201.785 186.553C208.982 180.706 216.844 172.077 217.406 162.475C217.742 156.73 215.055 151.627 211.148 147.698C208.719 145.254 205.892 143.224 202.974 141.392C200.906 140.094 198.682 138.954 196.845 137.334C191.957 133.024 195.542 127.992 198.104 123.181C201.358 117.068 201.805 110.818 200.086 104.287C198.485 98.2056 195.161 92.7994 189.702 89.5393C186.915 87.8748 183.783 86.9252 180.509 86.6849C179.067 86.5792 177.451 86.8764 176.043 86.6662C174.729 86.4696 173.945 85.361 173.326 84.2755C170.468 79.2602 170.314 73.0506 167.574 67.94C165.1 63.3269 160.235 59.2459 154.588 60.035C152.148 60.3759 149.908 61.6236 148.09 63.2924Z" fill="#DDEFDE"/>
<path fill-rule="evenodd" clip-rule="evenodd" d="M152.117 79.5381C152.026 88.7069 156.917 96.4879 162.506 103.241C165.64 107.027 169.378 110.619 171.552 115.096C173.413 118.929 173.395 123.198 173.193 127.403C172.789 135.867 171.94 144.879 176.479 152.367C179.143 156.761 183.196 160.09 185.531 164.714C187.654 168.917 188.994 173.738 189.546 178.441C189.99 182.228 189.443 185.951 189.591 189.728C189.637 190.881 189.726 192.557 190.794 193.251C192.045 194.064 193.72 193.133 194.533 192.067C196.428 189.583 196.344 185.686 196.377 182.765C196.427 178.493 195.992 174.352 194.939 170.232C193.769 165.657 192.105 161.196 189.506 157.259C186.81 153.175 183.091 149.763 181.286 145.117C178.247 137.299 180.617 128.816 180.459 120.669C180.261 110.518 173.107 104.303 166.26 97.9536C162.497 94.464 158.286 90.4882 157.017 85.2881C156.533 83.303 157.029 80.572 155.963 78.7952C154.986 77.1674 152.139 77.2509 152.117 79.5381Z" fill="#A2E9A5" fill-opacity="0.53"/>
<g opacity="0.76" filter="url(#filter0_f)">
<circle cx="111" cy="30" r="13" fill="#E03056"/>
</g>
<circle cx="15.5" cy="105.5" r="15.5" fill="#E03056"/>
<g opacity="0.82" filter="url(#filter1_f)">
<circle cx="76.5" cy="210.5" r="11.5" fill="#E03056"/>
</g>
<g opacity="0.61" filter="url(#filter2_f)">
<circle cx="30.5" cy="16.5" r="6.5" fill="#E03056"/>
</g>
<defs>
<filter id="filter0_f" x="94" y="13" width="34" height="34" filterUnits="userSpaceOnUse" color-interpolation-filters="sRGB">
<feFlood flood-opacity="0" result="BackgroundImageFix"/>
<feBlend mode="normal" in="SourceGraphic" in2="BackgroundImageFix" result="shape"/>
<feGaussianBlur stdDeviation="2" result="effect1_foregroundBlur"/>
</filter>
<filter id="filter1_f" x="59" y="193" width="35" height="35" filterUnits="userSpaceOnUse" color-interpolation-filters="sRGB">
<feFlood flood-opacity="0" result="BackgroundImageFix"/>
<feBlend mode="normal" in="SourceGraphic" in2="BackgroundImageFix" result="shape"/>
<feGaussianBlur stdDeviation="3" result="effect1_foregroundBlur"/>
</filter>
<filter id="filter2_f" x="14" y="0" width="33" height="33" filterUnits="userSpaceOnUse" color-interpolation-filters="sRGB">
<feFlood flood-opacity="0" result="BackgroundImageFix"/>
<feBlend mode="normal" in="SourceGraphic" in2="BackgroundImageFix" result="shape"/>
<feGaussianBlur stdDeviation="5" result="effect1_foregroundBlur"/>
</filter>
</defs>
</svg>
