<svg width="133" height="196" viewBox="0 0 133 196" fill="none" xmlns="http://www.w3.org/2000/svg">
<path opacity="0.46" fill-rule="evenodd" clip-rule="evenodd" d="M125.6 116.103C107.201 102.884 87.2649 88.7571 71.8369 78.3376C39.0557 56.1954 10.0678 43.7814 1.98275 40.5056C13.5411 40.9626 62.1286 44.4481 101.614 71.0082C109.32 76.192 116.579 82.0477 123.341 88.1851L122.671 88.294L122.677 88.3302C122.78 88.9576 124.212 97.6094 124.905 105.529C125.359 110.721 125.533 114.231 125.6 116.103ZM96.2535 139.612C118.408 149.604 144.792 155.686 175.823 154.32C168.243 148.743 112.81 108.038 76.4596 83.1869C74.0495 82.972 63.7457 82.1861 51.0039 83.0117C38.0012 83.8568 29.8872 85.7534 28.2732 86.1582C40.7348 101.437 57.508 117.821 79.1788 130.721L107.113 124.72C107.113 124.72 99.8762 134.867 96.2535 139.612ZM176.077 152.351C171.399 144.566 152.332 114.261 124.385 88.6289C124.783 91.1079 125.905 98.3851 126.492 105.07C127.061 111.526 127.193 115.414 127.229 116.797C150.158 133.298 170.37 148.15 176.077 152.351ZM51.0064 81.6405C61.2288 80.973 69.9001 81.3364 74.2465 81.6224C73.1774 80.8953 72.1205 80.1806 71.0921 79.4866C36.001 55.8414 5.29002 43.3642 0.0530874 41.3137C2.0993 45.9433 10.8903 64.6383 27.8411 85.5654L27.6645 84.9217C27.665 84.9216 27.6687 84.9206 27.6756 84.9188C28.0255 84.827 36.5871 82.5794 51.0064 81.6405Z" fill="#81C784"/>
</svg>
