<svg width="42" height="42" viewBox="0 0 42 42" fill="none" xmlns="http://www.w3.org/2000/svg">
<circle cx="21" cy="21" r="20.5" stroke="#339F61"/>
<path d="M23.765 30.1998C21.285 30.1998 17.385 29.3798 16.425 28.6998C16.205 28.5398 16.085 28.2998 16.085 28.0398V20.2198C16.085 19.9798 16.205 19.7398 16.385 19.5998C16.445 19.5598 17.845 18.4598 19.305 17.6398C21.125 16.6398 22.385 15.2398 22.685 14.3598C23.045 13.2798 23.565 11.7998 25.205 11.7998C25.985 11.7998 26.625 12.2398 26.965 12.9998C27.645 14.5598 26.925 16.7198 25.725 18.4198C26.525 18.5998 27.525 18.8598 28.125 19.0398C29.225 19.3798 29.945 20.1798 30.105 21.1598C30.245 22.1598 29.745 23.1798 28.685 23.9598C27.905 26.0598 26.565 29.3798 25.585 29.9198C25.205 30.1198 24.545 30.1998 23.765 30.1998ZM17.685 27.5598C19.205 28.1998 23.885 28.8598 24.765 28.5198C25.225 28.0998 26.405 25.4198 27.225 23.1598C27.285 22.9998 27.385 22.8598 27.525 22.7598C28.185 22.3198 28.525 21.7998 28.465 21.3598C28.405 20.9998 28.085 20.6998 27.605 20.5398C26.605 20.2198 24.125 19.6798 24.085 19.6798C23.805 19.6198 23.585 19.4198 23.485 19.1398C23.385 18.8598 23.465 18.5598 23.665 18.3598C25.465 16.4198 25.785 14.4398 25.445 13.6398C25.345 13.3998 25.225 13.3998 25.165 13.3998C24.765 13.3998 24.585 13.6798 24.165 14.8798C23.685 16.2798 22.025 17.9598 20.045 19.0398C19.085 19.5598 18.125 20.2598 17.645 20.6198V27.5598H17.685ZM14.525 28.1198V20.1398C14.525 19.4198 13.945 18.8398 13.225 18.8398C12.505 18.8398 11.925 19.4198 11.925 20.1398V28.1198C11.925 28.8398 12.505 29.4198 13.225 29.4198C13.925 29.4198 14.525 28.8198 14.525 28.1198Z" fill="#339F61"/>
</svg>
