<svg width="115" height="27" viewBox="0 0 115 27" fill="none" xmlns="http://www.w3.org/2000/svg">
<path fill-rule="evenodd" clip-rule="evenodd" d="M34.8572 1.08392L35.3327 3.88754H48.9906L33.835 23.4149L34.2373 26.1834H52.8637L52.4979 23.4149H37.6696L52.9715 3.88754L52.6058 1.08392H34.8572Z" fill="#13AA57"/>
<path fill-rule="evenodd" clip-rule="evenodd" d="M68.3663 21.8278C67.4045 23.0346 66.1208 23.6371 64.5134 23.6371C62.8823 23.6371 61.6041 23.0401 60.6788 21.8462C59.7535 20.6542 59.2909 19.0962 59.2909 17.1778C59.3147 15.3574 59.8084 13.8438 60.7702 12.637C61.7321 11.432 63.0158 10.8277 64.6231 10.8277C66.2543 10.8277 67.5325 11.4265 68.4578 12.6185C69.383 13.8124 69.8457 15.3685 69.8457 17.2869C69.8201 19.1091 69.3282 20.6228 68.3663 21.8278ZM69.2806 8.98323C67.9512 8.19593 66.4005 7.80228 64.6231 7.80228C62.8201 7.80228 61.2493 8.19593 59.9107 8.98323C58.5722 9.77054 57.5372 10.8776 56.8076 12.3043C56.0761 13.7329 55.7122 15.3685 55.7122 17.2148C55.7122 19.0851 56.0633 20.7337 56.771 22.1604C57.4769 23.5872 58.4936 24.6942 59.8211 25.4834C61.1469 26.2688 62.6994 26.6643 64.4768 26.6643C66.278 26.6643 67.8543 26.2688 69.2056 25.4834C70.557 24.6942 71.5993 23.5872 72.3289 22.1604C73.0585 20.7337 73.4243 19.0962 73.4243 17.2499C73.4243 15.3815 73.0658 13.7329 72.3472 12.3043C71.6286 10.8776 70.6064 9.77054 69.2806 8.98323Z" fill="#13AA57"/>
<path fill-rule="evenodd" clip-rule="evenodd" d="M109.654 22.0255C108.692 23.2323 107.409 23.8348 105.801 23.8348C104.17 23.8348 102.892 23.2378 101.967 22.044C101.041 20.8519 100.579 19.2939 100.579 17.3756C100.602 15.5552 101.096 14.0415 102.058 12.8347C103.02 11.6297 104.304 11.0254 105.911 11.0254C107.542 11.0254 108.82 11.6242 109.746 12.8162C110.671 14.0101 111.133 15.5662 111.133 17.4846C111.108 19.3069 110.616 20.8205 109.654 22.0255ZM110.568 9.18096C109.239 8.39365 107.688 8 105.911 8C104.108 8 102.537 8.39365 101.199 9.18096C99.86 9.96826 98.825 11.0753 98.0953 12.5021C97.3639 13.9307 97 15.5663 97 17.4125C97 19.2829 97.3511 20.9314 98.0588 22.3582C98.7646 23.7849 99.7813 24.8919 101.109 25.6811C102.435 26.4666 103.987 26.8621 105.765 26.8621C107.566 26.8621 109.142 26.4666 110.493 25.6811C111.845 24.8919 112.887 23.7849 113.617 22.3582C114.346 20.9314 114.712 19.2939 114.712 17.4477C114.712 15.5792 114.354 13.9307 113.635 12.5021C112.916 11.0753 111.894 9.96826 110.568 9.18096Z" fill="#13AA57"/>
<mask id="mask0" mask-type="alpha" maskUnits="userSpaceOnUse" x="77" y="8" width="17" height="19">
<path fill-rule="evenodd" clip-rule="evenodd" d="M77.4787 8.28168H93V26.7739H77.4787V8.28168Z" fill="white"/>
</mask>
<g mask="url(#mask0)">
<path fill-rule="evenodd" clip-rule="evenodd" d="M89.4945 8.28168V20.9063C88.5437 21.7416 87.5836 22.4254 86.609 22.954C85.6343 23.4844 84.7328 23.7469 83.9063 23.7469C82.8109 23.7469 82.0502 23.4105 81.6242 22.7322C81.1981 22.0558 80.9841 21.0652 80.9841 19.7604V8.28168H77.4787V20.0931C77.4787 22.1371 77.9468 23.7598 78.8849 24.9648C79.8211 26.1716 81.2529 26.7741 83.1748 26.7741C84.3451 26.7741 85.5264 26.4969 86.7187 25.9443C87.911 25.3898 88.9825 24.6839 89.9334 23.8208L90.5533 26.1845H93V8.28168H89.4945Z" fill="#13AA57"/>
</g>
<mask id="mask1" mask-type="alpha" maskUnits="userSpaceOnUse" x="0" y="0" width="26" height="26">
<path fill-rule="evenodd" clip-rule="evenodd" d="M0 0H25.5747V25.7643H0V0Z" fill="white"/>
</mask>
<g mask="url(#mask1)">
<path fill-rule="evenodd" clip-rule="evenodd" d="M12.787 -0.000732422C5.72486 -0.000732422 -0.000549316 5.78577 -0.000549316 12.9233C-0.000549316 19.2513 4.50517 24.5092 10.4482 25.6218C9.57594 23.5186 8.73477 20.8832 8.29591 17.7709C7.98504 15.5716 7.9375 13.583 8.00881 11.8865C8.17156 12.8549 8.455 14.0488 8.96335 15.3591C9.46805 16.6602 10.0587 17.7247 10.5872 18.5434C10.5872 16.9319 10.8066 14.4221 12.019 11.6924C12.5877 10.4117 13.2496 9.36376 13.8641 8.54134C13.4051 10.1548 12.9772 12.2376 12.8784 14.6827C12.8089 16.3552 12.9059 17.8522 13.0686 19.1219C13.6044 18.6654 14.2682 18.0038 14.8826 17.0964C15.7055 15.8784 16.1078 14.7141 16.3144 13.912C16.3382 15.6899 16.2193 17.8947 15.7421 20.3768C15.3416 22.4485 14.7802 24.2542 14.2005 25.7641C20.597 25.0526 25.5745 19.5765 25.5745 12.9233C25.5745 5.78577 19.8491 -0.000732422 12.787 -0.000732422Z" fill="#339F61"/>
</g>
</svg>
