<svg width="17" height="21" viewBox="0 0 17 21" fill="none" xmlns="http://www.w3.org/2000/svg">
<path d="M16.7428 4.7748L13.3944 0.354887L13.375 0.328159C13.2605 0.14355 13.0663 0.0230898 12.8501 0.00255751C12.7785 -0.00357788 12.7064 0.00134258 12.6363 0.0171367H12.6047L7.12053 0.695067C6.74305 0.7368 6.47091 1.07668 6.51264 1.45416C6.55437 1.83163 6.89425 2.10378 7.27173 2.06205C7.27562 2.06162 7.27944 2.06113 7.28333 2.06065L11.0861 1.59412L11.6789 1.52122L11.436 2.07037L9.37787 6.93009L9.26124 7.20709L8.98423 7.13905C5.22172 6.14457 1.36541 8.38849 0.370926 12.151C-0.623555 15.9135 1.62036 19.7698 5.38288 20.7643C9.14539 21.7588 13.0017 19.5149 13.9962 15.7524C14.7977 12.7201 13.4985 9.52305 10.8091 7.90932L10.5515 7.75624L10.6681 7.47924L12.7262 2.61952L12.9692 2.07037L13.3288 2.55634L15.6445 5.60824C15.8885 5.90104 16.3236 5.94059 16.6164 5.69657C16.8904 5.46816 16.9452 5.06851 16.7428 4.7748ZM11.2148 9.97956L11.2076 9.97713C13.4181 12.2113 13.3989 15.8144 11.1647 18.0249C8.93047 20.2355 5.32735 20.2163 3.11685 17.9821C0.906346 15.7479 0.925542 12.1447 3.15974 9.93424C4.79874 8.31262 7.25417 7.84019 9.37787 8.7379C10.0659 9.02699 10.6901 9.44894 11.2148 9.97956Z" fill="#393939"/>
</svg>
