<svg width="30" height="30" viewBox="0 0 30 30" fill="none" xmlns="http://www.w3.org/2000/svg">
<g clip-path="url(#clip0)">
<path d="M12.7272 1.37285C12.6176 1.26387 12.4671 1.20117 12.3124 1.20117C12.1583 1.20117 12.0071 1.26387 11.8981 1.37285C11.7891 1.48183 11.7264 1.63301 11.7264 1.78711C11.7264 1.94121 11.7891 2.09238 11.8981 2.20136C12.0071 2.31035 12.1583 2.37304 12.3124 2.37304C12.4671 2.37304 12.6176 2.31035 12.7272 2.20136C12.8362 2.09238 12.8983 1.94121 12.8983 1.78711C12.8983 1.63301 12.8362 1.48183 12.7272 1.37285Z" fill="#A2A2A2"/>
<path d="M20.6813 10.9469L20.1958 8.48517C19.9979 7.48111 19.5102 6.5684 18.7854 5.84576L17.9554 5.01801V1.78711C17.9554 1.4635 17.6931 1.20117 17.3695 1.20117C17.0459 1.20117 16.7835 1.4635 16.7835 1.78711V5.26117C16.7835 5.41686 16.8455 5.56615 16.9557 5.67608L17.958 6.67551C18.5171 7.23308 18.8934 7.9372 19.0461 8.71181L19.5316 11.1735C19.5505 11.2696 19.5305 11.367 19.4751 11.4478C19.4197 11.5286 19.336 11.5825 19.2396 11.5995C19.053 11.6328 18.8709 11.5139 18.8256 11.3295L18.5748 10.3065C18.4864 9.94602 18.1549 9.71651 17.7864 9.76122C17.4179 9.80575 17.1505 10.1074 17.1505 10.4786V15.2446C17.1505 15.4327 16.9975 15.5858 16.8094 15.5858C16.6365 15.5858 16.4936 15.4564 16.4715 15.2895V12.8007C16.4715 12.4771 16.2092 12.2148 15.8856 12.2148C15.885 12.2148 15.8845 12.2148 15.8839 12.2148C15.8834 12.2148 15.8828 12.2148 15.8823 12.2148C15.5587 12.2148 15.2964 12.4771 15.2964 12.8007V15.2446C15.2964 15.2766 15.2977 15.3082 15.2997 15.3396V16.1202C15.2997 16.3083 15.1466 16.4613 14.9585 16.4613C14.7704 16.4613 14.6174 16.3083 14.6174 16.1202V15.3393C14.6193 15.3079 14.6207 15.2764 14.6207 15.2446V12.8007C14.6207 12.4771 14.3583 12.2148 14.0347 12.2148C14.0342 12.2148 14.0336 12.2148 14.0331 12.2148C14.0326 12.2148 14.032 12.2148 14.0315 12.2148C13.7078 12.2148 13.4455 12.4771 13.4455 12.8007V15.2893C13.4235 15.4563 13.2806 15.5858 13.1076 15.5858C12.9195 15.5858 12.7665 15.4328 12.7665 15.2447V14.3706C12.7684 14.3392 12.7698 14.3078 12.7698 14.276V12.8007C12.7698 12.4771 12.5074 12.2148 12.1838 12.2148C12.1833 12.2148 12.1827 12.2148 12.1822 12.2148C12.1817 12.2148 12.1811 12.2148 12.1805 12.2148C11.8569 12.2148 11.5946 12.4771 11.5946 12.8007V14.3206C11.5726 14.4876 11.4297 14.6171 11.2567 14.6171C11.0686 14.6171 10.9156 14.464 10.9156 14.276V12.2234V10.8328V9.12395C10.9156 8.06493 11.3285 7.06984 12.0785 6.32207L12.7263 5.67613C12.8365 5.56621 12.8985 5.41692 12.8985 5.26123V3.87661C12.8985 3.553 12.6362 3.29068 12.3126 3.29068C11.9889 3.29068 11.7266 3.553 11.7266 3.87661V5.01801L11.251 5.49221C10.279 6.46146 9.7437 7.75122 9.7437 9.12389V10.8327V12.2233V14.2759C9.7437 15.1102 10.4224 15.7889 11.2567 15.7889C11.4017 15.7889 11.5419 15.768 11.6748 15.7297C11.8774 16.3267 12.4429 16.7576 13.1076 16.7576C13.264 16.7576 13.4149 16.7337 13.557 16.6894C13.7824 17.2423 14.3255 17.6331 14.9584 17.6331C15.5913 17.6331 16.1346 17.2424 16.36 16.6895C16.502 16.7338 16.653 16.7576 16.8094 16.7576C17.6437 16.7576 18.3224 16.0789 18.3224 15.2446V12.5152C18.6412 12.7294 19.0394 12.8247 19.4432 12.7536C19.8523 12.6815 20.2069 12.453 20.4418 12.1103C20.6766 11.7676 20.7616 11.3544 20.6813 10.9469Z" fill="#A2A2A2"/>
<path d="M14.5941 22.8044C14.5223 22.6801 14.4346 22.5686 14.3342 22.4715C14.7496 21.9973 14.8399 21.2924 14.5077 20.717C14.4297 20.5818 14.3337 20.4632 14.2246 20.3625C14.3473 20.2049 14.4384 20.023 14.4916 19.8244C14.5962 19.434 14.5426 19.0263 14.3405 18.6763C14.0241 18.1282 13.4142 17.8533 12.8228 17.9344C12.7896 17.7877 12.7341 17.6452 12.6567 17.5112C12.4547 17.1612 12.1284 16.9108 11.738 16.8062C11.3476 16.7016 10.9399 16.7553 10.5899 16.9574L8.22612 18.3221C8.2522 17.9389 8.13583 17.5465 7.87228 17.2324C7.60521 16.9141 7.23003 16.7212 6.81583 16.6892C6.40187 16.6575 6.00127 16.7901 5.68844 17.0635L3.79926 18.7148C3.0287 19.3883 2.48214 20.267 2.21864 21.2559L1.91689 22.3886L0.293086 23.3261C0.0128327 23.4879 -0.0832021 23.8463 0.0786333 24.1265C0.187148 24.3145 0.384081 24.4196 0.58658 24.4195C0.685955 24.4195 0.786736 24.3942 0.879021 24.341L2.71347 23.2818C2.84829 23.204 2.94661 23.0757 2.98669 22.9253L3.35108 21.5575C3.55434 20.7946 3.97604 20.1167 4.57053 19.5971L6.4597 17.9458C6.53347 17.8813 6.62769 17.85 6.72554 17.8575C6.82322 17.8651 6.91163 17.9106 6.97462 17.9856C7.09667 18.131 7.08484 18.3478 6.94779 18.4791L6.18724 19.2079C5.91924 19.4646 5.88642 19.8664 6.1092 20.1633C6.33203 20.4602 6.72701 20.541 7.04839 20.3553L11.1759 17.9723C11.2548 17.9267 11.3467 17.9147 11.4348 17.9382C11.5228 17.9618 11.5964 18.0183 11.6419 18.0972C11.6875 18.1761 11.6996 18.268 11.676 18.356C11.6554 18.4331 11.6084 18.4978 11.5443 18.5437L9.39887 19.7823C9.11862 19.9441 9.02258 20.3025 9.18442 20.5827C9.18471 20.5832 9.185 20.5836 9.1853 20.5841C9.18559 20.5845 9.18577 20.5851 9.18606 20.5855C9.34784 20.8658 9.70614 20.9618 9.98645 20.8L12.103 19.578C12.1306 19.5621 12.1573 19.5451 12.1836 19.5277L12.8596 19.1374C13.0225 19.0434 13.2316 19.0994 13.3257 19.2623C13.4197 19.4252 13.3637 19.6343 13.2008 19.7284L12.5245 20.1188C12.4964 20.1328 12.4685 20.1474 12.4409 20.1633L10.3244 21.3853C10.0441 21.547 9.94807 21.9054 10.1099 22.1857C10.1319 22.2236 10.1587 22.2593 10.1885 22.2914C10.3009 22.4138 10.458 22.4816 10.6195 22.4816C10.7189 22.4816 10.8196 22.4562 10.9119 22.403L13.0671 21.1587C13.2227 21.0942 13.4063 21.1532 13.4929 21.303C13.5869 21.4659 13.5309 21.675 13.368 21.7691L12.6113 22.2059C12.5831 22.22 12.555 22.2347 12.5274 22.2506L11.2498 22.9882C10.9695 23.15 10.8735 23.5084 11.0353 23.7886C11.1396 23.9684 11.3367 24.0845 11.5449 24.0845C11.6443 24.0845 11.7451 24.0592 11.8374 24.0059L13.1538 23.2459C13.2228 23.2172 13.2988 23.2117 13.3722 23.2314C13.4602 23.255 13.5338 23.3114 13.5793 23.3903C13.6734 23.5532 13.6174 23.7623 13.4545 23.8564L11.5766 24.9406L8.9927 26.4324C8.07554 26.9619 7.00726 27.1017 5.98474 26.8262L5.10145 26.5881C4.95104 26.5476 4.79084 26.5686 4.65602 26.6465L2.82157 27.7056C2.54132 27.8674 2.44528 28.2258 2.60712 28.506C2.71563 28.694 2.91257 28.7991 3.11507 28.7991C3.21444 28.7991 3.31522 28.7737 3.40751 28.7205L5.03131 27.783L5.67976 27.9578C7.00509 28.3148 8.38977 28.1336 9.57858 27.4473L11.0584 26.5929C11.0584 26.5929 11.0584 26.5929 11.0584 26.5929L12.1625 25.9554L12.2627 25.8976L14.0404 24.8712C14.7629 24.4541 15.0113 23.5269 14.5941 22.8044Z" fill="#A2A2A2"/>
<path d="M29.7069 23.326L28.0831 22.3885L27.9102 21.7395C27.5568 20.4131 26.7075 19.3046 25.5188 18.6182L22.9349 17.1264L21.057 16.0422C20.7069 15.8401 20.2992 15.7865 19.9089 15.8911C19.5186 15.9957 19.1922 16.246 18.9902 16.596C18.9178 16.7214 18.8659 16.8531 18.8327 16.987C18.6074 16.9418 18.373 16.9483 18.1445 17.0096C17.7542 17.1142 17.4279 17.3646 17.2258 17.7146C17.1485 17.8486 17.0931 17.9911 17.0598 18.1377C16.4684 18.0567 15.8586 18.3317 15.5422 18.8796C15.2258 19.4277 15.2926 20.0933 15.6585 20.5649C15.5481 20.6671 15.4523 20.7863 15.375 20.9203C14.9579 21.6428 15.2063 22.57 15.9288 22.9872L18.2925 24.3519C17.9477 24.521 17.6659 24.818 17.5257 25.2032C17.3836 25.5936 17.4041 26.015 17.5834 26.3897C17.7629 26.7645 18.0781 27.0448 18.4713 27.1789L20.8459 27.9894C21.8145 28.32 22.8488 28.354 23.8369 28.0877L24.9688 27.7827L26.5926 28.7202C26.6848 28.7734 26.7856 28.7988 26.885 28.7988C27.0875 28.7988 27.2844 28.6937 27.3929 28.5057C27.5548 28.2255 27.4587 27.8671 27.1785 27.7053L25.344 26.6462C25.2092 26.5683 25.049 26.5473 24.8986 26.5879L23.532 26.9562C22.7697 27.1617 21.9717 27.1354 21.2244 26.8803L18.8498 26.0699C18.7571 26.0382 18.6827 25.9721 18.6404 25.8838C18.5981 25.7954 18.5933 25.6961 18.6268 25.604C18.6917 25.4256 18.8854 25.3276 19.0676 25.3805L20.079 25.6748C20.4354 25.7787 20.7998 25.6061 20.9455 25.2647C21.0911 24.9233 20.9636 24.5409 20.6422 24.3553L16.5147 21.9723C16.3518 21.8783 16.2958 21.6692 16.3898 21.5063C16.4354 21.4273 16.509 21.3709 16.597 21.3473C16.6704 21.3276 16.7464 21.3331 16.8153 21.3618L18.9708 22.6062C19.063 22.6594 19.1638 22.6848 19.2632 22.6848C19.4245 22.6848 19.5815 22.6171 19.6939 22.495C19.7239 22.4627 19.7508 22.4269 19.7729 22.3889C19.9347 22.1086 19.8387 21.7502 19.5584 21.5885L17.4419 20.3665C17.4142 20.3506 17.3861 20.3359 17.3578 20.3217L16.6819 19.9316C16.519 19.8375 16.463 19.6285 16.5571 19.4655C16.6026 19.3866 16.6762 19.3302 16.7642 19.3065C16.8523 19.283 16.9442 19.2951 17.0231 19.3406L17.699 19.7309C17.7254 19.7484 17.7521 19.7653 17.7797 19.7813L19.8962 21.0032C19.9885 21.0565 20.0892 21.0819 20.1886 21.0818C20.35 21.0818 20.507 21.0141 20.6194 20.8919C20.6494 20.8597 20.6761 20.8239 20.6983 20.7859C20.8601 20.5057 20.7641 20.1473 20.4838 19.9855L18.3383 18.7468C18.2743 18.701 18.2273 18.6362 18.2066 18.5592C18.1831 18.4712 18.1952 18.3792 18.2407 18.3003C18.2863 18.2214 18.3599 18.1649 18.4479 18.1414C18.5359 18.1178 18.6279 18.1299 18.7068 18.1755L19.4638 18.6125C19.4899 18.6298 19.5166 18.6467 19.5441 18.6627L20.8217 19.4003C20.914 19.4536 21.0147 19.4789 21.1142 19.4789C21.2755 19.4789 21.4326 19.4112 21.5449 19.289C21.5748 19.2567 21.6016 19.221 21.6238 19.183C21.7856 18.9027 21.6896 18.5444 21.4093 18.3826L20.0931 17.6226C19.9594 17.5201 19.9187 17.3315 20.0052 17.1818C20.0508 17.1028 20.1243 17.0464 20.2123 17.0228C20.3004 16.9993 20.3922 17.0113 20.4712 17.0569L22.2488 18.0832L22.349 18.1411L23.4531 18.7786C23.4531 18.7786 23.4532 18.7786 23.4532 18.7786L24.933 19.633C25.8501 20.1625 26.5053 21.0177 26.7779 22.041L27.0135 22.925C27.0536 23.0754 27.1519 23.2037 27.2867 23.2815L29.1212 24.3407C29.2134 24.3939 29.3142 24.4192 29.4136 24.4192C29.6161 24.4192 29.813 24.3142 29.9216 24.1262C30.0832 23.8462 29.9872 23.4878 29.7069 23.326Z" fill="#A2A2A2"/>
</g>
<defs>
<clipPath id="clip0">
<rect width="30" height="30" fill="white"/>
</clipPath>
</defs>
</svg>
