<svg width="64" height="99" viewBox="0 0 64 99" fill="none" xmlns="http://www.w3.org/2000/svg">
<path opacity="0.5" fill-rule="evenodd" clip-rule="evenodd" d="M54.5287 45.5463C54.0492 44.0461 53.4025 42.5929 52.4401 41.3226C52.1967 41.0016 50.3245 38.7376 50.0509 38.9153C49.4138 39.3291 54.3938 45.076 54.5287 45.5463ZM69.1975 43.8582C69.1689 43.8987 69.3431 45.7027 69.3672 46.2436C69.4192 47.3939 69.4256 48.545 69.4049 49.6854C69.5615 47.7269 69.6447 45.8816 69.1975 43.8582ZM5.5098 28.1856C4.58603 28.0698 4.09574 26.6001 5.2546 26.8347C6.19152 27.0262 6.17234 26.9594 6.86742 26.4569C7.43185 26.0488 7.93474 25.4646 8.47422 25.0118C9.61851 24.0513 10.8131 23.1835 12.121 22.4582C14.9243 20.9032 17.9489 19.8472 21.0777 19.2278C26.5379 18.1471 32.3723 17.5528 37.8524 18.4427C46.5659 19.8576 55.3916 23.8088 62.3998 28.9126C66.7402 32.0732 70.3479 35.7318 71.7262 41.0559C72.4153 43.7166 72.6097 46.5481 71.9977 49.2807C71.8375 49.995 71.475 50.7031 71.3568 51.4204C71.1751 52.5232 71.1757 52.2073 72.2281 52.9291C73.3773 53.717 74.5233 54.5089 75.6674 55.3042C78.6626 57.3869 81.6608 59.5132 84.4089 61.9081C85.3136 62.696 86.164 63.5402 86.9629 64.433C87.5674 65.1079 90.1011 67.5235 90.009 68.6746C89.8562 70.5901 88.1637 68.9003 87.6963 68.2498C87.2869 67.6798 86.8529 67.1239 86.3999 66.5872C85.2593 65.2358 83.9866 64.0086 82.6301 62.8717C81.1644 61.6429 79.6114 60.5117 78.0653 59.3831C76.6231 58.3309 75.1621 57.3041 73.6931 56.2889C72.8771 55.7247 72.0583 55.1646 71.2396 54.6045C70.9599 54.4131 70.5477 53.9015 70.4045 54.3144C68.707 53.0853 66.666 52.1968 64.8125 51.2118C62.5421 50.0056 60.2531 48.8171 57.8845 47.8013C56.1762 47.0688 54.4394 46.3934 52.6587 45.8386C51.6181 45.5145 50.5646 45.2587 49.49 45.0558C48.8997 44.9445 46.6863 44.2598 46.1844 44.5857C46.4001 44.4457 48.6067 45.7078 48.9041 45.8328C50.0935 46.334 51.3072 46.759 52.5325 47.1719C54.8062 47.9381 57.0271 48.8201 59.1862 49.8493C59.0006 50.2259 57.2037 50.2134 56.7247 50.2969C55.6504 50.4848 54.5864 50.7399 53.5467 51.0789C51.7151 51.6759 49.4991 52.4403 47.9581 53.4411C48.4123 53.1461 49.9477 53.2027 50.5513 53.0971C51.5183 52.9275 52.4863 52.7171 53.4334 52.4512C54.3077 52.2056 55.1604 51.8977 56.0091 51.5728C56.858 51.2475 58.2095 50.3784 59.1459 50.3349C59.2025 50.3322 59.4097 50.7444 59.6371 50.7431C59.8663 50.7419 60.3073 50.4072 60.3635 50.4113C61.19 50.4676 62.3637 51.4242 63.0843 51.8017C64.9532 52.7801 66.8075 53.785 68.6671 54.7799C69.2433 55.088 69.8083 55.1879 69.8284 55.7281C69.8494 56.3042 68.8433 57.3235 68.483 57.7724C67.1455 59.4395 65.5415 60.7456 63.5752 61.6034C59.8927 63.2106 56.0729 63.6457 52.1488 63.2984C37.1184 61.9683 22.5707 57.4592 11.981 46.6153C7.59697 42.1257 1.2576 34.8003 5.5098 28.1856Z" fill="#81C784"/>
</svg>
