<svg width="109" height="153" viewBox="0 0 109 153" fill="none" xmlns="http://www.w3.org/2000/svg">
<g opacity="0.69">
<path fill-rule="evenodd" clip-rule="evenodd" d="M74.8191 16.5959C77.1512 18.2829 79.3 20.4495 80.4719 23.091C82.9636 28.7081 79.5582 34.7311 75.7775 38.6854C71.7081 42.9413 66.422 46.808 66.444 53.3047C66.4539 56.2914 67.1768 59.2419 67.1324 62.2327C67.0848 65.4287 66.4666 68.5616 65.3923 71.5444C63.4186 77.0228 59.9513 82.4002 54.5963 85.0946C49.8815 87.4667 43.453 87.5884 40.3556 92.3896C37.1243 97.3981 38.3676 104.679 38.0789 110.378C37.7521 116.827 36.2479 124.06 32.2916 129.24C28.5004 134.203 22.2544 136.982 16.0385 137.621C3.61851 138.898 -8.57531 133.85 -17.6911 125.34C-21.5612 121.726 -25.7884 117.468 -27.182 112.256C-27.6127 110.645 -27.4811 109.408 -27.1544 107.824C-26.8613 106.403 -27.0404 105.135 -27.286 103.708C-27.8259 100.575 -27.3947 97.4284 -26.2684 94.5046C-21.893 83.149 -9.72967 75.3743 1.73947 72.3385C4.45691 71.6195 6.91404 70.7808 8.30839 68.2093C9.76411 65.5251 10.2099 62.2982 10.7286 59.3101C11.2415 56.3572 11.5061 53.3312 12.4193 50.4718C13.3763 47.4766 15.1287 45.0375 17.4219 42.9173C21.7296 38.9349 27.2387 36.6854 33.0381 35.6528C38.6241 34.658 44.5127 34.2114 48.5613 29.8683C52.8525 25.2654 53.6075 18.3249 59.2649 14.8482C61.6074 13.4085 64.5406 12.4237 67.3666 12.8818C70.077 13.3212 72.6257 15.0094 74.8191 16.5959Z" fill="#C3E4C5"/>
<path fill-rule="evenodd" clip-rule="evenodd" d="M66.6032 22.6944C67.2177 22.1118 68.291 22.4172 68.7141 23.1116C69.271 24.0256 68.5957 24.7231 67.9871 25.338C66.1164 27.2284 64.6373 29.3803 63.3457 31.7009C60.6598 36.5253 59.0793 41.8011 56.9851 46.8868C54.8927 51.9682 51.9377 56.4762 47.4025 59.6959C43.1266 62.7318 38.4957 65.2561 34.1971 68.2797C30.4084 70.9447 26.4063 73.7488 24.4015 78.0559C22.4714 82.2014 22.3401 86.9163 21.3059 91.3225C19.1651 100.444 14.5268 108.459 8.40311 115.453C5.55934 118.7 2.51087 121.812 -1.097 124.236C-3.17425 125.632 -5.97838 127.521 -8.64029 127.344C-9.86779 127.262 -11.2466 126.347 -11.0531 124.959C-10.8722 123.656 -9.2518 122.884 -8.29451 122.206C-4.15025 119.271 -0.538624 115.691 2.71603 111.824C5.86873 108.079 8.7723 104.113 10.8336 99.6533C12.7463 95.5146 13.8201 91.1985 14.5459 86.6975C15.2857 82.1108 15.9563 77.4485 18.2916 73.3694C20.6631 69.2262 24.5284 66.3599 28.4951 63.8205C32.6906 61.1342 37.0744 58.8119 41.5037 56.5215C45.82 54.2897 49.192 51.5165 51.7862 47.3933C56.9115 39.2475 59.4419 29.4824 66.6032 22.6944Z" fill="#9BD39E"/>
</g>
</svg>
