<svg width="210" height="184" viewBox="0 0 210 184" fill="none" xmlns="http://www.w3.org/2000/svg">
<path fill-rule="evenodd" clip-rule="evenodd" d="M102.284 0.687039C105.85 -0.0889082 109.787 -0.0295209 113.42 0.0344894C132.9 0.298354 152.03 9.4849 164.48 24.1635C175.079 36.6598 177.993 52.1961 180.087 67.9014C180.294 69.4608 180.383 71.0102 180.501 72.5727C180.526 72.9081 180.563 73.2071 180.603 73.4888C181.427 74.2221 181.859 75.077 181.371 76.0161C183.185 79.9702 184.72 84.0245 186.037 88.2062C189.912 100.515 193.854 113.057 191.426 126C190.859 118.877 189.665 111.594 188.238 104.589C188.156 104.186 188.067 103.787 187.975 103.39C187.965 103.348 187.957 103.306 187.947 103.264C187.442 101.119 186.785 99.0378 185.986 96.9895C185.978 96.9671 185.97 96.945 185.961 96.923C185.856 96.6534 185.744 96.3853 185.633 96.1171C185.404 95.562 185.169 95.008 184.92 94.4568C184.836 94.269 184.755 94.0795 184.677 93.8885C183.515 91.05 183.023 87.8516 181.982 84.9146C181.733 84.2468 181.472 83.5814 181.199 82.9196C181.183 82.8809 181.167 82.8421 181.15 82.8034C180.413 81.0225 179.598 79.2632 178.736 77.5225C178.267 77.1719 178.017 76.302 177.613 75.5115C177.53 75.3558 176.877 74.317 176.682 73.7185C176.175 72.7406 175.669 71.7623 175.158 70.7861C175.173 70.7918 175.188 70.7975 175.204 70.8032C174.692 69.8658 174.179 68.9323 173.67 68.0028C173.558 67.7986 173.445 67.5942 173.332 67.3893C173.15 67.0632 172.967 66.7375 172.784 66.4125C171.078 63.3709 169.269 60.3902 167.39 57.4464C166.719 56.3959 165.117 54.8895 164.81 53.71C164.799 53.6659 164.796 53.6253 164.789 53.583C160.712 47.8793 156.018 42.6184 150.39 38.4499C151.07 39.1825 152.516 41.6686 152.899 42.1607C154.069 43.6678 155.339 45.0707 156.614 46.4907C158.898 49.0344 161.127 51.6588 163.108 54.434C166.731 59.5093 169.857 64.8506 172.811 70.2993C172.84 70.3313 172.87 70.3615 172.897 70.3943C174.382 72.2175 175.316 74.9731 176.385 77.0588C172.155 75.1072 167.477 73.8359 163.136 72.103C158.806 70.3754 154.594 68.4515 150.528 66.1923C145.124 63.1899 139.518 59.7998 134.411 55.9635C128.559 52.348 123.642 47.3715 119.301 42.1494C114.166 35.9706 109.459 29.7378 106.549 22.2354C105.119 18.5488 103.994 14.7046 103.327 10.8156C103.298 10.646 103.261 10.4621 103.22 10.2712C102.538 8.92801 101.928 7.55463 101.416 6.14961C100.603 3.92134 98.6834 1.4701 102.284 0.687039Z" fill="#6DBF71" fill-opacity="0.64"/>
<path fill-rule="evenodd" clip-rule="evenodd" d="M0.303909 90.0964C-0.483139 92.6916 0.173431 94.9754 3.27875 94.3316C4.20967 94.1387 5.17134 93.8298 6.09091 93.5696C11.2019 92.1233 16.2664 90.5345 21.4034 89.1805C31.2863 86.5759 41.3153 85.3149 51.4406 84.1464C59.4127 83.2267 67.4437 82.6724 75.4396 83.0256C85.2929 83.4611 94.9067 85.3769 104.447 87.5816C114.264 89.8511 124.344 92.6598 133.806 96.33C144.569 100.504 154.489 105.66 164.331 111.623C188.652 126.356 210.273 144.758 229.184 165.888C231.906 168.93 234.617 171.982 237.323 175.038C239.362 177.341 241.284 179.744 243.309 182.055C244.986 183.969 246.949 182.878 245.658 180.636C244.175 178.061 241.632 175.748 239.699 173.516C237.974 171.525 236.247 169.535 234.521 167.544C232.497 165.21 230.461 162.889 228.384 160.603C218.718 149.969 208.348 139.892 197.416 130.544C189.113 123.444 180.147 117.227 170.947 111.313C160.375 104.517 149.151 97.4083 137.049 93.3854C136.93 93.208 136.777 93.0264 136.606 92.8444C138.958 90.7214 131.743 83.5732 130.441 82.1791C127.135 78.6387 123.499 75.3434 119.773 72.245C116.716 69.7027 113.447 67.4844 109.868 65.713C104.564 63.0888 98.8112 61.5262 92.9588 60.5141C82.82 58.7612 72.1752 57.8114 61.8327 58.6708C42.9577 60.2389 24.3715 66.0808 9.38748 78.2062C5.55115 81.3107 1.74936 85.3298 0.303909 90.0964Z" fill="#81C784" fill-opacity="0.42"/>
<path fill-rule="evenodd" clip-rule="evenodd" d="M150.207 110C142.363 110 135.383 111.02 128.156 114.14C121.918 116.833 116.232 120.398 110.712 124.279C102.948 129.738 96.8323 136.091 92.5514 144.508C89.9939 149.537 88.1178 156.653 89.8354 162.138C91.8586 168.598 97.4139 173.986 104.73 172.847C109.255 172.144 113.402 169.146 116.841 166.325C120.954 162.95 124.247 158.891 126.966 154.384C131.402 147.031 134.008 138.718 137.776 131.035C139.564 127.389 141.291 123.716 143.433 120.25C144.493 118.534 145.621 116.834 147.23 115.559C148.09 114.877 151.718 113.696 150.331 112.164C170.671 112.431 188.691 128.068 192.596 147.423C192.96 149.227 193.244 151.045 193.544 152.861C193.734 154.007 193.657 158.233 194.681 158.965C196.939 160.581 195.99 155.674 195.893 154.968C195.642 153.142 195.375 151.317 195.095 149.496C193.57 139.591 189.164 130.382 181.817 123.317C173.415 115.239 162.078 110 150.207 110Z" fill="#6AB26D" fill-opacity="0.67"/>
<circle cx="156" cy="136" r="10" fill="#E03056"/>
<circle cx="125.5" cy="50.5" r="12.5" fill="#E03056"/>
<circle cx="75" cy="96" r="6" fill="#E03056"/>
</svg>
