<svg width="139" height="165" viewBox="0 0 139 165" fill="none" xmlns="http://www.w3.org/2000/svg">
<path fill-rule="evenodd" clip-rule="evenodd" d="M15.1573 80.7072C15.2373 78.5961 15.8392 76.3974 16.3997 74.3704C19.3611 63.4879 27.2737 54.0908 37.3005 49.2315C45.8364 45.0947 54.9669 45.7047 64.0735 46.7991C64.9776 46.908 65.8591 47.0818 66.7519 47.2418C66.9436 47.2762 67.1167 47.2983 67.2803 47.3165C67.8103 46.9607 68.352 46.842 68.8081 47.2509C71.2866 46.8051 73.7811 46.5304 76.3154 46.3962C83.7751 46.0013 91.3757 45.6028 98.2806 48.8334C94.2058 48.1228 89.9505 47.7399 85.8171 47.5282C85.5798 47.5162 85.3433 47.5082 85.1071 47.5026C85.0822 47.5018 85.0574 47.5007 85.0327 47.5C83.7571 47.4734 82.4956 47.541 81.232 47.6929C81.2182 47.6944 81.2047 47.6957 81.1911 47.6974C81.0247 47.7176 80.8582 47.7416 80.692 47.7649C80.3477 47.813 80.0032 47.8647 79.6582 47.9247C79.5408 47.9449 79.4228 47.9629 79.3046 47.9789C77.5454 48.2208 75.6815 48.0342 73.8846 48.1939C73.4742 48.2372 73.0636 48.2871 72.6532 48.3445C72.6292 48.3479 72.6051 48.3515 72.581 48.3551C71.4761 48.5115 70.3722 48.7143 69.2719 48.946C69.0076 49.158 68.4839 49.1727 67.9824 49.2849C67.883 49.3092 67.2064 49.5253 66.8428 49.5479C66.2213 49.6912 65.5998 49.8334 64.9788 49.9789C64.9842 49.9712 64.9896 49.9634 64.995 49.9556C64.3956 50.107 63.7982 50.2597 63.2036 50.4108C63.073 50.4441 62.942 50.478 62.8109 50.5116C62.6017 50.567 62.3927 50.6224 62.1842 50.6777C60.2327 51.195 58.3004 51.7788 56.3788 52.407C55.693 52.6312 54.6172 53.3117 53.9116 53.3136C53.8852 53.3135 53.8621 53.3091 53.8374 53.3069C50.0512 54.7687 46.4241 56.6402 43.2743 59.1936C43.7832 58.918 45.3858 58.4663 45.7169 58.323C46.7308 57.8847 47.7007 57.3752 48.6809 56.8654C50.4366 55.9527 52.2299 55.0818 54.0717 54.372C57.4401 53.0741 60.8858 52.0933 64.367 51.2239C64.389 51.2128 64.4104 51.2 64.4326 51.1898C65.6691 50.6207 67.3489 50.4946 68.6725 50.1966C66.9675 52.2862 65.5792 54.7249 63.9807 56.9085C62.387 59.0861 60.7002 61.1694 58.8465 63.1226C56.3828 65.7186 53.6727 68.3718 50.7846 70.6803C47.9126 73.4386 44.4127 75.4765 40.8583 77.1556C36.6529 79.1421 32.4791 80.8804 27.853 81.4286C25.5798 81.6977 23.2623 81.7731 20.9859 81.5853C20.8866 81.5772 20.7781 81.5715 20.6652 81.5666C19.8138 81.7551 18.9558 81.8987 18.0942 81.9827C16.7276 82.1166 15.0762 82.8388 15.1573 80.7072Z" fill="#6DBF71" fill-opacity="0.64"/>
<path fill-rule="evenodd" clip-rule="evenodd" d="M50.5508 150.789C51.892 151.605 53.2671 151.567 53.3547 149.733C53.381 149.183 53.3467 148.6 53.3336 148.046C53.261 144.972 53.1018 141.904 53.0846 138.829C53.0519 132.912 53.7934 127.108 54.6007 121.263C55.2364 116.661 56.0855 112.079 57.4384 107.648C59.1055 102.187 61.568 97.074 64.1818 92.0442C66.8718 86.8689 69.9021 81.6236 73.3262 76.8492C77.2204 71.4189 81.5437 66.6024 86.3075 61.946C98.0796 50.4396 111.518 40.9768 126.094 33.4272C128.193 32.3406 130.296 31.2619 132.4 30.186C133.985 29.3756 135.609 28.6451 137.198 27.8437C138.513 27.1802 138.185 25.9223 136.741 26.3223C135.084 26.7813 133.42 27.8729 131.889 28.6342C130.524 29.3137 129.159 29.9944 127.793 30.6745C126.193 31.4722 124.598 32.2781 123.016 33.1124C115.659 36.9952 108.512 41.3533 101.693 46.1316C96.5134 49.7609 91.7335 53.8889 87.0896 58.1922C81.753 63.1377 76.1467 68.403 72.1438 74.6062C72.0272 74.6473 71.9033 74.7066 71.7766 74.7761C70.9261 73.1511 65.8768 76.1637 64.9073 76.6921C62.4452 78.0339 60.0727 79.5962 57.7977 81.2376C55.9309 82.5844 54.2153 84.0965 52.7053 85.8471C50.4683 88.4411 48.7614 91.4407 47.3489 94.5753C44.9019 100.006 42.8321 105.836 41.8202 111.758C39.9732 122.566 40.5638 133.829 45.1972 143.98C46.3835 146.579 48.0875 149.29 50.5508 150.789Z" fill="#81C784" fill-opacity="0.42"/>
<path fill-rule="evenodd" clip-rule="evenodd" d="M83.3583 69.6295C82.2255 74.0267 81.7893 78.0868 82.4946 82.5889C83.1032 86.4751 84.2806 90.1771 85.6591 93.832C87.5977 98.973 90.2759 103.319 94.3764 106.934C96.8261 109.094 100.544 111.174 103.867 111.003C107.781 110.802 111.603 108.466 112.022 104.2C112.281 101.562 111.2 98.804 110.115 96.4688C108.817 93.6753 107.017 91.2432 104.883 89.068C101.401 85.5196 97.1181 82.8581 93.355 79.6362C91.569 78.1073 89.7596 76.6084 88.1261 74.9074C87.3171 74.0653 86.5272 73.1871 86.0445 72.1014C85.7864 71.5205 85.6484 69.3163 84.5892 69.8727C87.6768 58.5084 99.045 50.6649 110.459 51.2712C111.523 51.3279 112.584 51.4312 113.644 51.525C114.314 51.5843 116.673 52.2376 117.231 51.7695C118.462 50.7372 115.575 50.5606 115.165 50.5129C114.105 50.3895 113.044 50.2758 111.982 50.1699C106.209 49.594 100.411 50.734 95.3892 53.8326C89.6472 57.3761 85.0728 62.9745 83.3583 69.6295Z" fill="#6AB26D" fill-opacity="0.67"/>
<circle cx="98.7703" cy="70.1368" r="5.78895" transform="rotate(-75.5532 98.7703 70.1368)" fill="#E03056"/>
<circle cx="46.435" cy="74.8867" r="7.23618" transform="rotate(-75.5532 46.435 74.8867)" fill="#E03056"/>
<circle cx="64.6483" cy="109.768" r="3.47337" transform="rotate(-75.5532 64.6483 109.768)" fill="#E03056"/>
</svg>
