<svg width="59" height="65" viewBox="0 0 59 65" fill="none" xmlns="http://www.w3.org/2000/svg">
<path opacity="0.46" fill-rule="evenodd" clip-rule="evenodd" d="M16.863 38.6414C22.9426 34.2733 29.5304 29.6052 34.6284 26.1622C45.4606 18.8455 55.0394 14.7434 57.711 13.661C53.8917 13.812 37.8364 14.9637 24.7889 23.7402C22.2427 25.4532 19.844 27.3881 17.6095 29.4162L17.831 29.4521L17.829 29.4641C17.7947 29.6713 17.3218 32.5303 17.0927 35.1471C16.9426 36.863 16.885 38.0228 16.863 38.6414ZM26.5603 46.4096C19.2397 49.7114 10.5214 51.721 0.26739 51.2698C2.77204 49.427 21.0894 35.9764 33.101 27.7646C33.8974 27.6935 37.3022 27.4338 41.5125 27.7067C45.8092 27.9859 48.4903 28.6126 49.0237 28.7464C44.9059 33.795 39.3633 39.209 32.2025 43.4717L22.9721 41.4887C22.9721 41.4887 25.3632 44.8417 26.5603 46.4096ZM0.183478 50.6193C1.72916 48.0467 8.02983 38.0328 17.2646 29.5628C17.1331 30.382 16.7622 32.7866 16.5684 34.9956C16.3803 37.1288 16.3367 38.4138 16.3248 38.8706C8.74808 44.3232 2.06918 49.2311 0.183478 50.6193ZM41.5117 27.2536C38.1338 27.033 35.2685 27.1531 33.8323 27.2476C34.1856 27.0073 34.5348 26.7712 34.8746 26.5418C46.4701 18.7285 56.6182 14.6056 58.3487 13.928C57.6725 15.4578 54.7676 21.6354 49.1664 28.5505L49.2248 28.3378C49.2246 28.3378 49.2234 28.3375 49.2211 28.3369C49.1056 28.3065 46.2765 27.5638 41.5117 27.2536Z" fill="#81C784"/>
</svg>
