<svg width="77" height="133" viewBox="0 0 77 133" fill="none" xmlns="http://www.w3.org/2000/svg">
<path fill-rule="evenodd" clip-rule="evenodd" d="M56.7161 126.552C55.2328 126.875 53.595 126.85 52.084 126.824C43.9808 126.714 36.0235 122.893 30.8448 116.788C26.436 111.591 25.2237 105.129 24.3528 98.5972C24.2664 97.9486 24.2294 97.3042 24.1807 96.6544C24.1702 96.5149 24.1546 96.3905 24.1379 96.2734C23.7953 95.9684 23.6157 95.6128 23.8184 95.2222C23.0638 93.5777 22.4255 91.8915 21.8778 90.1523C20.2658 85.0331 18.626 79.8166 19.6361 74.4336C19.8721 77.3959 20.3685 80.4251 20.9622 83.3387C20.9964 83.506 21.0333 83.672 21.0716 83.8373C21.0756 83.8548 21.0792 83.8722 21.0832 83.8895C21.2934 84.7818 21.5665 85.6473 21.8988 86.4993C21.9023 86.5086 21.9056 86.5177 21.9092 86.5269C21.9531 86.639 21.9997 86.7505 22.0457 86.8621C22.1408 87.0929 22.2386 87.3234 22.3422 87.5526C22.3773 87.6307 22.411 87.7095 22.4433 87.789C22.927 88.9695 23.1312 90.2998 23.5645 91.5213C23.6682 91.799 23.7765 92.0758 23.89 92.351C23.8967 92.3671 23.9036 92.3832 23.9104 92.3994C24.2172 93.1401 24.5563 93.8717 24.9148 94.5957C25.1096 94.7415 25.2137 95.1033 25.3817 95.4321C25.4165 95.4969 25.6881 95.9289 25.769 96.1778C25.9801 96.5845 26.1905 96.9914 26.4031 97.3974C26.3967 97.3951 26.3903 97.3927 26.384 97.3903C26.5967 97.7802 26.8101 98.1684 27.0218 98.555C27.0684 98.6399 27.1155 98.725 27.1624 98.8102C27.2384 98.9458 27.3144 99.0813 27.3903 99.2165C28.1001 100.481 28.8527 101.721 29.6343 102.946C29.9132 103.382 30.5796 104.009 30.7074 104.5C30.7121 104.518 30.7132 104.535 30.7161 104.552C32.412 106.925 34.3644 109.113 36.7058 110.846C36.4228 110.542 35.8212 109.508 35.6622 109.303C35.1755 108.676 34.647 108.093 34.1166 107.502C33.1667 106.444 32.2393 105.353 31.4152 104.198C29.9082 102.088 28.6081 99.866 27.3791 97.5999C27.3674 97.5866 27.3546 97.574 27.3436 97.5604C26.7259 96.8021 26.3371 95.656 25.8924 94.7886C27.6521 95.6003 29.5979 96.129 31.4038 96.8497C33.2048 97.5682 34.9568 98.3684 36.6482 99.308C38.8962 100.557 41.2282 101.967 43.3523 103.562C45.7865 105.066 47.8319 107.136 49.6374 109.308C51.7737 111.877 53.7314 114.47 54.9422 117.59C55.5369 119.123 56.0048 120.722 56.2822 122.34C56.2944 122.41 56.3099 122.487 56.3267 122.566C56.6105 123.125 56.8643 123.696 57.0772 124.28C57.4153 125.207 58.2139 126.226 56.7161 126.552Z" fill="#A6E9A9" fill-opacity="0.54"/>
<path fill-rule="evenodd" clip-rule="evenodd" d="M75.3919 91.8216C73.9816 93.3388 71.8272 94.1485 69.8268 94.6103C62.014 96.414 54.0023 95.2164 46.6629 92.3702C42.6413 90.8108 38.8371 88.5207 35.3686 86.0228C33.3665 84.5808 31.5019 82.9513 29.9994 81.0071C28.9854 79.6949 28.1689 78.2722 27.4906 76.7669C26.6639 74.9324 25.9069 73.0408 25.318 71.1177C25.0862 70.3604 23.695 66.3792 24.9614 66.0139C24.9308 65.915 24.9069 65.8194 24.8949 65.7315C21.1072 62.029 18.2111 57.3336 15.5011 52.8736C13.1431 48.9925 10.928 45.041 9.12161 40.8798C6.74342 35.4013 4.70809 29.753 3.03777 24.0244C2.67887 22.7933 2.34205 21.5564 2.01171 20.3168C1.73021 19.2596 1.44823 18.2024 1.1672 17.145C0.852407 15.96 0.324402 14.6339 0.240636 13.403C0.167527 12.331 1.10014 12.2804 1.37724 13.3001C1.71194 14.5313 1.99149 15.7779 2.33298 17.0086C2.78636 18.6419 3.24194 20.2746 3.70366 21.9055C6.91234 33.2344 11.6318 44.037 18.03 53.9609C20.6192 57.9769 23.3847 61.706 26.6441 65.2214C29.5098 68.3124 32.7638 71.1939 36.0175 73.8262C39.18 76.3841 42.4226 78.8474 46.025 80.8015C48.9483 82.3872 52.0505 83.6403 55.1973 84.7463C59.1942 86.1508 63.172 87.5033 67.3404 88.3275C69.5072 88.7559 71.6897 89.0833 73.8636 89.4725C74.2548 89.5425 74.6705 89.602 75.0536 89.6992C76.3315 90.0234 76.1598 90.9956 75.3919 91.8216Z" fill="#6BB56F" fill-opacity="0.58"/>
<path fill-rule="evenodd" clip-rule="evenodd" d="M36.7073 63.401C39.9676 63.401 42.8687 62.9767 45.8727 61.679C48.4658 60.5591 50.8289 59.0764 53.1233 57.4622C56.3506 55.192 58.8926 52.5497 60.6719 49.0488C61.735 46.9573 62.5147 43.9978 61.8009 41.7166C60.9599 39.0298 58.6508 36.7889 55.6097 37.2624C53.7292 37.5548 52.0053 38.8016 50.576 39.975C48.8662 41.3788 47.4974 43.0668 46.3673 44.9415C44.5237 47.9996 43.4404 51.4568 41.8743 54.6523C41.1312 56.169 40.4131 57.6965 39.523 59.1379C39.0824 59.8517 38.6133 60.5586 37.9448 61.0891C37.5872 61.3728 36.0793 61.8639 36.6559 62.501C28.2012 62.3899 20.7112 55.8865 19.0881 47.8366C18.937 47.0863 18.8188 46.3299 18.694 45.575C18.6152 45.0983 18.6471 43.3404 18.2216 43.0359C17.2832 42.3641 17.6776 44.4049 17.7179 44.6987C17.822 45.458 17.933 46.2168 18.0495 46.9742C18.6833 51.0941 20.5146 54.924 23.5686 57.8622C27.0609 61.2219 31.7729 63.401 36.7073 63.401Z" fill="#78B87B" fill-opacity="0.69"/>
<circle cx="62.1351" cy="100.649" r="5.13514" fill="#E03056"/>
<circle cx="43.6485" cy="70.8649" r="3.59459" fill="#E03056"/>
<circle cx="28.2432" cy="129.919" r="3.08108" fill="#E03056"/>
</svg>
