<svg width="94" height="114" viewBox="0 0 94 114" fill="none" xmlns="http://www.w3.org/2000/svg">
<path opacity="0.25" fill-rule="evenodd" clip-rule="evenodd" d="M83.7973 40.1085C85.3066 41.3307 86.7869 42.5794 88.2311 43.8781C89.3317 44.8684 91.2796 46.0532 91.6747 47.5533C92.0855 49.1116 90.7888 50.5706 89.7643 51.513C84.3473 56.4967 78.2476 59.8661 70.7414 60.4264C59.1836 61.2894 49.125 58.338 39.0971 52.5305C32.053 48.451 27.387 42.4166 26.368 34.2685C17.9791 37.7551 9.86549 42.5605 2.9708 48.4586C-0.431176 51.369 -3.36123 54.5932 -6.07155 58.1671C-7.80719 60.4566 -9.4863 62.783 -11.0445 65.1987C-11.7218 66.2482 -12.4103 68.1096 -13.5285 68.714C-14.8413 69.4241 -16.4278 68.3111 -16.3628 66.8516C-16.3087 65.6369 -14.9969 64.2278 -14.3838 63.2349C-13.3648 61.5859 -12.331 59.9472 -11.2421 58.3435C-9.48022 55.7472 -7.65921 53.1874 -5.67305 50.7574C-1.20982 45.2983 4.46934 40.7884 10.3564 36.9427C21.6504 29.5648 34.0453 24.9168 47.7875 24.5231C56.2375 24.2807 63.3459 27.1677 70.5719 31.4791C75.0708 34.1633 79.7149 36.8026 83.7973 40.1085Z" fill="#81C784"/>
</svg>
