<svg width="164" height="249" viewBox="0 0 164 249" fill="none" xmlns="http://www.w3.org/2000/svg">
<g filter="url(#filter0_f)">
<path fill-rule="evenodd" clip-rule="evenodd" d="M40.298 25.1461C44.6576 29.1977 46.3634 35.0483 45.9861 40.7504C45.5444 47.4253 41.854 52.6483 38.8984 58.3461C37.4275 61.1816 36.4215 64.4185 36.8805 67.7003C37.2981 70.6851 39.213 72.9844 40.6301 75.5701C43.4624 80.7376 43.7247 87.0889 41.3149 92.3016C38.3757 98.6603 32.1161 102.01 27.8129 107.224C23.8609 112.011 25.7481 119.043 27.3619 124.599C28.9529 130.077 30.3161 135.087 27.5109 140.271C24.5356 145.769 20.3204 151.075 14.6639 153.981C5.24566 158.82 -5.46706 154.848 -13.3973 148.406C-20.5942 142.56 -28.4563 133.931 -29.0179 124.329C-29.3539 118.583 -26.6674 113.481 -22.7604 109.551C-20.331 107.108 -17.5037 105.077 -14.5858 103.246C-12.5178 101.948 -10.2942 100.808 -8.45703 99.1881C-3.56961 94.8778 -7.15447 89.8459 -9.71569 85.0351C-12.97 78.9215 -13.4172 72.6713 -11.6979 66.1405C-10.0975 60.0594 -6.77291 54.6531 -1.31456 51.393C1.47274 49.7285 4.60487 48.779 7.87926 48.5387C9.32055 48.433 10.9373 48.7302 12.3449 48.52C13.6591 48.3234 14.4431 47.2148 15.062 46.1292C17.92 41.114 18.0734 34.9043 20.8139 29.7938C23.2874 25.1806 28.1524 21.0996 33.7996 21.8888C36.2395 22.2296 38.4795 23.4773 40.298 25.1461Z" fill="#DDEFDE"/>
<path fill-rule="evenodd" clip-rule="evenodd" d="M36.2712 41.3919C36.3615 50.5606 31.4709 58.3416 25.882 65.0944C22.7479 68.8809 19.0094 72.4726 16.8354 76.9502C14.9744 80.7823 14.9933 85.0513 15.1944 89.2563C15.5991 97.7209 16.4481 106.733 11.9088 114.22C9.24471 118.614 5.1922 121.944 2.85667 126.568C0.734085 130.771 -0.606567 135.592 -1.15767 140.295C-1.6017 144.082 -1.05515 147.805 -1.20348 151.582C-1.24907 152.734 -1.33794 154.411 -2.40628 155.105C-3.65724 155.918 -5.3325 154.986 -6.145 153.921C-8.03966 151.437 -7.95592 147.539 -7.98953 144.618C-8.03867 140.347 -7.60456 136.205 -6.55154 132.086C-5.3815 127.511 -3.7168 123.05 -1.11802 119.113C1.57786 115.029 5.29637 111.617 7.10227 106.97C10.1407 99.1526 7.77087 90.6701 7.92932 82.5232C8.1273 72.372 15.2807 66.1571 22.1279 59.8073C25.8906 56.3178 30.1022 52.342 31.3705 47.1418C31.8546 45.1568 31.3589 42.4258 32.4251 40.649C33.4021 39.0211 36.2493 39.1046 36.2712 41.3919Z" fill="#A2E9A5" fill-opacity="0.53"/>
</g>
<g filter="url(#filter1_f)">
<path fill-rule="evenodd" clip-rule="evenodd" d="M97.9936 50.3843C100.326 52.0712 102.475 54.2378 103.646 56.8793C106.138 62.4964 102.733 68.5194 98.952 72.4737C94.8827 76.7297 89.5965 80.5963 89.6185 87.0931C89.6284 90.0797 90.3513 93.0302 90.307 96.0211C90.2594 99.2171 89.6411 102.35 88.5669 105.333C86.5931 110.811 83.1259 116.189 77.7709 118.883C73.056 121.255 66.6276 121.377 63.5301 126.178C60.2988 131.186 61.5422 138.467 61.2534 144.166C60.9267 150.615 59.4224 157.849 55.4661 163.028C51.6749 167.992 45.4289 170.771 39.213 171.41C26.793 172.687 14.5992 167.639 5.48343 159.128C1.6133 155.514 -2.61385 151.256 -4.00752 146.044C-4.4382 144.433 -4.30655 143.197 -3.97983 141.612C-3.6868 140.191 -3.86592 138.923 -4.11148 137.497C-4.65133 134.363 -4.22018 131.217 -3.09387 128.293C1.28155 116.937 13.4449 109.163 24.914 106.127C27.6314 105.408 30.0886 104.569 31.4829 101.998C32.9386 99.3135 33.3844 96.0866 33.9032 93.0985C34.416 90.1455 34.6806 87.1196 35.5939 84.2602C36.5508 81.2649 38.3033 78.8258 40.5964 76.7057C44.9041 72.7232 50.4132 70.4737 56.2126 69.4411C61.7987 68.4464 67.6872 67.9997 71.7358 63.6566C76.027 59.0537 76.782 52.1132 82.4394 48.6365C84.782 47.1969 87.7151 46.212 90.5412 46.6702C93.2515 47.1095 95.8002 48.7978 97.9936 50.3843Z" fill="#C3E4C5"/>
<path fill-rule="evenodd" clip-rule="evenodd" d="M89.7777 56.4826C90.3923 55.9 91.4656 56.2055 91.8887 56.8998C92.4455 57.8138 91.7702 58.5113 91.1616 59.1262C89.291 61.0166 87.8118 63.1686 86.5202 65.4891C83.8344 70.3135 82.2538 75.5893 80.1597 80.675C78.0672 85.7564 75.1123 90.2644 70.5771 93.4841C66.3012 96.52 61.6702 99.0443 57.3716 102.068C53.5829 104.733 49.5809 107.537 47.5761 111.844C45.6459 115.99 45.5146 120.705 44.4804 125.111C42.3396 134.232 37.7013 142.248 31.5776 149.241C28.7339 152.489 25.6854 155.6 22.0775 158.024C20.0003 159.42 17.1962 161.31 14.5342 161.132C13.3067 161.051 11.928 160.135 12.1214 158.747C12.3023 157.444 13.9227 156.673 14.88 155.994C19.0243 153.059 22.6359 149.479 25.8906 145.612C29.0433 141.867 31.9468 137.901 34.0081 133.442C35.9209 129.303 36.9946 124.987 37.7204 120.486C38.4602 115.899 39.1308 111.237 41.4661 107.158C43.8377 103.014 47.703 100.148 51.6697 97.6087C55.8652 94.9224 60.2489 92.6001 64.6783 90.3097C68.9945 88.0779 72.3665 85.3047 74.9607 81.1815C80.0861 73.0357 82.6165 63.2706 89.7777 56.4826Z" fill="#9BD39E"/>
</g>
<path fill-rule="evenodd" clip-rule="evenodd" d="M144.99 110.734C146.854 113.935 148.252 117.602 148.251 121.315C148.249 129.21 141.09 134.492 134.57 137.15C127.553 140.011 119.306 141.777 115.936 149.41C114.386 152.919 113.695 156.759 112.079 160.245C110.352 163.969 107.986 167.32 105.162 170.257C99.9733 175.65 93.0787 180.142 85.3636 180.497C78.5708 180.81 70.9364 177.585 64.7785 181.594C58.3547 185.777 56.0129 194.97 52.6935 201.504C48.937 208.899 43.3841 216.596 36.0172 220.6C28.9572 224.437 20.1486 224.424 12.4941 221.917C-2.8004 216.909 -14.5221 204.599 -20.8085 189.839C-23.4772 183.572 -26.2297 176.362 -25.146 169.517C-24.8109 167.401 -24.0097 166.02 -22.7964 164.332C-21.7084 162.819 -21.2565 161.237 -20.8 159.435C-19.7977 155.477 -17.6451 152.011 -14.7901 149.171C-3.7007 138.142 14.6885 135.394 29.7827 137.841C33.359 138.421 36.6912 138.724 39.6776 136.438C42.7952 134.052 45.0072 130.5 47.1802 127.266C49.328 124.071 51.2214 120.66 53.7918 117.784C56.4847 114.771 59.8237 112.828 63.6327 111.542C70.7878 109.127 78.4518 109.374 85.8216 111.201C92.9203 112.961 100.089 115.522 107.127 112.548C114.587 109.396 119.105 101.649 127.585 100.535C131.097 100.073 135.066 100.454 138.155 102.472C141.117 104.408 143.236 107.724 144.99 110.734Z" fill="#ADDAAF"/>
<path fill-rule="evenodd" clip-rule="evenodd" d="M131.37 114.752C132.396 114.387 133.493 115.306 133.625 116.343C133.798 117.709 132.641 118.178 131.605 118.584C128.421 119.834 125.558 121.595 122.826 123.652C117.147 127.929 112.527 133.313 107.404 138.206C102.286 143.095 96.4572 146.859 89.4522 148.284C82.8475 149.628 76.095 150.184 69.4702 151.502C63.6312 152.663 57.4691 153.877 52.8596 157.9C48.4224 161.772 45.7951 167.251 42.2712 171.897C34.9768 181.514 25.3349 188.528 14.4882 193.566C9.4512 195.905 4.24569 197.977 -1.25499 198.949C-4.42219 199.509 -8.70032 200.271 -11.7275 198.675C-13.1234 197.939 -14.2595 196.144 -13.3043 194.611C-12.4087 193.172 -10.1047 193.109 -8.62681 192.81C-2.22907 191.516 3.88222 189.186 9.72575 186.332C15.3861 183.568 20.87 180.415 25.6257 176.242C30.0389 172.369 33.5618 167.85 36.7738 162.932C40.0472 157.92 43.2791 152.784 48.1564 149.201C53.1097 145.562 59.1441 144.204 65.126 143.283C71.4529 142.309 77.8097 141.861 84.2032 141.474C90.4333 141.098 95.8407 139.592 101.044 136.093C111.326 129.179 119.414 119.007 131.37 114.752Z" fill="#81C784"/>
<defs>
<filter id="filter0_f" x="-49.0463" y="1.79041" width="115.083" height="174.339" filterUnits="userSpaceOnUse" color-interpolation-filters="sRGB">
<feFlood flood-opacity="0" result="BackgroundImageFix"/>
<feBlend mode="normal" in="SourceGraphic" in2="BackgroundImageFix" result="shape"/>
<feGaussianBlur stdDeviation="10" result="effect1_foregroundBlur"/>
</filter>
<filter id="filter1_f" x="-26.8255" y="23.7883" width="168.352" height="172.129" filterUnits="userSpaceOnUse" color-interpolation-filters="sRGB">
<feFlood flood-opacity="0" result="BackgroundImageFix"/>
<feBlend mode="normal" in="SourceGraphic" in2="BackgroundImageFix" result="shape"/>
<feGaussianBlur stdDeviation="5" result="effect1_foregroundBlur"/>
</filter>
</defs>
</svg>
