<svg width="25" height="24" viewBox="0 0 25 24" fill="none" xmlns="http://www.w3.org/2000/svg">
<path d="M21.8517 7.35961C21.8517 7.33961 21.8517 7.29961 21.8517 7.27961C21.8517 7.25961 21.8517 7.2396 21.8517 7.2196C21.8517 7.1996 21.8317 7.17962 21.8317 7.13962C21.8317 7.11962 21.8117 7.07961 21.8117 7.05961C21.8117 7.03961 21.7918 7.0196 21.7718 6.9996C21.7518 6.9796 21.7517 6.9396 21.7317 6.9196V6.8996C21.7117 6.8796 21.7117 6.87961 21.6917 6.85961C21.6717 6.83961 21.6517 6.8196 21.6317 6.7996C21.6117 6.7796 21.5918 6.75961 21.5718 6.75961C21.5518 6.73961 21.5317 6.7196 21.5117 6.7196C21.4917 6.6996 21.4717 6.69961 21.4517 6.67961C21.4317 6.65961 21.4117 6.65962 21.3917 6.63962C21.3717 6.63962 21.3317 6.6196 21.3117 6.6196C21.2917 6.6196 21.2717 6.5996 21.2317 6.5996C21.2117 6.5996 21.1717 6.5996 21.1517 6.5996C21.1317 6.5996 21.1117 6.5996 21.0917 6.5996H4.29173C4.27173 6.5996 4.25174 6.5996 4.23174 6.5996C4.21174 6.5996 4.17174 6.5996 4.15174 6.5996C4.13174 6.5996 4.11173 6.6196 4.07173 6.6196C4.05173 6.6196 4.01173 6.63962 3.99173 6.63962C3.97173 6.63962 3.95174 6.65961 3.93174 6.67961C3.91174 6.69961 3.89173 6.6996 3.87173 6.7196C3.85173 6.7396 3.83175 6.73961 3.81175 6.75961C3.79175 6.77961 3.77174 6.7996 3.75174 6.7996C3.73174 6.8196 3.71173 6.83961 3.69173 6.85961C3.67173 6.87961 3.67174 6.8796 3.65174 6.8996V6.9196C3.63174 6.9396 3.61175 6.9796 3.61175 6.9996C3.59175 7.0196 3.59173 7.03961 3.57173 7.05961C3.55173 7.07961 3.55174 7.09962 3.55174 7.13962C3.55174 7.15962 3.53174 7.1796 3.53174 7.2196C3.53174 7.2396 3.53174 7.25961 3.53174 7.27961C3.53174 7.29961 3.53174 7.33961 3.53174 7.35961V7.37961V16.5796C3.53174 17.0196 3.89174 17.3796 4.33174 17.3796H21.1317C21.5717 17.3796 21.9317 17.0196 21.9317 16.5796L21.8517 7.35961C21.8517 7.37961 21.8517 7.35961 21.8517 7.35961ZM18.6317 8.17961L12.6517 12.6196L6.67173 8.17961H18.6317ZM5.05174 15.7796V8.97961L12.1717 14.2596C12.3117 14.3596 12.4717 14.4196 12.6517 14.4196C12.8317 14.4196 12.9917 14.3596 13.1317 14.2596L20.2517 8.97961V15.7796H5.05174Z" fill="#339F61"/>
</svg>
