<svg width="1440" height="244" viewBox="0 0 1440 244" fill="none" xmlns="http://www.w3.org/2000/svg">
<ellipse cx="720" cy="420.114" rx="970" ry="296" fill="#339F61"/>
<path fill-rule="evenodd" clip-rule="evenodd" d="M660.872 72.3978C662.345 72.0776 663.971 72.1021 665.472 72.1285C673.518 72.2374 681.419 76.0287 686.562 82.0865C690.939 87.2437 692.143 93.6555 693.008 100.137C693.094 100.781 693.131 101.42 693.179 102.065C693.189 102.203 693.205 102.327 693.221 102.443C693.562 102.746 693.74 103.098 693.539 103.486C694.288 105.118 694.922 106.791 695.466 108.517C697.066 113.596 698.695 118.773 697.692 124.114C697.457 121.175 696.964 118.169 696.375 115.278C696.341 115.112 696.304 114.947 696.266 114.783C696.262 114.766 696.259 114.748 696.255 114.731C696.046 113.846 695.775 112.987 695.445 112.142C695.441 112.132 695.438 112.123 695.434 112.114C695.391 112.003 695.345 111.892 695.299 111.782C695.204 111.553 695.107 111.324 695.004 111.096C694.97 111.019 694.936 110.941 694.904 110.862C694.424 109.69 694.221 108.37 693.791 107.158C693.688 106.883 693.58 106.608 693.467 106.335C693.461 106.319 693.454 106.303 693.447 106.287C693.143 105.552 692.806 104.826 692.45 104.108C692.256 103.963 692.153 103.604 691.986 103.278C691.952 103.213 691.682 102.785 691.602 102.538C691.392 102.134 691.183 101.73 690.972 101.328C690.978 101.33 690.985 101.332 690.991 101.335C690.78 100.948 690.568 100.563 690.358 100.179C690.311 100.095 690.265 100.01 690.218 99.9257C690.143 99.7911 690.067 99.6567 689.992 99.5226C689.287 98.2673 688.54 97.0372 687.764 95.8223C687.487 95.3888 686.825 94.7671 686.698 94.2803C686.693 94.2621 686.692 94.2453 686.689 94.2279C685.005 91.874 683.067 89.7028 680.742 87.9825C681.023 88.2848 681.62 89.3108 681.778 89.5139C682.261 90.1359 682.786 90.7149 683.313 91.3009C684.256 92.3507 685.177 93.4338 685.995 94.5791C687.492 96.6737 688.783 98.878 690.003 101.127C690.015 101.14 690.027 101.152 690.038 101.166C690.652 101.918 691.038 103.056 691.479 103.916C689.732 103.111 687.8 102.586 686.006 101.871C684.218 101.158 682.479 100.364 680.799 99.4317C678.567 98.1926 676.251 96.7936 674.142 95.2103C671.725 93.7182 669.694 91.6644 667.901 89.5092C665.78 86.9593 663.836 84.387 662.634 81.2908C662.043 79.7693 661.578 78.1828 661.303 76.5778C661.291 76.5078 661.275 76.432 661.259 76.3531C660.977 75.7988 660.725 75.232 660.514 74.6522C660.178 73.7326 659.385 72.721 660.872 72.3978Z" fill="#339F61"/>
<path fill-rule="evenodd" clip-rule="evenodd" d="M1000.03 81.3003C999.32 82.4379 999.341 83.6114 1000.9 83.7013C1001.37 83.7283 1001.87 83.7038 1002.34 83.6972C1004.97 83.6606 1007.59 83.55 1010.21 83.5607C1015.26 83.5815 1020.21 84.262 1025.19 84.9989C1029.11 85.5792 1033.01 86.3415 1036.78 87.5322C1041.42 88.9996 1045.77 91.1427 1050.04 93.4142C1054.43 95.752 1058.88 98.3807 1062.92 101.341C1067.53 104.709 1071.6 108.437 1075.53 112.54C1085.25 122.679 1093.22 134.222 1099.54 146.721C1100.45 148.52 1101.35 150.323 1102.25 152.127C1102.93 153.487 1103.54 154.879 1104.21 156.24C1104.77 157.368 1105.84 157.098 1105.51 155.864C1105.13 154.446 1104.22 153.017 1103.58 151.705C1103.01 150.534 1102.44 149.364 1101.87 148.193C1101.21 146.821 1100.53 145.453 1099.83 144.097C1096.58 137.788 1092.92 131.655 1088.9 125.797C1085.85 121.348 1082.36 117.236 1078.73 113.238C1074.55 108.644 1070.11 103.818 1064.85 100.351C1064.81 100.251 1064.76 100.145 1064.71 100.036C1066.1 99.3242 1063.57 94.9913 1063.13 94.1597C1062 92.048 1060.69 90.0109 1059.31 88.0563C1058.17 86.4525 1056.9 84.9763 1055.42 83.6735C1053.22 81.7435 1050.68 80.2625 1048.02 79.0315C1043.4 76.899 1038.44 75.085 1033.4 74.1728C1024.19 72.508 1014.58 72.9191 1005.88 76.7887C1003.65 77.7794 1001.33 79.211 1000.03 81.3003Z" fill="#339F61"/>
<path fill-rule="evenodd" clip-rule="evenodd" d="M713.072 87.5538C719.23 82.6948 725.341 79.1718 732.947 77.1441C739.513 75.3934 746.184 74.67 752.922 74.2973C762.398 73.7725 771.135 74.9712 779.71 78.9273C784.833 81.2906 790.713 85.7145 792.763 91.0842C795.176 97.4088 794.153 105.08 787.704 108.718C783.717 110.969 778.604 111.185 774.157 111.101C768.837 110.999 763.738 109.853 758.811 107.999C750.774 104.974 743.579 100.064 735.861 96.366C732.199 94.6108 728.568 92.798 724.74 91.4039C722.844 90.7134 720.905 90.0781 718.853 90.0732C717.755 90.0707 714.175 91.3911 714.316 89.329C698.513 102.14 694.054 125.577 702.978 143.19C703.81 144.832 704.714 146.436 705.602 148.046C706.164 149.064 708.842 152.334 708.492 153.543C707.72 156.21 705.426 151.77 705.064 151.155C704.13 149.567 703.209 147.969 702.301 146.366C697.362 137.645 695.116 127.687 696.507 117.59C698.099 106.043 703.753 94.9078 713.072 87.5538Z" fill="#339F61"/>
<circle r="3.5" transform="matrix(-1 0 0 1 1048.5 103.614)" fill="#E03056"/>
<circle r="3.5" transform="matrix(-1 0 0 1 1282.5 161.614)" fill="#E03056"/>
<circle r="2" transform="matrix(-1 0 0 1 1013 87.1143)" fill="#E03056"/>
<circle r="2" transform="matrix(-1 0 0 1 1259 159.114)" fill="#E03056"/>
<circle r="7.5" transform="matrix(-1 0 0 1 1031.5 88.6143)" fill="#E03056"/>
<path fill-rule="evenodd" clip-rule="evenodd" d="M500.792 109.89C500.48 109.664 499.74 109.584 499.396 109.517C497.964 109.236 496.49 109.114 495.03 109.114C490.531 109.121 485.958 109.56 481.533 110.319C478.723 110.801 475.327 112.424 472.532 111.543C467.663 110.007 462.742 110.083 458.122 112.275C453.899 114.279 450.693 118.086 448.822 122.199C448.54 122.82 447.394 125.105 447.07 126.645C446.931 126.96 446.798 127.277 446.678 127.599C446.338 128.513 446.032 129.443 445.748 130.375C445.627 130.772 445.322 131.65 445.684 131.82C445.105 132.881 444.592 133.975 444.165 135.104C442.922 138.388 441.563 141.99 441.126 145.471C440.964 146.76 440.958 148.056 441.108 149.348C441.183 149.986 441.152 151.27 441.587 151.755C442.512 152.785 442.986 151.343 442.882 150.656C442.086 145.423 443.623 140.508 445.444 135.589C446.622 132.408 448.557 129.498 450.724 126.862C452.479 124.729 454.36 123.049 456.765 121.634C459.706 119.904 462.85 118.506 465.965 117.103C468.013 116.181 470.064 115.282 472.17 114.487C472.639 114.31 473.375 113.857 473.895 113.855C474.993 113.851 476.549 114.656 477.609 114.955C481.098 115.941 484.631 117.202 488.236 117.705C490.548 118.028 492.715 117.665 494.878 116.899C495.099 116.821 495.469 116.62 495.923 116.333C497.529 115.72 499.048 114.948 500.37 113.833C501.132 113.192 501.823 112.362 502.454 111.603C502.643 111.376 502.726 111.115 502.729 110.868C502.872 110.794 502.967 110.707 502.988 110.606C503.145 109.859 501.711 109.845 500.792 109.89Z" fill="#339F61"/>
<path fill-rule="evenodd" clip-rule="evenodd" d="M397.105 21.1695C399.237 20.7823 401.232 22.7451 402.42 24.2256C402.878 24.7964 403.961 26.4262 404.596 27.9622C404.787 27.2209 404.998 26.482 405.228 25.7462C406.175 22.7209 407.297 19.7187 408.581 16.8202C408.916 16.0643 409.39 15.2706 409.87 14.4664C410.032 14.194 410.196 13.9203 410.355 13.6465C410.327 13.5485 410.332 13.4354 410.378 13.3021C410.346 13.3503 410.321 13.3898 410.302 13.42C410.271 13.4689 410.255 13.4934 410.246 13.4912C410.237 13.4891 410.234 13.4601 410.228 13.402C410.225 13.3794 410.222 13.3524 410.219 13.3209C409.951 11.0323 409.977 8.62088 410.927 6.44117C411.732 4.59266 414.938 1.95593 415.823 5.36979C416.22 6.89527 412.211 14.1313 410.579 13.8652C409.706 16.4956 408.93 19.1712 408.29 21.8768C408.386 21.9064 408.477 21.9511 408.56 22.0089C408.857 21.4069 409.19 20.7543 409.329 20.5426C410.528 18.7184 414.148 15.622 416.326 17.6973C417.999 19.2922 415.557 21.0822 414.346 21.7928C412.397 22.9372 410.798 23.0465 408.798 23.1369C408.58 23.4858 408.237 23.5776 407.924 23.5044C406.974 27.917 406.399 32.4003 406.351 36.8888L406.515 36.6858L406.515 36.6856C407.297 35.7159 408.209 34.5854 408.512 34.4051C410.097 33.4609 412.901 32.7514 414.263 34.4873C417.123 38.1355 410.511 41.0307 407.045 39.94C406.819 40.0555 406.603 40.1312 406.41 40.1394C406.478 41.536 406.599 42.9319 406.781 44.3244C407.051 46.4173 407.403 48.5458 407.814 50.6936C408.466 49.5117 410.309 47.0781 410.591 46.8593C412.302 45.5316 415.578 44.941 416.856 47.16C418.291 49.6591 414.988 51.3042 413.15 51.8725C412.396 52.1056 408.989 52.6302 408.108 52.1894C409.149 57.2896 410.521 62.4815 412.013 67.5721C412.53 65.8993 414.342 61.4917 414.621 61.0426C416.062 58.7238 419.635 55.6639 422.286 58.2116C424.859 60.6819 421.454 64.0179 419.432 65.4036C418.207 66.2421 416.732 66.9757 415.266 67.2475C415.002 67.2965 414.694 67.2889 414.386 67.2814L414.386 67.2814C414.014 67.2724 413.644 67.2634 413.353 67.3533C413.093 67.4336 412.941 67.6002 412.79 67.7654C412.63 67.94 412.472 68.1129 412.191 68.1809C413.001 70.9239 413.843 73.6347 414.686 76.2825C415.083 77.5321 415.504 78.7732 415.938 80.0084C416.498 80.0531 417.028 80.6427 416.659 81.2801C416.605 81.3727 416.541 81.4435 416.473 81.5036C416.808 82.4273 417.15 83.3489 417.5 84.2666C417.572 84.0885 417.699 83.8502 417.899 83.5333C417.091 83.9596 417.607 83.0002 418 82.2688C418.139 82.0104 418.262 81.7805 418.307 81.6502C418.481 81.1402 418.633 80.6245 418.784 80.1096L418.784 80.1095L418.784 80.1095C419.108 79.0095 419.431 77.913 419.97 76.8828C421.114 74.6962 424.389 71.7247 426.646 74.5303C428.722 77.1079 426.077 79.8633 424.017 81.3854C422.713 82.3485 421.244 83.0522 419.76 83.6863C419.495 83.7996 419.177 83.9734 418.862 84.1455L418.862 84.1456C418.393 84.4011 417.932 84.6529 417.664 84.6971C419.015 88.2164 420.459 91.6998 421.903 95.1835L421.903 95.1837L421.904 95.1856C422.55 96.7454 423.197 98.3053 423.835 99.8685C423.995 99.6788 424.145 99.4864 424.282 99.305C424.17 99.349 424.053 99.337 423.933 99.266C423.984 99.0841 424.048 98.8404 424.125 98.5478L424.125 98.5476C425.065 94.974 427.929 84.0894 432.765 88.9578C436.306 92.5287 428.942 99.514 424.244 100.871C425.318 103.521 426.362 106.183 427.337 108.872C428.042 110.818 428.685 112.786 429.256 114.773C429.495 112.701 430.033 110.137 431.352 108.552C433.272 106.246 437.278 105.191 439.201 108.046C441.595 111.614 437.725 112.834 434.096 113.977C432.243 114.561 430.453 115.125 429.591 115.972C431.338 122.423 432.249 129.062 431.679 135.803C431.059 143.133 429.196 152.455 424.452 158.584C426.213 155.723 427.123 151.465 427.761 148.474L427.761 148.474C427.848 148.067 427.93 147.683 428.009 147.33C429.034 142.709 429.555 137.97 429.468 133.24C429.328 125.663 427.706 118.463 425.197 111.395C423.894 111.215 422.328 111.314 421.03 111.397L421.03 111.397C420.235 111.447 419.541 111.492 419.07 111.461C416.802 111.313 412.647 110.637 412.757 107.505C412.865 104.424 416.546 104.554 418.672 104.939C420.726 105.312 422.296 106.197 423.73 107.487C422.328 103.891 420.826 100.335 419.324 96.7805L419.324 96.7798C419.047 96.1258 418.771 95.4718 418.495 94.8176C417.545 95.0244 416.4 95.4402 415.184 95.8817C411.325 97.2827 406.753 98.9426 405.443 95.0048C403.467 89.0623 413.104 88.9817 416.185 90.9498C416.564 91.1911 416.905 91.4719 417.222 91.7782C415.355 87.2793 413.569 82.7488 412.062 78.1071C411.459 77.9253 410.164 78.2889 408.608 78.7258C405.111 79.7075 400.298 81.059 399.056 77.4197C398.159 74.7927 400.136 72.4278 402.636 71.7762C405.146 71.1214 407.644 72.4027 409.503 74.0071C410.307 74.6995 410.936 75.5579 411.461 76.4799C411.494 76.4989 411.525 76.5173 411.556 76.5355C410.09 71.9359 408.64 67.2585 407.357 62.532C407.298 62.5223 407.237 62.5124 407.175 62.5027C406.886 62.6295 406.549 62.5571 406.301 62.3698C406.127 62.3448 405.948 62.3195 405.766 62.2938L405.761 62.2931C403.026 61.9072 399.512 61.4111 397.424 59.7808C395.887 58.5809 395.05 56.4021 397.367 55.4322C399.251 54.6433 402.331 56.4713 403.715 57.5946C404.39 58.1429 404.976 59.0306 405.564 59.9213L405.564 59.9214C405.811 60.2956 406.059 60.6703 406.313 61.0206C406.495 60.8859 406.71 60.8498 406.916 60.8851C405.678 56.1616 404.63 51.394 403.913 46.6121C403.094 46.3416 402.082 46.2447 401.037 46.1447C398.525 45.9042 395.828 45.6461 395.199 42.9082C394.271 38.8656 399.582 39.5013 401.568 40.8564C402.239 41.3139 402.841 41.8792 403.386 42.4972C403.036 38.683 403.219 34.8909 403.895 31.1562C403.881 31.1562 403.868 31.1568 403.854 31.1573C403.848 31.1575 403.841 31.1577 403.834 31.1578C403.825 31.158 403.815 31.1578 403.804 31.1572C403.823 31.1567 403.84 31.155 403.857 31.1533L403.857 31.1533C403.87 31.152 403.883 31.1508 403.896 31.15C403.964 30.7765 404.036 30.4036 404.114 30.0317C403.995 29.8544 403.875 29.7071 403.815 29.6411C404.439 30.8008 400.202 29.0439 399.409 28.7149C397.655 27.9873 395.372 26.8824 394.843 24.8675C394.399 23.1751 395.337 21.4907 397.105 21.1695ZM424.628 158.686C424.054 159.632 423.416 160.441 422.705 161.013C423.386 160.296 424.026 159.515 424.628 158.686Z" fill="#339F61"/>
<path fill-rule="evenodd" clip-rule="evenodd" d="M1135.97 116.338C1136.97 115.119 1137.84 113.785 1138.38 112.286C1138.52 111.907 1139.4 109.104 1139.1 108.971C1138.4 108.662 1136.3 115.969 1135.97 116.338ZM1145.38 127.721C1145.33 127.719 1143.91 128.848 1143.47 129.163C1142.53 129.833 1141.57 130.465 1140.6 131.069C1142.33 130.134 1143.93 129.198 1145.38 127.721ZM1123.84 65.7712C1123.43 64.9333 1124.4 63.7217 1124.83 64.8214C1125.18 65.7115 1125.23 65.659 1126.03 65.9683C1126.68 66.2195 1127.44 66.3231 1128.12 66.529C1129.55 66.9656 1130.92 67.495 1132.24 68.1969C1135.08 69.7012 1137.61 71.6628 1139.83 73.9496C1143.71 77.9406 1147.39 82.5103 1149.63 87.5911C1153.18 95.6697 1154.68 105.224 1154.21 113.881C1153.93 119.242 1152.82 124.261 1149.11 128.316C1147.25 130.343 1144.98 132.048 1142.36 133.023C1141.67 133.278 1140.88 133.359 1140.21 133.651C1139.19 134.099 1139.45 133.927 1139.42 135.203C1139.39 136.596 1139.35 137.988 1139.3 139.381C1139.19 143.027 1139.04 146.7 1138.52 150.309C1138.36 151.497 1138.11 152.67 1137.8 153.826C1137.56 154.701 1136.91 158.141 1135.9 158.691C1134.21 159.606 1134.71 157.266 1135 156.52C1135.25 155.866 1135.48 155.199 1135.68 154.527C1136.2 152.834 1136.53 151.099 1136.75 149.342C1136.98 147.443 1137.08 145.525 1137.19 143.613C1137.28 141.831 1137.35 140.046 1137.4 138.261C1137.43 137.27 1137.45 136.278 1137.48 135.286C1137.49 134.948 1137.69 134.323 1137.27 134.428C1137.37 132.335 1137.01 130.139 1136.82 128.048C1136.6 125.487 1136.35 122.92 1135.91 120.381C1135.6 118.549 1135.22 116.724 1134.71 114.929C1134.42 113.879 1134.06 112.857 1133.64 111.845C1133.41 111.289 1132.78 109.06 1132.24 108.816C1132.47 108.921 1132.61 111.459 1132.67 111.777C1132.9 113.047 1133.2 114.296 1133.52 115.549C1134.12 117.873 1134.59 120.216 1134.9 122.588C1134.49 122.637 1133.52 121.123 1133.19 120.767C1132.44 119.968 1131.65 119.215 1130.8 118.527C1129.3 117.316 1127.45 115.874 1125.78 115.127C1126.27 115.347 1127.06 116.665 1127.48 117.114C1128.14 117.833 1128.85 118.53 1129.59 119.18C1130.27 119.779 1130.99 120.327 1131.73 120.861C1132.46 121.396 1133.93 122.056 1134.47 122.818C1134.51 122.864 1134.27 123.262 1134.4 123.452C1134.52 123.644 1135.05 123.832 1135.07 123.881C1135.48 124.605 1135.31 126.11 1135.39 126.92C1135.59 129.02 1135.75 131.123 1135.93 133.224C1135.99 133.875 1136.21 134.404 1135.77 134.715C1135.3 135.046 1133.89 134.757 1133.32 134.7C1131.19 134.486 1129.22 133.852 1127.43 132.67C1124.08 130.456 1121.64 127.49 1119.79 124.009C1112.72 110.679 1108.58 96.0222 1111.91 81.2351C1113.29 75.1133 1115.98 65.8071 1123.84 65.7712Z" fill="#339F61"/>
<path fill-rule="evenodd" clip-rule="evenodd" d="M205.796 82.6659C203.944 82.8504 202.039 83.3625 200.525 84.4577C197.306 86.7867 197.251 91.2601 198.078 94.6993C198.968 98.401 200.665 102.281 198.541 105.904C197.564 107.57 196.201 108.984 195.253 110.67C194.24 112.472 193.567 114.424 193.198 116.44C192.519 120.143 192.709 124.276 194.825 127.523C196.689 130.382 200.242 132.54 200.412 136.231C200.589 140.08 197.527 143.745 195.835 147.024C193.921 150.734 192.41 155.266 192.937 159.447C193.441 163.454 196.028 167.038 199.295 169.416C205.82 174.168 214.276 175.312 222.138 173.519C225.476 172.758 229.223 171.753 231.697 169.293C232.461 168.533 232.79 167.799 233.122 166.807C233.421 165.918 233.933 165.268 234.534 164.55C235.855 162.974 236.637 161.076 236.958 159.076C238.205 151.307 233.935 143.007 228.513 137.581C227.228 136.295 226.127 135.028 226.184 133.137C226.244 131.164 227.044 129.215 227.725 127.377C228.399 125.56 229.235 123.783 229.654 121.888C230.093 119.903 229.907 117.97 229.315 116.039C228.202 112.413 225.855 109.364 222.95 106.901C220.151 104.529 217.006 102.365 216.155 98.6212C215.254 94.6535 217.088 90.5292 215.057 86.7467C214.216 85.1804 212.897 83.6763 211.169 83.0134C209.511 82.3777 207.538 82.4924 205.796 82.6659Z" fill="#339F61"/>
<path fill-rule="evenodd" clip-rule="evenodd" d="M208.405 88.7456C208.251 88.2202 207.552 88.0419 207.089 88.2924C206.481 88.6221 206.632 89.2315 206.772 89.7731C207.203 91.4378 207.329 93.1214 207.297 94.8383C207.229 98.4078 206.397 101.87 205.914 105.393C205.431 108.914 205.616 112.394 207.104 115.668C208.507 118.755 210.274 121.671 211.693 124.759C212.944 127.48 214.269 130.348 213.989 133.407C213.719 136.352 212.26 139.03 211.405 141.828C209.636 147.622 209.622 153.61 210.77 159.509C211.303 162.249 211.995 164.979 213.223 167.507C213.93 168.962 214.883 170.93 216.428 171.697C217.141 172.05 218.209 171.987 218.552 171.148C218.875 170.361 218.22 169.403 217.906 168.713C216.544 165.725 215.69 162.55 215.128 159.331C214.584 156.212 214.251 153.052 214.549 149.889C214.826 146.954 215.629 144.193 216.687 141.442C217.765 138.638 218.906 135.814 218.927 132.775C218.949 129.688 217.721 126.83 216.33 124.121C214.858 121.255 213.164 118.532 211.433 115.812C209.746 113.161 208.764 110.515 208.654 107.367C208.439 101.148 210.2 94.8677 208.405 88.7456Z" fill="#339F61"/>
<circle r="3" transform="matrix(-1 0 0 1 721 96.1143)" fill="#E03056"/>
<circle r="4.5" transform="matrix(-1 0 0 1 699.5 86.6143)" fill="#E03056"/>
<circle r="4.5" transform="matrix(-1 0 0 1 215.5 113.5)" fill="#E03056"/>
<circle r="6" transform="matrix(-1 0 0 1 201 140)" fill="#E03056"/>
<circle r="2.5" transform="matrix(-1 0 0 1 199.5 84.5)" fill="#E03056"/>
<circle r="1" transform="matrix(-1 0 0 1 697 103.114)" fill="#E03056"/>
<path fill-rule="evenodd" clip-rule="evenodd" d="M1264.99 116.853C1265.98 115.966 1266.97 115.101 1268 114.266C1268.79 113.629 1269.79 112.442 1270.85 112.337C1271.94 112.228 1272.79 113.262 1273.32 114.055C1276.12 118.253 1277.76 122.736 1277.35 127.867C1276.72 135.766 1273.67 142.24 1268.7 148.386C1265.21 152.702 1260.64 155.202 1255.03 155.009C1256.51 161.052 1258.9 167.051 1262.17 172.345C1263.78 174.957 1265.65 177.285 1267.78 179.501C1269.14 180.921 1270.54 182.306 1272.01 183.62C1272.64 184.191 1273.83 184.857 1274.12 185.678C1274.46 186.641 1273.55 187.592 1272.57 187.391C1271.75 187.223 1270.94 186.184 1270.33 185.663C1269.32 184.797 1268.32 183.921 1267.35 183.013C1265.79 181.542 1264.25 180.036 1262.81 178.431C1259.59 174.827 1257.14 170.504 1255.16 166.112C1251.36 157.687 1249.52 148.813 1250.69 139.489C1251.41 133.756 1254.11 129.267 1257.78 124.853C1260.06 122.104 1262.33 119.253 1264.99 116.853Z" fill="#339F61"/>
<path fill-rule="evenodd" clip-rule="evenodd" d="M1273.26 156.527C1283.88 146.951 1298.75 149.059 1310.15 154.903C1314.45 157.106 1318.07 160.518 1321.73 163.596C1322.91 164.583 1324.41 166.357 1325.77 166.95C1326.27 167.165 1326.77 166.952 1327.03 167.614C1327.19 168.014 1327.14 168.394 1326.87 168.747C1326.32 169.473 1324.72 169.597 1323.88 169.827C1316.99 171.728 1310.54 170.86 1303.93 168.649C1299.84 167.28 1295.62 165.824 1291.92 163.603C1289.66 162.247 1287.54 160.575 1285.59 158.808C1284.83 158.112 1284.05 157.396 1283.36 156.622C1282.67 155.854 1282.66 155.13 1282.32 154.234C1277.57 156.089 1273.24 159.33 1270.9 163.957C1268.74 168.236 1268.22 173.207 1269.5 177.72C1269.83 178.893 1270.29 180.028 1270.85 181.104C1271.22 181.808 1271.88 182.557 1272.07 183.32C1272.54 185.171 1270.39 185.591 1269.47 184.304C1266.91 180.713 1265.83 175.768 1266.16 171.361C1266.59 165.802 1269.04 160.336 1273.26 156.527Z" fill="#339F61"/>
</svg>
