<svg width="24" height="24" viewBox="0 0 24 24" fill="none" xmlns="http://www.w3.org/2000/svg">
<path d="M16.505 4.37981C15.365 3.35981 13.765 2.7998 12.025 2.7998C10.285 2.7998 8.68498 3.35981 7.54498 4.37981C6.16498 5.61981 5.42498 7.47981 5.42498 9.77981C5.42498 14.7998 11.205 20.6998 11.465 20.9398C11.625 21.0998 11.825 21.1798 12.025 21.1798C12.225 21.1798 12.445 21.0998 12.585 20.9398C12.825 20.6998 18.625 14.7998 18.625 9.77981C18.605 7.47981 17.885 5.61981 16.505 4.37981ZM12.005 19.2198C11.465 18.6198 10.605 17.6198 9.765 16.4198C7.965 13.8598 7.00499 11.5798 7.00499 9.7998C7.00499 4.7998 10.825 4.3998 12.005 4.3998C16.645 4.3998 17.005 8.5398 17.005 9.7998C17.005 13.3198 13.425 17.6598 12.005 19.2198ZM12.005 6.2598C10.245 6.2598 8.82498 7.7198 8.82498 9.4998C8.82498 11.2798 10.245 12.7398 12.005 12.7398C13.765 12.7398 15.185 11.2798 15.185 9.4998C15.185 7.6998 13.765 6.2598 12.005 6.2598ZM12.005 11.3198C11.025 11.3198 10.225 10.4998 10.225 9.47981C10.225 8.45981 11.025 7.63981 12.005 7.63981C12.985 7.63981 13.785 8.45981 13.785 9.47981C13.785 10.4998 12.985 11.3198 12.005 11.3198Z" fill="#339F61"/>
</svg>
