<svg width="89" height="67" viewBox="0 0 89 67" fill="none" xmlns="http://www.w3.org/2000/svg">
<path fill-rule="evenodd" clip-rule="evenodd" d="M51.5905 0.251279C50.2862 -0.0325174 48.8461 -0.010797 47.5176 0.0126142C40.3928 0.109121 33.3963 3.46902 28.8429 8.83761C24.9664 13.408 23.9005 19.0903 23.1347 24.8344C23.0588 25.4047 23.0262 25.9714 22.9834 26.5429C22.9742 26.6655 22.9605 26.7749 22.9458 26.8779C22.6446 27.1461 22.4866 27.4588 22.6649 27.8023C22.0014 29.2484 21.4402 30.7313 20.9586 32.2607C19.5412 36.7624 18.0994 41.3497 18.9876 46.0835C19.1951 43.4784 19.6316 40.8146 20.1536 38.2524C20.1836 38.1053 20.216 37.9594 20.2498 37.814C20.2533 37.7986 20.2565 37.7833 20.2599 37.768C20.4447 36.9834 20.6849 36.2222 20.977 35.4731C20.9801 35.4649 20.983 35.4568 20.9862 35.4488C21.0248 35.3502 21.0658 35.2521 21.1062 35.154C21.1899 34.951 21.2758 34.7484 21.3669 34.5468C21.3978 34.4781 21.4274 34.4088 21.4558 34.3389C21.8811 33.3008 22.0607 32.131 22.4417 31.0568C22.5328 30.8126 22.6281 30.5692 22.7279 30.3272C22.7337 30.313 22.7398 30.2988 22.7458 30.2846C23.0156 29.6333 23.3137 28.9899 23.6289 28.3532C23.8002 28.225 23.8917 27.9068 24.0394 27.6177C24.07 27.5607 24.3089 27.1808 24.38 26.9619C24.5656 26.6043 24.7505 26.2465 24.9375 25.8894C24.9319 25.8915 24.9263 25.8936 24.9207 25.8957C25.1078 25.5528 25.2954 25.2114 25.4815 24.8714C25.5225 24.7968 25.5639 24.722 25.6051 24.6471C25.6719 24.5278 25.7388 24.4087 25.8055 24.2898C26.4296 23.1774 27.0913 22.0872 27.7785 21.0105C28.0238 20.6263 28.6097 20.0754 28.7221 19.644C28.7262 19.6278 28.7272 19.613 28.7297 19.5975C30.2209 17.5115 31.9376 15.5873 33.9963 14.0627C33.7474 14.3307 33.2184 15.2399 33.0786 15.4199C32.6507 15.9711 32.186 16.4842 31.7197 17.0036C30.8845 17.9339 30.069 18.8938 29.3444 19.9088C28.0194 21.765 26.8762 23.7186 25.7956 25.7114C25.7854 25.7231 25.7742 25.7341 25.7644 25.7461C25.2213 26.4129 24.8794 27.4208 24.4885 28.1836C26.0357 27.4698 27.7465 27.0049 29.3344 26.3711C30.918 25.7392 32.4584 25.0356 33.9456 24.2093C35.9222 23.1112 37.9726 21.8713 39.8402 20.4682C41.9804 19.1458 43.7789 17.3257 45.3665 15.4158C47.2447 13.1559 48.9661 10.8763 50.0307 8.13241C50.5536 6.78405 50.965 5.37808 51.209 3.95572C51.2196 3.89368 51.2332 3.82643 51.248 3.75659C51.4976 3.26534 51.7207 2.76304 51.9079 2.24917C52.2052 1.4342 52.9074 0.537676 51.5905 0.251279Z" fill="#6DBF71" fill-opacity="0.64"/>
<path fill-rule="evenodd" clip-rule="evenodd" d="M88.8888 32.9519C89.1767 33.901 88.9366 34.7363 87.8008 34.5009C87.4604 34.4303 87.1086 34.3174 86.7723 34.2222C84.903 33.6932 83.0507 33.1121 81.1719 32.6169C77.5573 31.6643 73.8893 31.2031 70.186 30.7757C67.2703 30.4394 64.333 30.2366 61.4086 30.3658C57.8048 30.5251 54.2887 31.2257 50.7993 32.0321C47.209 32.8622 43.5222 33.8894 40.0614 35.2318C36.1253 36.7584 32.4971 38.6443 28.8973 40.8249C20.002 46.2136 12.0944 52.9438 5.17781 60.672C4.18227 61.7846 3.19087 62.901 2.20099 64.0187C1.45524 64.861 0.752297 65.7397 0.0116695 66.585C-0.601587 67.285 -1.31946 66.8861 -0.847247 66.066C-0.305152 65.1243 0.624973 64.2784 1.33197 63.462C1.96294 62.7336 2.59456 62.0057 3.22586 61.2776C3.96622 60.4241 4.71069 59.5751 5.4704 58.7392C9.00563 54.8498 12.7984 51.1644 16.7967 47.7453C19.8336 45.1484 23.1126 42.8747 26.4774 40.7117C30.3443 38.2262 34.4493 35.6261 38.8755 34.1548C38.919 34.0899 38.9748 34.0235 39.0373 33.957C38.1772 33.1805 40.8162 30.5661 41.2923 30.0562C42.5013 28.7613 43.8311 27.5561 45.1939 26.4229C46.3122 25.493 47.5077 24.6817 48.8168 24.0338C50.7564 23.0741 52.8606 22.5026 55.0011 22.1324C58.7093 21.4913 62.6025 21.1439 66.3852 21.4582C73.2886 22.0318 80.0863 24.1684 85.5666 28.6032C86.9697 29.7386 88.3602 31.2085 88.8888 32.9519Z" fill="#81C784" fill-opacity="0.42"/>
<path fill-rule="evenodd" clip-rule="evenodd" d="M34.063 40.2316C36.9318 40.2316 39.4846 40.6047 42.1279 41.7458C44.4096 42.7307 46.489 44.0345 48.5078 45.454C51.3476 47.4504 53.5844 49.774 55.1501 52.8527C56.0855 54.6919 56.7716 57.2944 56.1434 59.3005C55.4035 61.6632 53.3717 63.6338 50.6957 63.2174C49.041 62.9602 47.5241 61.8639 46.2664 60.832C44.7619 59.5975 43.5575 58.1131 42.5631 56.4645C40.9409 53.7753 39.9876 50.7351 38.6096 47.925C37.9557 46.5913 37.3238 45.248 36.5406 43.9805C36.1529 43.3528 35.7401 42.7311 35.152 42.2647C34.8373 42.0152 33.5104 41.5833 34.0178 41.023C26.5783 41.1208 19.9877 46.8397 18.5595 53.9186C18.4265 54.5784 18.3225 55.2436 18.2127 55.9074C18.1434 56.3266 18.1714 57.8725 17.797 58.1403C16.9713 58.731 17.3184 56.9365 17.3538 56.6781C17.4454 56.0103 17.5431 55.3431 17.6456 54.677C18.2032 51.054 19.8147 47.6861 22.5019 45.1023C25.5749 42.1478 29.7211 40.2316 34.063 40.2316Z" fill="#6AB26D" fill-opacity="0.67"/>
<circle r="3.65742" transform="matrix(-1 0 0 1 31.9443 49.7409)" fill="#E03056"/>
<circle r="4.57177" transform="matrix(-1 0 0 1 43.0994 18.47)" fill="#E03056"/>
<circle r="2.19445" transform="matrix(-1 0 0 1 61.5694 35.1112)" fill="#E03056"/>
</svg>
