<svg width="48" height="93" viewBox="0 0 48 93" fill="none" xmlns="http://www.w3.org/2000/svg">
<circle cx="6.5" cy="52.4999" r="3.5" fill="#E03056"/>
<circle cx="48" cy="72.9999" r="5" fill="#E03056"/>
<path opacity="0.59" fill-rule="evenodd" clip-rule="evenodd" d="M11.563 13.055C10.3011 13.4586 9.05121 13.8862 7.81189 14.3548C6.86729 14.7123 5.33557 14.9826 4.71417 15.8413C4.06848 16.7333 4.53378 17.9878 4.95323 18.8447C7.17114 23.3761 10.2216 27.0477 14.8599 29.2773C22.0018 32.7106 29.1304 33.3358 36.9438 32.1307C42.4324 31.2842 46.8898 28.597 49.5478 23.6514C54.026 27.9686 58.0039 33.0588 60.9366 38.5422C62.3836 41.248 63.4529 44.0364 64.2962 46.9931C64.836 48.887 65.3307 50.7904 65.7264 52.7206C65.8986 53.5592 65.8776 54.9188 66.4401 55.5834C67.1003 56.364 68.3844 56.0494 68.703 55.1018C68.9682 54.3132 68.4809 53.0867 68.3356 52.3002C68.094 50.9937 67.8402 49.6902 67.5428 48.3952C67.0621 46.2989 66.5346 44.2112 65.8701 42.1651C64.3763 37.5682 61.8747 33.2737 59.077 29.3513C53.7099 21.8263 46.9689 15.7688 38.3212 12.0901C33.004 9.82798 27.7686 9.89749 22.1071 10.8466C18.5823 11.4375 14.9761 11.9636 11.563 13.055Z" fill="#81C784"/>
<path fill-rule="evenodd" clip-rule="evenodd" d="M41.6844 40.1686C28.065 44.524 22.4025 58.4339 21.7138 71.2291C21.4541 76.0521 22.581 80.8966 23.3948 85.6134C23.6559 87.1271 24.437 89.3112 24.2616 90.7902C24.1979 91.3265 23.7624 91.6513 24.2003 92.2143C24.4654 92.5552 24.819 92.7029 25.2608 92.6461C26.1679 92.5299 27.0809 91.2095 27.6976 90.6064C32.8126 85.6029 35.3045 79.5987 36.7214 72.7746C37.5999 68.5447 38.4643 64.169 38.4089 59.8514C38.3751 57.214 37.9935 54.5469 37.4475 51.9741C37.2324 50.9609 37.0068 49.9254 36.6851 48.9397C36.366 47.9618 35.7445 47.5896 35.1441 46.8415C39.1384 43.668 44.118 41.5589 49.2913 41.8694C54.0762 42.1566 58.6318 44.2117 61.8922 47.5811C62.7395 48.457 63.4873 49.4278 64.1344 50.4549C64.558 51.1276 64.8714 52.0761 65.434 52.6269C66.7982 53.9621 68.2433 52.3156 67.5932 50.8745C65.7797 46.8544 62.0525 43.4282 58.0732 41.5025C53.0545 39.074 47.1005 38.4365 41.6844 40.1686Z" fill="#81C784"/>
</svg>
