<svg width="30" height="30" viewBox="0 0 30 30" fill="none" xmlns="http://www.w3.org/2000/svg">
<path d="M6.35813 16.168C6.60129 16.168 6.79846 15.9709 6.79846 15.7277V15.4224C6.79846 14.7202 6.26192 14.141 5.57731 14.073V13.5907C5.57731 13.3475 5.38014 13.1504 5.13698 13.1504C4.89381 13.1504 4.69664 13.3475 4.69664 13.5907V14.0941C4.00184 14.2288 3.47549 14.8415 3.47549 15.5751C3.47549 16.407 4.15237 17.0839 4.98428 17.0839H5.28956C5.63596 17.0839 5.91774 17.3656 5.91774 17.712C5.91774 18.0584 5.63596 18.3402 5.28956 18.3402H4.83164C4.56944 18.3402 4.3561 18.1269 4.3561 17.8646C4.3561 17.6214 4.15893 17.4243 3.91577 17.4243C3.6726 17.4243 3.47543 17.6214 3.47543 17.8646C3.47543 18.5668 4.01192 19.1461 4.69659 19.214V19.6963C4.69659 19.9395 4.89375 20.1366 5.13692 20.1366C5.38008 20.1366 5.57725 19.9395 5.57725 19.6963V19.1929C6.27206 19.0582 6.7984 18.4455 6.7984 17.712C6.7984 16.88 6.12153 16.2032 5.28961 16.2032H4.98434C4.63793 16.2032 4.35616 15.9214 4.35616 15.575C4.35616 15.2286 4.63793 14.9468 4.98434 14.9468H5.44225C5.70446 14.9468 5.9178 15.1602 5.9178 15.4224V15.7277C5.9178 15.9709 6.11497 16.168 6.35813 16.168Z" fill="white"/>
<path d="M16.2211 4.89654C16.4644 4.89654 16.6615 4.69943 16.6615 4.45621V4.15094C16.6615 3.44875 16.1249 2.86949 15.4403 2.80152V2.31924C15.4403 2.07602 15.2432 1.87891 15 1.87891C14.7568 1.87891 14.5597 2.07602 14.5597 2.31924V2.82262C13.8649 2.95732 13.3385 3.57004 13.3385 4.30357C13.3385 5.13555 14.0154 5.81236 14.8473 5.81236H15.1526C15.499 5.81236 15.7808 6.09414 15.7808 6.44055C15.7808 6.78695 15.499 7.06873 15.1526 7.06873H14.6947C14.4325 7.06873 14.2191 6.85539 14.2191 6.59312C14.2191 6.3499 14.022 6.15279 13.7788 6.15279C13.5356 6.15279 13.3385 6.3499 13.3385 6.59312C13.3385 7.29531 13.8749 7.87457 14.5596 7.94254V8.42482C14.5596 8.66805 14.7568 8.86516 14.9999 8.86516C15.2432 8.86516 15.4403 8.66805 15.4403 8.42482V7.92144C16.135 7.78674 16.6614 7.17402 16.6614 6.44049C16.6614 5.60851 15.9845 4.9317 15.1526 4.9317H14.8474C14.501 4.9317 14.2192 4.64992 14.2192 4.30351C14.2192 3.95711 14.501 3.67533 14.8474 3.67533H15.3053C15.5675 3.67533 15.7808 3.88867 15.7808 4.15094V4.45621C15.7808 4.69949 15.9779 4.89654 16.2211 4.89654Z" fill="white"/>
<path d="M24.863 8.68938C23.5903 8.68938 22.4242 9.1549 21.5259 9.9243L19.3461 8.10783C19.8468 7.31524 20.137 6.37709 20.137 5.37232C20.137 2.53979 17.8325 0.235352 15 0.235352C12.1675 0.235352 9.86303 2.53979 9.86303 5.37232C9.86303 6.85855 10.4977 8.19906 11.5099 9.13791L7.92035 12.3286C7.11779 11.8093 6.16201 11.5073 5.13697 11.5073C2.30443 11.5074 0 13.8118 0 16.6444C0 19.477 2.30443 21.7813 5.13697 21.7813C7.96951 21.7813 10.2739 19.4769 10.2739 16.6444C10.2739 15.1581 9.63932 13.8176 8.62705 12.8787L12.2166 9.68799C13.0192 10.2074 13.975 10.5093 15 10.5093C16.5116 10.5093 17.8727 9.85287 18.8135 8.81031L20.9061 10.5541C20.1694 11.4433 19.7261 12.584 19.7261 13.8263C19.7261 16.6588 22.0305 18.9633 24.863 18.9633C27.6956 18.9633 30 16.6588 30 13.8263C30 10.9938 27.6956 8.68938 24.863 8.68938ZM9.39334 16.6444C9.39334 18.9913 7.48395 20.9007 5.13697 20.9007C2.79 20.9007 0.880605 18.9913 0.880605 16.6444C0.880605 14.2974 2.79 12.388 5.13697 12.388C7.48395 12.388 9.39334 14.2974 9.39334 16.6444ZM15 9.62869C12.653 9.62869 10.7436 7.7193 10.7436 5.37232C10.7436 3.02535 12.653 1.11596 15 1.11596C17.347 1.11596 19.2564 3.02535 19.2564 5.37232C19.2564 7.7193 17.347 9.62869 15 9.62869ZM24.863 18.0827C22.5161 18.0827 20.6067 16.1733 20.6067 13.8263C20.6067 12.7189 21.0321 11.7092 21.7277 10.9513C21.7977 10.9255 21.8623 10.882 21.9136 10.8205C21.9467 10.7808 21.9711 10.7368 21.9881 10.6909C22.746 9.99543 23.7556 9.57004 24.863 9.57004C27.2099 9.57004 29.1193 11.4794 29.1193 13.8264C29.1194 16.1733 27.21 18.0827 24.863 18.0827Z" fill="white"/>
<path d="M26.0841 13.3506C26.3273 13.3506 26.5245 13.1535 26.5245 12.9103V12.605C26.5245 11.9029 25.9879 11.3236 25.3033 11.2556V10.7733C25.3033 10.5301 25.1062 10.333 24.863 10.333C24.6197 10.333 24.4226 10.5301 24.4226 10.7733V11.2767C23.7279 11.4114 23.2015 12.0241 23.2015 12.7577C23.2015 13.5896 23.8784 14.2665 24.7103 14.2665H25.0155C25.3619 14.2665 25.6437 14.5482 25.6437 14.8946C25.6437 15.2411 25.3619 15.5228 25.0155 15.5228H24.5576C24.2954 15.5228 24.082 15.3095 24.082 15.0472C24.082 14.804 23.8849 14.6069 23.6417 14.6069C23.3985 14.6069 23.2014 14.804 23.2014 15.0472C23.2014 15.7494 23.7379 16.3287 24.4225 16.3966V16.8789C24.4225 17.1221 24.6196 17.3193 24.8629 17.3193C25.1061 17.3193 25.3032 17.1221 25.3032 16.8789V16.3755C25.9979 16.2408 26.5243 15.6281 26.5243 14.8946C26.5243 14.0626 25.8475 13.3858 25.0156 13.3858H24.7103C24.3639 13.3858 24.0822 13.104 24.0822 12.7576C24.0822 12.4112 24.3639 12.1294 24.7103 12.1294H25.1682C25.4305 12.1294 25.6438 12.3428 25.6438 12.605V12.9103C25.6439 13.1535 25.8409 13.3506 26.0841 13.3506Z" fill="white"/>
<path d="M9.36398 23.248H5.60665C5.36349 23.248 5.16632 23.4452 5.16632 23.6884V29.3244C5.16632 29.5676 5.36349 29.7647 5.60665 29.7647H9.36398C9.60714 29.7647 9.80431 29.5676 9.80431 29.3244V23.6884C9.80431 23.4451 9.60714 23.248 9.36398 23.248ZM8.92365 28.8841H6.04693V24.1287H8.92365V28.8841Z" fill="white"/>
<path d="M27.681 23.248H23.9237C23.6805 23.248 23.4834 23.4452 23.4834 23.6884V29.3244C23.4834 29.5676 23.6805 29.7647 23.9237 29.7647H27.681C27.9243 29.7647 28.1214 29.5676 28.1214 29.3244V23.6884C28.1213 23.4451 27.9243 23.248 27.681 23.248ZM27.2407 28.8841H24.364V24.1287H27.2407V28.8841Z" fill="white"/>
<path d="M15.4697 25.0978C15.7129 25.0978 15.91 24.9007 15.91 24.6575V18.0526C15.91 17.8094 15.7129 17.6123 15.4697 17.6123H11.7123C11.4691 17.6123 11.272 17.8094 11.272 18.0526V29.3247C11.272 29.5679 11.4691 29.765 11.7123 29.765H15.4696C15.7129 29.765 15.91 29.5679 15.91 29.3247V26.7123C15.91 26.469 15.7129 26.2719 15.4696 26.2719C15.2264 26.2719 15.0293 26.469 15.0293 26.7123V28.8843H12.1526V18.4929H15.0293V24.6574C15.0294 24.9007 15.2265 25.0978 15.4697 25.0978Z" fill="white"/>
<path d="M21.5753 20.4307H17.818C17.5748 20.4307 17.3777 20.6278 17.3777 20.871V29.325C17.3777 29.5682 17.5748 29.7654 17.818 29.7654H21.5753C21.8185 29.7654 22.0157 29.5682 22.0157 29.325V20.871C22.0157 20.6278 21.8185 20.4307 21.5753 20.4307ZM21.1351 28.8847H18.2583V21.3113H21.1351V28.8847Z" fill="white"/>
</svg>
