<svg width="21" height="21" viewBox="0 0 21 21" fill="none" xmlns="http://www.w3.org/2000/svg">
<path d="M19.772 17.3625C20.447 18.0375 20.447 19.0875 19.772 19.7625C19.4345 20.1 19.022 20.25 18.572 20.25C18.122 20.25 17.7095 20.1 17.372 19.7625L10.5095 12.9L3.64695 19.7625C3.30945 20.1 2.89697 20.25 2.44697 20.25C1.99697 20.25 1.58449 20.1 1.24699 19.7625C0.571991 19.0875 0.571991 18.0375 1.24699 17.3625L8.10946 10.5L1.24699 3.63749C0.571991 2.96249 0.571991 1.91248 1.24699 1.23748C1.92199 0.562477 2.97195 0.562477 3.64695 1.23748L10.5095 8.09997L17.372 1.23748C18.047 0.562477 19.097 0.562477 19.772 1.23748C20.447 1.91248 20.447 2.96249 19.772 3.63749L12.9094 10.5L19.772 17.3625Z" fill="#339F61"/>
</svg>
